<svg width="36" height="36" viewBox="0 0 36 36" fill="none" xmlns="http://www.w3.org/2000/svg">
<g clip-path="url(#clip0_142_1353)">
<path d="M27 24V16.5C27 11.895 24.54 8.04 20.25 7.02V6C20.25 4.755 19.23 3.75 17.985 3.75C16.74 3.75 15.75 4.755 15.75 6V7.02C11.445 8.04 8.99997 11.88 8.99997 16.5V24L7.04997 25.935C6.10497 26.88 6.76497 28.5 8.09997 28.5H27.855C29.19 28.5 29.865 26.88 28.92 25.935L27 24ZM17.985 33C19.635 33 20.985 31.65 20.985 30H14.985C14.985 31.65 16.32 33 17.985 33ZM10.155 7.095C10.785 6.525 10.8 5.55 10.2 4.95C9.62997 4.38 8.69997 4.365 8.11497 4.92C5.54997 7.26 3.77997 10.44 3.20997 14.01C3.07497 14.925 3.77997 15.75 4.70997 15.75C5.42997 15.75 6.05997 15.225 6.17997 14.505C6.62997 11.595 8.06997 9 10.155 7.095ZM27.9 4.92C27.3 4.365 26.37 4.38 25.8 4.95C25.2 5.55 25.23 6.51 25.845 7.08C27.915 8.985 29.37 11.58 29.82 14.49C29.925 15.21 30.555 15.735 31.29 15.735C32.205 15.735 32.925 14.91 32.775 13.995C32.205 10.44 30.45 7.275 27.9 4.92Z" fill="#222222"/>
</g>
<defs>
<clipPath id="clip0_142_1353">
<rect width="36" height="36" fill="white"/>
</clipPath>
</defs>
</svg>
