<svg width="46" height="46" viewBox="0 0 46 46" fill="none" xmlns="http://www.w3.org/2000/svg">
<path d="M22.625 2C11.033 2 1.625 11.408 1.625 23C1.625 34.592 11.033 44 22.625 44C34.217 44 43.625 34.592 43.625 23C43.625 11.408 34.217 2 22.625 2ZM31.025 25.1H24.725V31.4C24.725 32.555 23.78 33.5 22.625 33.5C21.47 33.5 20.525 32.555 20.525 31.4V25.1H14.225C13.07 25.1 12.125 24.155 12.125 23C12.125 21.845 13.07 20.9 14.225 20.9H20.525V14.6C20.525 13.445 21.47 12.5 22.625 12.5C23.78 12.5 24.725 13.445 24.725 14.6V20.9H31.025C32.18 20.9 33.125 21.845 33.125 23C33.125 24.155 32.18 25.1 31.025 25.1Z" stroke="#494949" stroke-width="3"/>
</svg>
