<!-- 피드 작성 버튼 -->
<svg width="48" height="48" viewBox="0 0 48 48" fill="none" xmlns="http://www.w3.org/2000/svg">
<path d="M23.9998 0.666504C11.1198 0.666504 0.666504 11.1198 0.666504 23.9998C0.666504 36.8798 11.1198 47.3332 23.9998 47.3332C36.8798 47.3332 47.3332 36.8798 47.3332 23.9998C47.3332 11.1198 36.8798 0.666504 23.9998 0.666504ZM33.3332 26.3332H26.3332V33.3332C26.3332 34.6165 25.2832 35.6665 23.9998 35.6665C22.7165 35.6665 21.6665 34.6165 21.6665 33.3332V26.3332H14.6665C13.3832 26.3332 12.3332 25.2832 12.3332 23.9998C12.3332 22.7165 13.3832 21.6665 14.6665 21.6665H21.6665V14.6665C21.6665 13.3832 22.7165 12.3332 23.9998 12.3332C25.2832 12.3332 26.3332 13.3832 26.3332 14.6665V21.6665H33.3332C34.6165 21.6665 35.6665 22.7165 35.6665 23.9998C35.6665 25.2832 34.6165 26.3332 33.3332 26.3332Z" fill="#D7D7D7"/>
</svg>
