<svg xmlns="http://www.w3.org/2000/svg" width="200" height="49" viewBox="0 0 200 49" fill="none">
  <path d="M159.068 5.60086C156.044 6.6494 152.741 7.64643 150.233 9.72603C146.174 13.0923 143.866 18.8121 142.417 23.7576C141.183 27.971 141.837 32.6169 143.226 36.7053C144.045 39.1188 145.561 42.464 148.077 43.5404C152.368 45.3762 157.839 46.7924 162.572 46.7924C166.322 46.7924 170.472 45.4664 173.473 43.149C175.527 41.5628 176.88 39.3178 178.609 37.4279C181.823 33.9153 183.056 28.6418 183.056 24.0437C183.056 20.3564 181.685 16.8222 179.418 14.0168C178.323 12.6624 176.925 11.5401 175.779 10.2229C174.655 8.93148 173.609 7.78224 172.275 6.68485C168.587 3.65088 163.299 3.97488 158.798 3.97488" stroke="#282828" stroke-width="3" stroke-linecap="round"/>
  <path d="M155.135 20.8604V22.432" stroke="#282828" stroke-width="3" stroke-linecap="round"/>
  <path d="M159.998 23.4291C160.083 23.2505 159.338 22.9975 158.361 23.468C157.987 23.8375 160.024 24.0331 160.02 23.4365" stroke="#282828" stroke-width="3" stroke-linecap="round"/>
  <path d="M163.538 19.6809C163.538 19.9978 163.538 20.8596 163.59 21.0561" stroke="#282828" stroke-width="3" stroke-linecap="round"/>
  <path d="M146.483 10.7996C145.887 9.64121 145.128 8.89567 143.785 8.85732C141.335 8.78731 138.191 8.2663 135.962 9.41225C131.33 11.7946 126.298 16.1962 128.559 22.1755C128.95 23.2118 129.454 24.3952 130.582 24.3952C132.716 24.3952 134.233 23.5416 135.947 22.3297C137.177 21.4603 139.18 20.7457 140.144 19.6784C140.842 18.9047 141.746 18.3429 142.706 18.0136" stroke="#282828" stroke-width="3" stroke-linecap="round"/>
  <path d="M173.225 7.44132C173.225 0.851513 182.344 1.74122 186.649 2.5704C190.125 3.23991 193.62 4.82326 195.792 7.77206C197.25 9.75198 198.085 11.9727 197.993 14.4169C197.832 18.7025 189.183 15.3167 187.535 14.4169C184.885 12.9693 182.071 12.3122 179.004 12.3122" stroke="#282828" stroke-width="3" stroke-linecap="round"/>
  <path d="M155.921 26.3544C155.921 27.482 156.963 27.1438 157.536 26.9159C158.233 26.639 158.707 25.794 159.117 25.2054C159.235 25.0359 159.76 25.8598 159.936 26.0019C160.25 26.2555 160.662 26.4503 161.039 26.472C161.925 26.5228 163.019 26.8227 163.393 25.5318" stroke="#282828" stroke-width="3" stroke-linecap="round"/>
  <mask id="path-8-outside-1_1138_18" maskUnits="userSpaceOnUse" x="0" y="12" width="116" height="26" fill="black">
    <rect fill="white" y="12" width="116" height="26"/>
    <path d="M7.51668 23.1665L3.27327 23.4797C3.20359 22.352 3.16875 21.7532 3.16875 21.6836C3.14088 20.9875 3.10604 20.0128 3.06423 18.7597C3.03636 17.4927 3.01546 16.6155 3.00152 16.1282C2.97365 15.3624 3.32901 14.9864 4.0676 15.0004C4.49961 15.0143 5.19639 15.0491 6.15795 15.1048C7.11951 15.1605 7.85114 15.1953 8.35282 15.2092C8.93812 15.2231 9.88575 15.2301 11.1957 15.2301C12.5196 15.2162 13.4742 15.2231 14.0595 15.251C14.7284 15.2649 15.683 15.3693 16.9233 15.5643C17.2438 15.606 17.4528 15.6965 17.5504 15.8358C17.6619 15.9611 17.7106 16.1908 17.6967 16.525C17.6967 16.7756 17.6758 17.1307 17.634 17.5901C17.5922 18.0496 17.5643 18.3698 17.5504 18.5509C17.5364 18.6622 17.5225 19.2749 17.5086 20.3887C17.4946 21.3077 17.4877 21.795 17.4877 21.8507C17.4877 21.9064 17.4389 22.4146 17.3413 23.3753C15.5576 23.5146 14.589 23.5911 14.4357 23.6051C14.0595 23.6329 13.8156 23.7095 13.7041 23.8348C13.6066 23.9462 13.5787 24.1829 13.6205 24.5449C13.7041 25.1158 13.7529 25.7493 13.7668 26.4454C13.7808 27.1277 13.7738 27.6916 13.7459 28.1371C13.732 28.5827 13.6902 29.2301 13.6205 30.0795C13.5508 30.9288 13.509 31.5205 13.4951 31.8547C13.4951 31.8965 13.4951 32.3003 13.4951 33.066L7.24494 33.797C7.34248 30.1769 7.43307 26.6334 7.51668 23.1665ZM24.6821 24.8164C24.696 24.9417 24.7169 25.1297 24.7448 25.3803C24.7726 25.617 24.8005 25.8189 24.8284 25.986C24.8563 26.1531 24.8981 26.3062 24.9538 26.4454C24.9956 26.5708 25.0932 26.6891 25.2465 26.8005C25.4137 26.898 25.56 26.9467 25.6854 26.9467C25.7969 26.9467 25.9223 26.898 26.0617 26.8005C26.215 26.6891 26.3265 26.5708 26.3962 26.4454C26.5773 26.1113 26.6609 25.7284 26.647 25.2968C26.6331 24.9347 26.5982 24.4196 26.5425 23.7513C26.5007 23.069 26.4728 22.5817 26.4589 22.2893C26.4449 22.0665 26.3613 21.9273 26.208 21.8716C26.0687 21.8159 25.9432 21.8298 25.8318 21.9134C25.3998 22.1083 25.1489 22.352 25.0792 22.6443C25.0096 22.8532 24.9538 23.0829 24.912 23.3336C24.8702 23.5703 24.8214 23.8487 24.7657 24.169C24.7239 24.4753 24.696 24.6911 24.6821 24.8164ZM25.8945 15.3972C27.079 15.2858 27.7061 15.2301 27.7758 15.2301C28.4726 15.1744 29.1415 15.2649 29.7825 15.5016C30.4375 15.7244 31.0298 16.1421 31.5593 16.7547C32.0889 17.3534 32.4303 18.0983 32.5836 18.9894C33.0435 21.5653 33.0086 23.8 32.4791 25.6936C32.0331 27.253 31.5942 28.8264 31.1622 30.4136C30.6605 32.2237 29.3854 33.2122 27.3368 33.3793C26.7655 33.4211 26.2707 33.4837 25.8527 33.5673C25.5043 33.623 25.1489 33.6578 24.7866 33.6717C24.4382 33.6856 24.0828 33.6647 23.7205 33.6091C23.3721 33.5534 23.0516 33.4907 22.7589 33.4211C22.4663 33.3515 22.1318 33.247 21.7556 33.1078C21.3793 32.9686 21.0658 32.8502 20.8149 32.7528C20.5641 32.6553 20.2366 32.5161 19.8324 32.3351C19.498 32.1958 19.2402 31.9661 19.059 31.6458C18.8779 31.3256 18.7315 30.9358 18.62 30.4763C18.0626 28.3878 17.9302 26.3062 18.2229 24.2316C18.5295 22.0178 19.4841 19.7483 21.0867 17.4231C21.2121 17.242 21.3723 17.075 21.5674 16.9218C21.7625 16.7687 21.9994 16.6016 22.2782 16.4206C22.5569 16.2396 22.7589 16.1073 22.8844 16.0237C23.6369 15.4529 24.6403 15.244 25.8945 15.3972ZM49.4119 17.9243C49.0078 18.6483 48.7987 19.0312 48.7848 19.073C47.9765 20.4653 47.4888 21.2938 47.3216 21.5583C47.1265 21.8507 46.8129 22.0108 46.3809 22.0387C45.9628 22.0526 45.6284 21.9342 45.3775 21.6836C45.0152 21.3355 44.416 21.064 43.5798 20.8691C42.5904 20.6463 41.81 20.6254 41.2386 20.8064C40.3049 21.0988 39.5454 21.4817 38.9602 21.9551C38.3888 22.4146 38.0265 23.069 37.8732 23.9183C37.7059 24.8791 37.7547 25.617 38.0195 26.1322C38.3958 26.8144 39.002 27.3783 39.8381 27.8239C40.5209 28.1859 41.4268 28.2276 42.5556 27.9492C43.0015 27.8378 43.2175 27.5593 43.2036 27.1138C43.1896 26.71 43.2314 26.2087 43.329 25.61C43.3429 25.5404 43.3917 25.4638 43.4753 25.3803C43.5589 25.2968 43.6356 25.255 43.7052 25.255C44.848 25.2689 45.9419 25.3037 46.9871 25.3594C47.1265 25.3594 47.2449 25.3873 47.3425 25.443C47.44 25.4847 47.5306 25.5752 47.6142 25.7145C47.6978 25.8537 47.7466 25.9442 47.7605 25.986C47.7884 26.0277 47.8441 26.1461 47.9278 26.341C48.0811 26.6891 48.1438 27.0511 48.1159 27.427C48.0044 28.8612 47.8651 30.1421 47.6978 31.2699C47.6421 31.6319 47.4748 32.1262 47.1961 32.7528C47.1404 32.8781 46.9662 32.9755 46.6735 33.0452C46.576 33.073 46.4297 33.1078 46.2346 33.1496C46.0534 33.2053 45.9001 33.247 45.7747 33.2749C45.6632 33.3167 45.5239 33.3445 45.3566 33.3584C45.2033 33.3863 45.057 33.4002 44.9177 33.4002C42.897 33.3167 41.1411 33.1844 39.65 33.0034C39.4409 32.9755 39.2249 32.9198 39.002 32.8363C38.7929 32.7528 38.5421 32.6414 38.2494 32.5021C37.9707 32.3629 37.7617 32.2654 37.6223 32.2097C37.5248 32.168 37.3854 32.1053 37.2043 32.0218C37.0231 31.9382 36.8977 31.8825 36.828 31.8547C35.4623 31.256 34.3335 30.2257 33.4416 28.7637C33.3162 28.5548 33.2117 28.1163 33.1281 27.4479C33.0166 26.5151 32.933 25.6309 32.8772 24.7955C32.8912 24.6006 32.8842 24.4822 32.8563 24.4405C32.8424 24.3987 32.8563 24.2873 32.8981 24.1063C32.9399 23.9114 32.9539 23.793 32.9399 23.7513C32.9399 23.7095 32.9678 23.5981 33.0235 23.4171C33.0793 23.2361 33.1072 23.1247 33.1072 23.0829C33.1211 23.0412 33.1559 22.9298 33.2117 22.7488C33.2674 22.5678 33.3023 22.4633 33.3162 22.4355C33.3301 22.3937 33.3719 22.2823 33.4416 22.1013C33.5113 21.9064 33.5461 21.795 33.5461 21.7672C34.215 19.9014 35.3369 18.3072 36.9116 16.9845C37.8174 16.2187 38.8278 15.7801 39.9426 15.6687C40.0262 15.6548 40.3328 15.606 40.8624 15.5225C41.4059 15.439 41.8239 15.3972 42.1166 15.3972C42.6601 15.3972 43.4265 15.4947 44.416 15.6896C45.2939 15.8567 46.36 16.0934 47.6142 16.3997C47.9208 16.4832 48.102 16.6155 48.1577 16.7965C48.2692 17.1307 48.5479 17.3882 48.9938 17.5692C49.0496 17.5971 49.1053 17.6319 49.1611 17.6737C49.2168 17.7154 49.2656 17.7642 49.3074 17.8199C49.3631 17.8756 49.398 17.9104 49.4119 17.9243ZM56.0179 26.1948C56.1433 27.615 56.2269 28.4504 56.2688 28.701C56.2827 28.7707 56.3593 28.8403 56.4987 28.9099C56.652 28.9795 56.7844 29.0143 56.8959 29.0143C57.523 29.0143 58.4218 29.0004 59.5924 28.9725C60.763 28.9447 61.5783 28.9308 62.0381 28.9308C62.3029 28.9308 62.6792 28.9725 63.1669 29.0561C63.4456 29.0979 63.5502 29.2789 63.4805 29.5991C63.3272 30.4345 63.2296 31.068 63.1878 31.4997C63.1181 32.3211 62.707 32.8293 61.9545 33.0243C60.6446 33.3584 59.0698 33.5046 57.2303 33.4629C56.9795 33.4489 55.4744 33.435 52.7152 33.4211C51.9905 33.4211 51.4749 33.2888 51.1683 33.0243C50.8756 32.7736 50.6736 32.2863 50.5621 31.5623C50.3531 30.1282 50.2207 28.9029 50.1649 27.8865C50.0674 26.2018 50.0674 24.9278 50.1649 24.0645C50.2764 23.0899 50.5969 21.1615 51.1265 18.2793C51.1822 17.9591 51.3495 17.437 51.6282 16.713C51.7815 16.2953 52.0253 16.0794 52.3598 16.0655C52.5828 16.0655 52.9869 16.0377 53.5722 15.982C54.1575 15.9263 54.6034 15.8984 54.91 15.8984C56.3454 15.9124 57.7181 15.7383 59.028 15.3763C59.3067 15.3624 59.467 15.3554 59.5088 15.3554C59.5645 15.3415 59.7387 15.3554 60.0314 15.3972C60.324 15.439 60.4982 15.4598 60.554 15.4598C60.777 15.4877 61.0139 15.5225 61.2647 15.5643C61.5155 15.5921 61.7943 15.6269 62.1008 15.6687C62.4074 15.7105 62.6513 15.7453 62.8325 15.7731C63.153 15.8149 63.3132 16.0168 63.3132 16.3788C63.2993 16.713 63.2923 17.1864 63.2923 17.799C63.2923 18.3977 63.2923 18.8711 63.2923 19.2192C63.2923 19.5394 63.1809 19.804 62.9579 20.0128C62.7488 20.2077 62.4841 20.3052 62.1635 20.3052C62.1357 20.3052 61.6688 20.2982 60.763 20.2843C59.8711 20.2565 59.4113 20.2565 59.3834 20.2843C58.6727 20.34 57.8853 20.4792 57.0213 20.702C56.9098 20.7299 56.7983 20.9735 56.6868 21.433C56.6729 21.4748 56.7008 21.5374 56.7704 21.621C56.8401 21.7045 56.9028 21.7532 56.9586 21.7672C57.8226 21.9482 58.4636 22.0526 58.8817 22.0804C59.3416 22.1222 59.9826 22.164 60.8048 22.2058C61.641 22.2475 62.2054 22.2754 62.498 22.2893C62.7767 22.3032 62.9718 22.3728 63.0833 22.4981C63.1948 22.6095 63.2436 22.7975 63.2296 23.062C63.2296 24.2873 63.2087 25.1575 63.1669 25.6727C63.153 25.7841 63.1042 25.9024 63.0206 26.0277C62.937 26.1391 62.8394 26.2227 62.7279 26.2784C62.3656 26.4454 61.9824 26.5499 61.5783 26.5916C61.0348 26.6334 60.4913 26.6543 59.9478 26.6543C58.9305 26.6543 57.9062 26.5777 56.875 26.4246C56.861 26.4106 56.5753 26.3341 56.0179 26.1948ZM69.4808 21.9342C69.7316 24.4544 69.871 25.9094 69.8988 26.2992C69.9406 26.6752 70.1497 26.8492 70.5259 26.8214C70.6514 26.8214 70.9301 26.8283 71.3621 26.8423C71.7941 26.8562 72.0728 26.8423 72.1982 26.8005C72.6302 26.7309 72.9786 26.5499 73.2434 26.2575C73.6893 25.7841 73.8705 25.1645 73.7869 24.3987C73.7311 23.9392 73.6266 23.5563 73.4733 23.25C73.32 22.9298 73.0483 22.6792 72.6581 22.4981C72.2122 22.2754 71.7523 22.1292 71.2785 22.0596C70.8046 21.9899 70.2054 21.9482 69.4808 21.9342ZM64.3594 16.0029C64.9586 15.8358 65.2722 15.7453 65.3001 15.7314C66.3592 15.244 67.6413 15.1048 69.1463 15.3137C71.4875 15.6478 72.7835 15.8358 73.0344 15.8776C74.4976 16.1003 75.8215 16.713 77.006 17.7154C77.3962 18.0357 77.9118 18.6622 78.5529 19.5951C79.9046 21.5305 80.5875 23.4589 80.6014 25.3803C80.6154 26.9119 80.3227 28.2137 79.7235 29.2858C79.1243 30.344 78.1697 31.249 76.8597 32.0009C76.1072 32.4325 75.3128 32.7458 74.4767 32.9407C73.6545 33.1357 72.7069 33.2749 71.6338 33.3584C71.3969 33.3863 70.9161 33.435 70.1915 33.5046C69.4668 33.5742 68.9094 33.623 68.5192 33.6508C68.352 33.6647 68.122 33.6578 67.8294 33.6299C67.5507 33.6021 67.3625 33.5882 67.265 33.5882C67.1396 33.5742 66.9654 33.5742 66.7424 33.5882C66.5334 33.616 66.3801 33.6299 66.2825 33.6299C65.9481 33.6299 65.753 33.6021 65.6972 33.5464C65.2234 33.1148 64.9795 32.7249 64.9656 32.3768C64.7844 29.1187 64.666 26.8631 64.6102 25.61C64.5406 23.9392 64.4291 20.9039 64.2758 16.5041C64.2758 16.4763 64.3037 16.3092 64.3594 16.0029ZM87.2701 24.8164C87.2841 24.9417 87.305 25.1297 87.3329 25.3803C87.3607 25.617 87.3886 25.8189 87.4165 25.986C87.4443 26.1531 87.4862 26.3062 87.5419 26.4454C87.5837 26.5708 87.6813 26.6891 87.8345 26.8005C88.0018 26.898 88.1481 26.9467 88.2735 26.9467C88.385 26.9467 88.5104 26.898 88.6498 26.8005C88.8031 26.6891 88.9146 26.5708 88.9842 26.4454C89.1654 26.1113 89.249 25.7284 89.2351 25.2968C89.2211 24.9347 89.1863 24.4196 89.1306 23.7513C89.0888 23.069 89.0609 22.5817 89.047 22.2893C89.033 22.0665 88.9494 21.9273 88.7961 21.8716C88.6568 21.8159 88.5313 21.8298 88.4198 21.9134C87.9878 22.1083 87.737 22.352 87.6673 22.6443C87.5976 22.8532 87.5419 23.0829 87.5001 23.3336C87.4583 23.5703 87.4095 23.8487 87.3538 24.169C87.312 24.4753 87.2841 24.6911 87.2701 24.8164ZM88.4825 15.3972C89.6671 15.2858 90.2942 15.2301 90.3639 15.2301C91.0607 15.1744 91.7296 15.2649 92.3706 15.5016C93.0256 15.7244 93.6179 16.1421 94.1474 16.7547C94.677 17.3534 95.0184 18.0983 95.1717 18.9894C95.6316 21.5653 95.5967 23.8 95.0672 25.6936C94.6212 27.253 94.1822 28.8264 93.7502 30.4136C93.2486 32.2237 91.9734 33.2122 89.9249 33.3793C89.3535 33.4211 88.8588 33.4837 88.4407 33.5673C88.0924 33.623 87.737 33.6578 87.3747 33.6717C87.0263 33.6856 86.6709 33.6647 86.3086 33.6091C85.9602 33.5534 85.6397 33.4907 85.347 33.4211C85.0544 33.3515 84.7199 33.247 84.3437 33.1078C83.9674 32.9686 83.6538 32.8502 83.403 32.7528C83.1522 32.6553 82.8247 32.5161 82.4205 32.3351C82.0861 32.1958 81.8283 31.9661 81.6471 31.6458C81.4659 31.3256 81.3196 30.9358 81.2081 30.4763C80.6507 28.3878 80.5183 26.3062 80.811 24.2316C81.1175 22.0178 82.0721 19.7483 83.6747 17.4231C83.8002 17.242 83.9604 17.075 84.1555 16.9218C84.3506 16.7687 84.5875 16.6016 84.8662 16.4206C85.145 16.2396 85.347 16.1073 85.4724 16.0237C86.225 15.4529 87.2283 15.244 88.4825 15.3972ZM112 17.9243C111.596 18.6483 111.387 19.0312 111.373 19.073C110.565 20.4653 110.077 21.2938 109.91 21.5583C109.715 21.8507 109.401 22.0108 108.969 22.0387C108.551 22.0526 108.216 21.9342 107.966 21.6836C107.603 21.3355 107.004 21.064 106.168 20.8691C105.178 20.6463 104.398 20.6254 103.827 20.8064C102.893 21.0988 102.134 21.4817 101.548 21.9551C100.977 22.4146 100.615 23.069 100.461 23.9183C100.294 24.8791 100.343 25.617 100.608 26.1322C100.984 26.8144 101.59 27.3783 102.426 27.8239C103.109 28.1859 104.015 28.2276 105.144 27.9492C105.59 27.8378 105.806 27.5593 105.792 27.1138C105.778 26.71 105.82 26.2087 105.917 25.61C105.931 25.5404 105.98 25.4638 106.063 25.3803C106.147 25.2968 106.224 25.255 106.293 25.255C107.436 25.2689 108.53 25.3037 109.575 25.3594C109.715 25.3594 109.833 25.3873 109.931 25.443C110.028 25.4847 110.119 25.5752 110.202 25.7145C110.286 25.8537 110.335 25.9442 110.349 25.986C110.376 26.0277 110.432 26.1461 110.516 26.341C110.669 26.6891 110.732 27.0511 110.704 27.427C110.592 28.8612 110.453 30.1421 110.286 31.2699C110.23 31.6319 110.063 32.1262 109.784 32.7528C109.728 32.8781 109.554 32.9755 109.262 33.0452C109.164 33.073 109.018 33.1078 108.823 33.1496C108.641 33.2053 108.488 33.247 108.363 33.2749C108.251 33.3167 108.112 33.3445 107.945 33.3584C107.791 33.3863 107.645 33.4002 107.506 33.4002C105.485 33.3167 103.729 33.1844 102.238 33.0034C102.029 32.9755 101.813 32.9198 101.59 32.8363C101.381 32.7528 101.13 32.6414 100.838 32.5021C100.559 32.3629 100.35 32.2654 100.21 32.2097C100.113 32.168 99.9735 32.1053 99.7923 32.0218C99.6112 31.9382 99.4857 31.8825 99.4161 31.8547C98.0504 31.256 96.9216 30.2257 96.0297 28.7637C95.9043 28.5548 95.7998 28.1163 95.7161 27.4479C95.6047 26.5151 95.521 25.6309 95.4653 24.7955C95.4792 24.6006 95.4723 24.4822 95.4444 24.4405C95.4305 24.3987 95.4444 24.2873 95.4862 24.1063C95.528 23.9114 95.542 23.793 95.528 23.7513C95.528 23.7095 95.5559 23.5981 95.6116 23.4171C95.6674 23.2361 95.6952 23.1247 95.6952 23.0829C95.7092 23.0412 95.744 22.9298 95.7998 22.7488C95.8555 22.5678 95.8903 22.4633 95.9043 22.4355C95.9182 22.3937 95.96 22.2823 96.0297 22.1013C96.0994 21.9064 96.1342 21.795 96.1342 21.7672C96.8031 19.9014 97.9249 18.3072 99.4997 16.9845C100.406 16.2187 101.416 15.7801 102.531 15.6687C102.614 15.6548 102.921 15.606 103.45 15.5225C103.994 15.439 104.412 15.3972 104.705 15.3972C105.248 15.3972 106.015 15.4947 107.004 15.6896C107.882 15.8567 108.948 16.0934 110.202 16.3997C110.509 16.4832 110.69 16.6155 110.746 16.7965C110.857 17.1307 111.136 17.3882 111.582 17.5692C111.638 17.5971 111.693 17.6319 111.749 17.6737C111.805 17.7154 111.854 17.7642 111.895 17.8199C111.951 17.8756 111.986 17.9104 112 17.9243Z"/>
  </mask>
  <path d="M7.51668 23.1665L3.27327 23.4797C3.20359 22.352 3.16875 21.7532 3.16875 21.6836C3.14088 20.9875 3.10604 20.0128 3.06423 18.7597C3.03636 17.4927 3.01546 16.6155 3.00152 16.1282C2.97365 15.3624 3.32901 14.9864 4.0676 15.0004C4.49961 15.0143 5.19639 15.0491 6.15795 15.1048C7.11951 15.1605 7.85114 15.1953 8.35282 15.2092C8.93812 15.2231 9.88575 15.2301 11.1957 15.2301C12.5196 15.2162 13.4742 15.2231 14.0595 15.251C14.7284 15.2649 15.683 15.3693 16.9233 15.5643C17.2438 15.606 17.4528 15.6965 17.5504 15.8358C17.6619 15.9611 17.7106 16.1908 17.6967 16.525C17.6967 16.7756 17.6758 17.1307 17.634 17.5901C17.5922 18.0496 17.5643 18.3698 17.5504 18.5509C17.5364 18.6622 17.5225 19.2749 17.5086 20.3887C17.4946 21.3077 17.4877 21.795 17.4877 21.8507C17.4877 21.9064 17.4389 22.4146 17.3413 23.3753C15.5576 23.5146 14.589 23.5911 14.4357 23.6051C14.0595 23.6329 13.8156 23.7095 13.7041 23.8348C13.6066 23.9462 13.5787 24.1829 13.6205 24.5449C13.7041 25.1158 13.7529 25.7493 13.7668 26.4454C13.7808 27.1277 13.7738 27.6916 13.7459 28.1371C13.732 28.5827 13.6902 29.2301 13.6205 30.0795C13.5508 30.9288 13.509 31.5205 13.4951 31.8547C13.4951 31.8965 13.4951 32.3003 13.4951 33.066L7.24494 33.797C7.34248 30.1769 7.43307 26.6334 7.51668 23.1665ZM24.6821 24.8164C24.696 24.9417 24.7169 25.1297 24.7448 25.3803C24.7726 25.617 24.8005 25.8189 24.8284 25.986C24.8563 26.1531 24.8981 26.3062 24.9538 26.4454C24.9956 26.5708 25.0932 26.6891 25.2465 26.8005C25.4137 26.898 25.56 26.9467 25.6854 26.9467C25.7969 26.9467 25.9223 26.898 26.0617 26.8005C26.215 26.6891 26.3265 26.5708 26.3962 26.4454C26.5773 26.1113 26.6609 25.7284 26.647 25.2968C26.6331 24.9347 26.5982 24.4196 26.5425 23.7513C26.5007 23.069 26.4728 22.5817 26.4589 22.2893C26.4449 22.0665 26.3613 21.9273 26.208 21.8716C26.0687 21.8159 25.9432 21.8298 25.8318 21.9134C25.3998 22.1083 25.1489 22.352 25.0792 22.6443C25.0096 22.8532 24.9538 23.0829 24.912 23.3336C24.8702 23.5703 24.8214 23.8487 24.7657 24.169C24.7239 24.4753 24.696 24.6911 24.6821 24.8164ZM25.8945 15.3972C27.079 15.2858 27.7061 15.2301 27.7758 15.2301C28.4726 15.1744 29.1415 15.2649 29.7825 15.5016C30.4375 15.7244 31.0298 16.1421 31.5593 16.7547C32.0889 17.3534 32.4303 18.0983 32.5836 18.9894C33.0435 21.5653 33.0086 23.8 32.4791 25.6936C32.0331 27.253 31.5942 28.8264 31.1622 30.4136C30.6605 32.2237 29.3854 33.2122 27.3368 33.3793C26.7655 33.4211 26.2707 33.4837 25.8527 33.5673C25.5043 33.623 25.1489 33.6578 24.7866 33.6717C24.4382 33.6856 24.0828 33.6647 23.7205 33.6091C23.3721 33.5534 23.0516 33.4907 22.7589 33.4211C22.4663 33.3515 22.1318 33.247 21.7556 33.1078C21.3793 32.9686 21.0658 32.8502 20.8149 32.7528C20.5641 32.6553 20.2366 32.5161 19.8324 32.3351C19.498 32.1958 19.2402 31.9661 19.059 31.6458C18.8779 31.3256 18.7315 30.9358 18.62 30.4763C18.0626 28.3878 17.9302 26.3062 18.2229 24.2316C18.5295 22.0178 19.4841 19.7483 21.0867 17.4231C21.2121 17.242 21.3723 17.075 21.5674 16.9218C21.7625 16.7687 21.9994 16.6016 22.2782 16.4206C22.5569 16.2396 22.7589 16.1073 22.8844 16.0237C23.6369 15.4529 24.6403 15.244 25.8945 15.3972ZM49.4119 17.9243C49.0078 18.6483 48.7987 19.0312 48.7848 19.073C47.9765 20.4653 47.4888 21.2938 47.3216 21.5583C47.1265 21.8507 46.8129 22.0108 46.3809 22.0387C45.9628 22.0526 45.6284 21.9342 45.3775 21.6836C45.0152 21.3355 44.416 21.064 43.5798 20.8691C42.5904 20.6463 41.81 20.6254 41.2386 20.8064C40.3049 21.0988 39.5454 21.4817 38.9602 21.9551C38.3888 22.4146 38.0265 23.069 37.8732 23.9183C37.7059 24.8791 37.7547 25.617 38.0195 26.1322C38.3958 26.8144 39.002 27.3783 39.8381 27.8239C40.5209 28.1859 41.4268 28.2276 42.5556 27.9492C43.0015 27.8378 43.2175 27.5593 43.2036 27.1138C43.1896 26.71 43.2314 26.2087 43.329 25.61C43.3429 25.5404 43.3917 25.4638 43.4753 25.3803C43.5589 25.2968 43.6356 25.255 43.7052 25.255C44.848 25.2689 45.9419 25.3037 46.9871 25.3594C47.1265 25.3594 47.2449 25.3873 47.3425 25.443C47.44 25.4847 47.5306 25.5752 47.6142 25.7145C47.6978 25.8537 47.7466 25.9442 47.7605 25.986C47.7884 26.0277 47.8441 26.1461 47.9278 26.341C48.0811 26.6891 48.1438 27.0511 48.1159 27.427C48.0044 28.8612 47.8651 30.1421 47.6978 31.2699C47.6421 31.6319 47.4748 32.1262 47.1961 32.7528C47.1404 32.8781 46.9662 32.9755 46.6735 33.0452C46.576 33.073 46.4297 33.1078 46.2346 33.1496C46.0534 33.2053 45.9001 33.247 45.7747 33.2749C45.6632 33.3167 45.5239 33.3445 45.3566 33.3584C45.2033 33.3863 45.057 33.4002 44.9177 33.4002C42.897 33.3167 41.1411 33.1844 39.65 33.0034C39.4409 32.9755 39.2249 32.9198 39.002 32.8363C38.7929 32.7528 38.5421 32.6414 38.2494 32.5021C37.9707 32.3629 37.7617 32.2654 37.6223 32.2097C37.5248 32.168 37.3854 32.1053 37.2043 32.0218C37.0231 31.9382 36.8977 31.8825 36.828 31.8547C35.4623 31.256 34.3335 30.2257 33.4416 28.7637C33.3162 28.5548 33.2117 28.1163 33.1281 27.4479C33.0166 26.5151 32.933 25.6309 32.8772 24.7955C32.8912 24.6006 32.8842 24.4822 32.8563 24.4405C32.8424 24.3987 32.8563 24.2873 32.8981 24.1063C32.9399 23.9114 32.9539 23.793 32.9399 23.7513C32.9399 23.7095 32.9678 23.5981 33.0235 23.4171C33.0793 23.2361 33.1072 23.1247 33.1072 23.0829C33.1211 23.0412 33.1559 22.9298 33.2117 22.7488C33.2674 22.5678 33.3023 22.4633 33.3162 22.4355C33.3301 22.3937 33.3719 22.2823 33.4416 22.1013C33.5113 21.9064 33.5461 21.795 33.5461 21.7672C34.215 19.9014 35.3369 18.3072 36.9116 16.9845C37.8174 16.2187 38.8278 15.7801 39.9426 15.6687C40.0262 15.6548 40.3328 15.606 40.8624 15.5225C41.4059 15.439 41.8239 15.3972 42.1166 15.3972C42.6601 15.3972 43.4265 15.4947 44.416 15.6896C45.2939 15.8567 46.36 16.0934 47.6142 16.3997C47.9208 16.4832 48.102 16.6155 48.1577 16.7965C48.2692 17.1307 48.5479 17.3882 48.9938 17.5692C49.0496 17.5971 49.1053 17.6319 49.1611 17.6737C49.2168 17.7154 49.2656 17.7642 49.3074 17.8199C49.3631 17.8756 49.398 17.9104 49.4119 17.9243ZM56.0179 26.1948C56.1433 27.615 56.2269 28.4504 56.2688 28.701C56.2827 28.7707 56.3593 28.8403 56.4987 28.9099C56.652 28.9795 56.7844 29.0143 56.8959 29.0143C57.523 29.0143 58.4218 29.0004 59.5924 28.9725C60.763 28.9447 61.5783 28.9308 62.0381 28.9308C62.3029 28.9308 62.6792 28.9725 63.1669 29.0561C63.4456 29.0979 63.5502 29.2789 63.4805 29.5991C63.3272 30.4345 63.2296 31.068 63.1878 31.4997C63.1181 32.3211 62.707 32.8293 61.9545 33.0243C60.6446 33.3584 59.0698 33.5046 57.2303 33.4629C56.9795 33.4489 55.4744 33.435 52.7152 33.4211C51.9905 33.4211 51.4749 33.2888 51.1683 33.0243C50.8756 32.7736 50.6736 32.2863 50.5621 31.5623C50.3531 30.1282 50.2207 28.9029 50.1649 27.8865C50.0674 26.2018 50.0674 24.9278 50.1649 24.0645C50.2764 23.0899 50.5969 21.1615 51.1265 18.2793C51.1822 17.9591 51.3495 17.437 51.6282 16.713C51.7815 16.2953 52.0253 16.0794 52.3598 16.0655C52.5828 16.0655 52.9869 16.0377 53.5722 15.982C54.1575 15.9263 54.6034 15.8984 54.91 15.8984C56.3454 15.9124 57.7181 15.7383 59.028 15.3763C59.3067 15.3624 59.467 15.3554 59.5088 15.3554C59.5645 15.3415 59.7387 15.3554 60.0314 15.3972C60.324 15.439 60.4982 15.4598 60.554 15.4598C60.777 15.4877 61.0139 15.5225 61.2647 15.5643C61.5155 15.5921 61.7943 15.6269 62.1008 15.6687C62.4074 15.7105 62.6513 15.7453 62.8325 15.7731C63.153 15.8149 63.3132 16.0168 63.3132 16.3788C63.2993 16.713 63.2923 17.1864 63.2923 17.799C63.2923 18.3977 63.2923 18.8711 63.2923 19.2192C63.2923 19.5394 63.1809 19.804 62.9579 20.0128C62.7488 20.2077 62.4841 20.3052 62.1635 20.3052C62.1357 20.3052 61.6688 20.2982 60.763 20.2843C59.8711 20.2565 59.4113 20.2565 59.3834 20.2843C58.6727 20.34 57.8853 20.4792 57.0213 20.702C56.9098 20.7299 56.7983 20.9735 56.6868 21.433C56.6729 21.4748 56.7008 21.5374 56.7704 21.621C56.8401 21.7045 56.9028 21.7532 56.9586 21.7672C57.8226 21.9482 58.4636 22.0526 58.8817 22.0804C59.3416 22.1222 59.9826 22.164 60.8048 22.2058C61.641 22.2475 62.2054 22.2754 62.498 22.2893C62.7767 22.3032 62.9718 22.3728 63.0833 22.4981C63.1948 22.6095 63.2436 22.7975 63.2296 23.062C63.2296 24.2873 63.2087 25.1575 63.1669 25.6727C63.153 25.7841 63.1042 25.9024 63.0206 26.0277C62.937 26.1391 62.8394 26.2227 62.7279 26.2784C62.3656 26.4454 61.9824 26.5499 61.5783 26.5916C61.0348 26.6334 60.4913 26.6543 59.9478 26.6543C58.9305 26.6543 57.9062 26.5777 56.875 26.4246C56.861 26.4106 56.5753 26.3341 56.0179 26.1948ZM69.4808 21.9342C69.7316 24.4544 69.871 25.9094 69.8988 26.2992C69.9406 26.6752 70.1497 26.8492 70.5259 26.8214C70.6514 26.8214 70.9301 26.8283 71.3621 26.8423C71.7941 26.8562 72.0728 26.8423 72.1982 26.8005C72.6302 26.7309 72.9786 26.5499 73.2434 26.2575C73.6893 25.7841 73.8705 25.1645 73.7869 24.3987C73.7311 23.9392 73.6266 23.5563 73.4733 23.25C73.32 22.9298 73.0483 22.6792 72.6581 22.4981C72.2122 22.2754 71.7523 22.1292 71.2785 22.0596C70.8046 21.9899 70.2054 21.9482 69.4808 21.9342ZM64.3594 16.0029C64.9586 15.8358 65.2722 15.7453 65.3001 15.7314C66.3592 15.244 67.6413 15.1048 69.1463 15.3137C71.4875 15.6478 72.7835 15.8358 73.0344 15.8776C74.4976 16.1003 75.8215 16.713 77.006 17.7154C77.3962 18.0357 77.9118 18.6622 78.5529 19.5951C79.9046 21.5305 80.5875 23.4589 80.6014 25.3803C80.6154 26.9119 80.3227 28.2137 79.7235 29.2858C79.1243 30.344 78.1697 31.249 76.8597 32.0009C76.1072 32.4325 75.3128 32.7458 74.4767 32.9407C73.6545 33.1357 72.7069 33.2749 71.6338 33.3584C71.3969 33.3863 70.9161 33.435 70.1915 33.5046C69.4668 33.5742 68.9094 33.623 68.5192 33.6508C68.352 33.6647 68.122 33.6578 67.8294 33.6299C67.5507 33.6021 67.3625 33.5882 67.265 33.5882C67.1396 33.5742 66.9654 33.5742 66.7424 33.5882C66.5334 33.616 66.3801 33.6299 66.2825 33.6299C65.9481 33.6299 65.753 33.6021 65.6972 33.5464C65.2234 33.1148 64.9795 32.7249 64.9656 32.3768C64.7844 29.1187 64.666 26.8631 64.6102 25.61C64.5406 23.9392 64.4291 20.9039 64.2758 16.5041C64.2758 16.4763 64.3037 16.3092 64.3594 16.0029ZM87.2701 24.8164C87.2841 24.9417 87.305 25.1297 87.3329 25.3803C87.3607 25.617 87.3886 25.8189 87.4165 25.986C87.4443 26.1531 87.4862 26.3062 87.5419 26.4454C87.5837 26.5708 87.6813 26.6891 87.8345 26.8005C88.0018 26.898 88.1481 26.9467 88.2735 26.9467C88.385 26.9467 88.5104 26.898 88.6498 26.8005C88.8031 26.6891 88.9146 26.5708 88.9842 26.4454C89.1654 26.1113 89.249 25.7284 89.2351 25.2968C89.2211 24.9347 89.1863 24.4196 89.1306 23.7513C89.0888 23.069 89.0609 22.5817 89.047 22.2893C89.033 22.0665 88.9494 21.9273 88.7961 21.8716C88.6568 21.8159 88.5313 21.8298 88.4198 21.9134C87.9878 22.1083 87.737 22.352 87.6673 22.6443C87.5976 22.8532 87.5419 23.0829 87.5001 23.3336C87.4583 23.5703 87.4095 23.8487 87.3538 24.169C87.312 24.4753 87.2841 24.6911 87.2701 24.8164ZM88.4825 15.3972C89.6671 15.2858 90.2942 15.2301 90.3639 15.2301C91.0607 15.1744 91.7296 15.2649 92.3706 15.5016C93.0256 15.7244 93.6179 16.1421 94.1474 16.7547C94.677 17.3534 95.0184 18.0983 95.1717 18.9894C95.6316 21.5653 95.5967 23.8 95.0672 25.6936C94.6212 27.253 94.1822 28.8264 93.7502 30.4136C93.2486 32.2237 91.9734 33.2122 89.9249 33.3793C89.3535 33.4211 88.8588 33.4837 88.4407 33.5673C88.0924 33.623 87.737 33.6578 87.3747 33.6717C87.0263 33.6856 86.6709 33.6647 86.3086 33.6091C85.9602 33.5534 85.6397 33.4907 85.347 33.4211C85.0544 33.3515 84.7199 33.247 84.3437 33.1078C83.9674 32.9686 83.6538 32.8502 83.403 32.7528C83.1522 32.6553 82.8247 32.5161 82.4205 32.3351C82.0861 32.1958 81.8283 31.9661 81.6471 31.6458C81.4659 31.3256 81.3196 30.9358 81.2081 30.4763C80.6507 28.3878 80.5183 26.3062 80.811 24.2316C81.1175 22.0178 82.0721 19.7483 83.6747 17.4231C83.8002 17.242 83.9604 17.075 84.1555 16.9218C84.3506 16.7687 84.5875 16.6016 84.8662 16.4206C85.145 16.2396 85.347 16.1073 85.4724 16.0237C86.225 15.4529 87.2283 15.244 88.4825 15.3972ZM112 17.9243C111.596 18.6483 111.387 19.0312 111.373 19.073C110.565 20.4653 110.077 21.2938 109.91 21.5583C109.715 21.8507 109.401 22.0108 108.969 22.0387C108.551 22.0526 108.216 21.9342 107.966 21.6836C107.603 21.3355 107.004 21.064 106.168 20.8691C105.178 20.6463 104.398 20.6254 103.827 20.8064C102.893 21.0988 102.134 21.4817 101.548 21.9551C100.977 22.4146 100.615 23.069 100.461 23.9183C100.294 24.8791 100.343 25.617 100.608 26.1322C100.984 26.8144 101.59 27.3783 102.426 27.8239C103.109 28.1859 104.015 28.2276 105.144 27.9492C105.59 27.8378 105.806 27.5593 105.792 27.1138C105.778 26.71 105.82 26.2087 105.917 25.61C105.931 25.5404 105.98 25.4638 106.063 25.3803C106.147 25.2968 106.224 25.255 106.293 25.255C107.436 25.2689 108.53 25.3037 109.575 25.3594C109.715 25.3594 109.833 25.3873 109.931 25.443C110.028 25.4847 110.119 25.5752 110.202 25.7145C110.286 25.8537 110.335 25.9442 110.349 25.986C110.376 26.0277 110.432 26.1461 110.516 26.341C110.669 26.6891 110.732 27.0511 110.704 27.427C110.592 28.8612 110.453 30.1421 110.286 31.2699C110.23 31.6319 110.063 32.1262 109.784 32.7528C109.728 32.8781 109.554 32.9755 109.262 33.0452C109.164 33.073 109.018 33.1078 108.823 33.1496C108.641 33.2053 108.488 33.247 108.363 33.2749C108.251 33.3167 108.112 33.3445 107.945 33.3584C107.791 33.3863 107.645 33.4002 107.506 33.4002C105.485 33.3167 103.729 33.1844 102.238 33.0034C102.029 32.9755 101.813 32.9198 101.59 32.8363C101.381 32.7528 101.13 32.6414 100.838 32.5021C100.559 32.3629 100.35 32.2654 100.21 32.2097C100.113 32.168 99.9735 32.1053 99.7923 32.0218C99.6112 31.9382 99.4857 31.8825 99.4161 31.8547C98.0504 31.256 96.9216 30.2257 96.0297 28.7637C95.9043 28.5548 95.7998 28.1163 95.7161 27.4479C95.6047 26.5151 95.521 25.6309 95.4653 24.7955C95.4792 24.6006 95.4723 24.4822 95.4444 24.4405C95.4305 24.3987 95.4444 24.2873 95.4862 24.1063C95.528 23.9114 95.542 23.793 95.528 23.7513C95.528 23.7095 95.5559 23.5981 95.6116 23.4171C95.6674 23.2361 95.6952 23.1247 95.6952 23.0829C95.7092 23.0412 95.744 22.9298 95.7998 22.7488C95.8555 22.5678 95.8903 22.4633 95.9043 22.4355C95.9182 22.3937 95.96 22.2823 96.0297 22.1013C96.0994 21.9064 96.1342 21.795 96.1342 21.7672C96.8031 19.9014 97.9249 18.3072 99.4997 16.9845C100.406 16.2187 101.416 15.7801 102.531 15.6687C102.614 15.6548 102.921 15.606 103.45 15.5225C103.994 15.439 104.412 15.3972 104.705 15.3972C105.248 15.3972 106.015 15.4947 107.004 15.6896C107.882 15.8567 108.948 16.0934 110.202 16.3997C110.509 16.4832 110.69 16.6155 110.746 16.7965C110.857 17.1307 111.136 17.3882 111.582 17.5692C111.638 17.5971 111.693 17.6319 111.749 17.6737C111.805 17.7154 111.854 17.7642 111.895 17.8199C111.951 17.8756 111.986 17.9104 112 17.9243Z" stroke="#282828" stroke-width="6" mask="url(#path-8-outside-1_1138_18)"/>
  <path d="M8.92701 22.3291C8.87662 22.4355 8.6756 23.2205 8.96127 22.9788C9.05524 22.8993 9.07752 22.7765 9.08562 22.659C9.08886 22.612 9.04121 22.2806 9.04121 22.4205" stroke="#282828" stroke-linecap="round"/>
  <path d="M10.8472 24.0203C10.5467 23.906 10.1494 23.9444 9.84521 24.0203C9.79571 24.0327 9.72677 24.137 9.80076 24.1625C10.045 24.2466 10.7591 24.3808 10.9387 24.1117" stroke="#282828" stroke-linecap="round"/>
  <path d="M12.0132 22.125C11.7298 22.1816 11.6893 22.9373 11.9726 23.0107C12.3166 23.0998 12.1961 22.2986 12.1961 22.1478" stroke="#282828" stroke-linecap="round"/>
</svg>
