<svg width="107" height="43" viewBox="0 0 107 43" fill="none" xmlns="http://www.w3.org/2000/svg">
<rect width="107" height="43" rx="5" fill="#D7D7D7"/>
<path d="M52.9512 26.0752H41.0273V25.1084H52.9512V26.0752ZM47.5166 25.5332H46.3887V22.3105H47.5166V25.5332ZM51.4424 19.5713H43.6641V22.208H42.5215V18.6338H50.3145V16.583H42.4922V15.6309H51.4424V19.5713ZM51.75 22.6475H42.5215V21.6953H51.75V22.6475ZM63.7178 16.9346H55.251V15.9824H63.7178V16.9346ZM65.8564 25.8408H53.9912V24.8887H65.8564V25.8408ZM59.7773 25.3867H58.6494V20.2305H59.7773V25.3867ZM64.4355 17.4473C64.4258 18.5215 64.394 19.4834 64.3403 20.333C64.2866 21.1826 64.1572 22.1689 63.9521 23.292L62.7803 23.1602C62.9951 22.0957 63.1318 21.1338 63.1904 20.2744C63.249 19.415 63.2783 18.4775 63.2783 17.4619V17.2861V15.9824H64.4355V17.2861V17.4473Z" fill="black"/>
</svg>
