<svg width="46" height="48" viewBox="0 0 46 48" fill="none" xmlns="http://www.w3.org/2000/svg">
<path d="M22.625 2C11.033 2 1.625 11.817 1.625 23.913C1.625 36.009 11.033 45.8261 22.625 45.8261C34.217 45.8261 43.625 36.009 43.625 23.913C43.625 11.817 34.217 2 22.625 2ZM20.525 41.2901C12.23 40.2164 5.825 32.8536 5.825 23.913C5.825 22.5544 5.993 21.2616 6.266 19.9906L16.325 30.487V32.6783C16.325 35.0887 18.215 37.0609 20.525 37.0609V41.2901ZM35.015 35.7242C34.469 33.9492 32.915 32.6783 31.025 32.6783H28.925V26.1043C28.925 24.8991 27.98 23.913 26.825 23.913H14.225V19.5304H18.425C19.58 19.5304 20.525 18.5443 20.525 17.3391V12.9565H24.725C27.035 12.9565 28.925 10.9843 28.925 8.57391V7.67548C35.078 10.2831 39.425 16.5722 39.425 23.913C39.425 28.471 37.745 32.6125 35.015 35.7242Z" stroke="#494949" stroke-width="3"/>
</svg>
