<!-- 지도 피드로 이동 버튼 -->
<svg width="48" height="48" viewBox="0 0 48 48" fill="none" xmlns="http://www.w3.org/2000/svg">
<path d="M23.9998 0.666504C11.1198 0.666504 0.666504 11.1198 0.666504 23.9998C0.666504 36.8798 11.1198 47.3332 23.9998 47.3332C36.8798 47.3332 47.3332 36.8798 47.3332 23.9998C47.3332 11.1198 36.8798 0.666504 23.9998 0.666504ZM21.6665 42.5032C12.4498 41.3598 5.33317 33.5198 5.33317 23.9998C5.33317 22.5532 5.51984 21.1765 5.82317 19.8232L16.9998 30.9998V33.3332C16.9998 35.8998 19.0998 37.9998 21.6665 37.9998V42.5032ZM37.7665 36.5765C37.1598 34.6865 35.4332 33.3332 33.3332 33.3332H30.9998V26.3332C30.9998 25.0498 29.9498 23.9998 28.6665 23.9998H14.6665V19.3332H19.3332C20.6165 19.3332 21.6665 18.2832 21.6665 16.9998V12.3332H26.3332C28.8998 12.3332 30.9998 10.2332 30.9998 7.6665V6.70984C37.8365 9.4865 42.6665 16.1832 42.6665 23.9998C42.6665 28.8532 40.7998 33.2632 37.7665 36.5765Z" fill="#D7D7D7"/>
</svg>
