<svg width="36" height="36" viewBox="0 0 36 36" fill="none" xmlns="http://www.w3.org/2000/svg">
<g clip-path="url(#clip0_142_1365)">
<path d="M10.14 7.2602L7.44 4.5752L5.325 6.6902L8.01 9.37519L10.14 7.2602ZM6 15.7502H1.5V18.7502H6V15.7502ZM19.5 0.825195H16.5V5.2502H19.5V0.825195ZM30.675 6.6902L28.56 4.5752L25.875 7.2602L27.99 9.37519L30.675 6.6902ZM25.86 27.2402L28.545 29.9402L30.66 27.8252L27.96 25.1402L25.86 27.2402ZM30 15.7502V18.7502H34.5V15.7502H30ZM18 8.2502C13.035 8.2502 9 12.2852 9 17.2502C9 22.2152 13.035 26.2502 18 26.2502C22.965 26.2502 27 22.2152 27 17.2502C27 12.2852 22.965 8.2502 18 8.2502ZM16.5 33.6752H19.5V29.2502H16.5V33.6752ZM5.325 27.8102L7.44 29.9252L10.125 27.2252L8.01 25.1102L5.325 27.8102Z" fill="#222222"/>
</g>
<defs>
<clipPath id="clip0_142_1365">
<rect width="36" height="36" fill="white"/>
</clipPath>
</defs>
</svg>
