<svg width="36" height="47" viewBox="0 0 36 47" fill="none" xmlns="http://www.w3.org/2000/svg">
<path d="M18.0001 46.3335C20.5668 46.3335 22.6668 44.2335 22.6668 41.6668H13.3335C13.3335 44.2335 15.4101 46.3335 18.0001 46.3335ZM32.0001 32.3335V20.6668C32.0001 13.5035 28.1735 7.50683 21.5001 5.92016V4.3335C21.5001 2.39683 19.9368 0.833496 18.0001 0.833496C16.0635 0.833496 14.5001 2.39683 14.5001 4.3335V5.92016C7.80345 7.50683 4.00012 13.4802 4.00012 20.6668V32.3335L0.99012 35.3435C-0.47988 36.8135 0.546786 39.3335 2.62345 39.3335H33.3535C35.4301 39.3335 36.4801 36.8135 35.0101 35.3435L32.0001 32.3335Z" fill="#D7D7D7"/>
</svg>


