<!-- 새 알림이 있을 때 -->
<!-- 아직 수치 미정인 상태로 아이콘만 받은게 아닌 그루핑 된 프레임 전체를 받아온 svg파일 -->
<svg width="56" height="56" viewBox="0 0 56 56" fill="none" xmlns="http://www.w3.org/2000/svg">
<g clip-path="url(#clip0_130_902)">
<path d="M28.0001 51.3335C30.5668 51.3335 32.6668 49.2335 32.6668 46.6668H23.3335C23.3335 49.2335 25.4101 51.3335 28.0001 51.3335ZM42.0001 37.3335V25.6668C42.0001 18.5035 38.1735 12.5068 31.5001 10.9202V9.3335C31.5001 7.39683 29.9368 5.8335 28.0001 5.8335C26.0635 5.8335 24.5001 7.39683 24.5001 9.3335V10.9202C17.8035 12.5068 14.0001 18.4802 14.0001 25.6668V37.3335L10.9901 40.3435C9.52012 41.8135 10.5468 44.3335 12.6235 44.3335H43.3535C45.4301 44.3335 46.4801 41.8135 45.0101 40.3435L42.0001 37.3335Z" fill="#D7D7D7"/>
<circle cx="41" cy="17" r="5" fill="#FF4E4E"/>
</g>
<defs>
<clipPath id="clip0_130_902">
<rect width="56" height="56" fill="white"/>
</clipPath>
</defs>
</svg>
