<svg width="20" height="20" viewBox="0 0 20 20" fill="none" xmlns="http://www.w3.org/2000/svg">
<path d="M10 10C12.7625 10 15 7.7625 15 5C15 2.2375 12.7625 0 10 0C7.2375 0 5 2.2375 5 5C5 7.7625 7.2375 10 10 10ZM10 2.5C11.375 2.5 12.5 3.625 12.5 5C12.5 6.375 11.375 7.5 10 7.5C8.625 7.5 7.5 6.375 7.5 5C7.5 3.625 8.625 2.5 10 2.5ZM10 11.25C6.6625 11.25 0 12.925 0 16.25V18.75C0 19.4375 0.5625 20 1.25 20H18.75C19.4375 20 20 19.4375 20 18.75V16.25C20 12.925 13.3375 11.25 10 11.25ZM17.5 17.5H2.5V16.2625C2.75 15.3625 6.625 13.75 10 13.75C13.375 13.75 17.25 15.3625 17.5 16.25V17.5Z" fill="white"/>
</svg>
