<svg width="80" height="80" viewBox="0 0 96 96" fill="none" xmlns="http://www.w3.org/2000/svg">
<g clip-path="url(#clip0_777_10)">
<path d="M84 76V20C84 15.6 80.4 12 76 12H20C15.6 12 12 15.6 12 20V76C12 80.4 15.6 84 20 84H76C80.4 84 84 80.4 84 76ZM35.6 55.92L44 66.04L56.4 50.08C57.2 49.04 58.8 49.04 59.6 50.12L73.64 68.84C74.64 70.16 73.68 72.04 72.04 72.04H24.08C22.4 72.04 21.48 70.12 22.52 68.8L32.48 56C33.24 54.96 34.76 54.92 35.6 55.92Z" fill="white"/>
</g>
<defs>
<clipPath id="clip0_777_10">
<rect width="96" height="96" fill="white"/>
</clipPath>
</defs>
</svg>
