<!-- 마이페이지 펫 추가 아이콘 -->
<svg width="80" height="80" viewBox="0 0 80 80" fill="none" xmlns="http://www.w3.org/2000/svg">
<circle cx="40" cy="40" r="39.5" stroke="#D7D7D7"/>
<g clip-path="url(#clip0_254_974)">
<path d="M53.8098 40.4661C53.8098 39.6388 53.1415 38.9706 52.3142 38.9706L41.9516 38.96L41.9516 28.5867C41.9516 27.7594 41.2834 27.0912 40.4561 27.0912C39.6287 27.0912 38.9605 27.7594 38.9605 28.5867L38.9605 38.96L28.5873 38.96C27.76 38.96 27.0917 39.6282 27.0917 40.4555C27.0917 41.2828 27.76 41.951 28.5873 41.951L38.9605 41.951L38.9605 52.3243C38.9605 53.1516 39.6287 53.8198 40.4561 53.8198C41.2834 53.8198 41.9516 53.1516 41.9516 52.3243L41.9516 41.951L52.3248 41.951C53.1309 41.951 53.8098 41.2722 53.8098 40.4661Z" fill="#D7D7D7"/>
</g>
<defs>
<clipPath id="clip0_254_974">
<rect width="36" height="36" fill="white" transform="translate(40.4561 15) rotate(45)"/>
</clipPath>
</defs>
</svg>
