<svg width="68" height="68" viewBox="0 0 68 68" fill="none" xmlns="http://www.w3.org/2000/svg">
<path d="M4.00008 14.0003C2.16675 14.0003 0.666748 15.5003 0.666748 17.3337V60.667C0.666748 64.3337 3.66675 67.3337 7.33341 67.3337H50.6667C52.5001 67.3337 54.0001 65.8337 54.0001 64.0003C54.0001 62.167 52.5001 60.667 50.6667 60.667H10.6667C8.83341 60.667 7.33341 59.167 7.33341 57.3337V17.3337C7.33341 15.5003 5.83341 14.0003 4.00008 14.0003ZM60.6667 0.666992H20.6667C17.0001 0.666992 14.0001 3.66699 14.0001 7.33366V47.3337C14.0001 51.0003 17.0001 54.0003 20.6667 54.0003H60.6667C64.3334 54.0003 67.3334 51.0003 67.3334 47.3337V7.33366C67.3334 3.66699 64.3334 0.666992 60.6667 0.666992ZM34.0001 42.3337V12.3337L52.2334 26.0003C53.1334 26.667 53.1334 28.0003 52.2334 28.667L34.0001 42.3337Z" fill="white"/>
</svg>
