<svg width="51" height="51" viewBox="0 0 51 51" fill="none" xmlns="http://www.w3.org/2000/svg">
<path d="M7.74871 7.74811C-2.00936 17.5062 -2.00936 33.3454 7.74871 43.1035C17.5068 52.8615 33.346 52.8615 43.1041 43.1035C52.8621 33.3454 52.8621 17.5062 43.1041 7.74811C33.346 -2.00996 17.5068 -2.00996 7.74871 7.74811ZM34.2652 20.1225L28.9619 25.4258L34.2652 30.7291C35.2375 31.7014 35.2375 33.2923 34.2652 34.2646C33.2929 35.2369 31.702 35.2369 30.7297 34.2646L25.4264 28.9613L20.1231 34.2646C19.1508 35.2369 17.5598 35.2369 16.5875 34.2646C15.6153 33.2923 15.6153 31.7014 16.5875 30.7291L21.8908 25.4258L16.5875 20.1225C15.6153 19.1502 15.6153 17.5592 16.5875 16.5869C17.5598 15.6147 19.1508 15.6147 20.1231 16.5869L25.4264 21.8902L30.7297 16.5869C31.702 15.6147 33.2929 15.6147 34.2652 16.5869C35.2375 17.5592 35.2375 19.1502 34.2652 20.1225Z" fill="white"/>
</svg>
