<svg width="96" height="96" viewBox="0 0 96 96" fill="none" xmlns="http://www.w3.org/2000/svg">
<g clip-path="url(#clip0_139_1140)">
<path d="M18 48C23.5228 48 28 43.5228 28 38C28 32.4772 23.5228 28 18 28C12.4772 28 8 32.4772 8 38C8 43.5228 12.4772 48 18 48Z" fill="#D7D7D7"/>
<path d="M36 32C41.5228 32 46 27.5228 46 22C46 16.4772 41.5228 12 36 12C30.4772 12 26 16.4772 26 22C26 27.5228 30.4772 32 36 32Z" fill="#D7D7D7"/>
<path d="M60 32C65.5228 32 70 27.5228 70 22C70 16.4772 65.5228 12 60 12C54.4772 12 50 16.4772 50 22C50 27.5228 54.4772 32 60 32Z" fill="#D7D7D7"/>
<path d="M78 48C83.5228 48 88 43.5228 88 38C88 32.4772 83.5228 28 78 28C72.4772 28 68 32.4772 68 38C68 43.5228 72.4772 48 78 48Z" fill="#D7D7D7"/>
<path d="M69.3596 59.44C65.8796 55.36 62.9596 51.88 59.4396 47.8C57.5996 45.64 55.2396 43.48 52.4396 42.52C51.9996 42.36 51.5596 42.24 51.1196 42.16C50.1196 42 49.0396 42 47.9996 42C46.9596 42 45.8796 42 44.8396 42.2C44.3996 42.28 43.9596 42.4 43.5196 42.56C40.7196 43.52 38.3996 45.68 36.5196 47.84C33.0396 51.92 30.1196 55.4 26.5996 59.48C21.3596 64.72 14.9196 70.52 16.1196 78.64C17.2796 82.72 20.1996 86.76 25.4396 87.92C28.3596 88.52 37.6796 86.16 47.5996 86.16H48.3196C58.2396 86.16 67.5596 88.48 70.4796 87.92C75.7196 86.76 78.6396 82.68 79.7996 78.64C81.0396 70.48 74.5996 64.68 69.3596 59.44Z" fill="#D7D7D7"/>
</g>
<defs>
<clipPath id="clip0_139_1140">
<rect width="96" height="96" fill="white"/>
</clipPath>
</defs>
</svg>
