<svg width="31" height="31" viewBox="0 0 31 31" fill="none" xmlns="http://www.w3.org/2000/svg">
<path d="M4.84928 4.84945C-1.00557 10.7043 -1.00557 20.2078 4.84928 26.0627C10.7041 31.9175 20.2076 31.9175 26.0625 26.0627C31.9173 20.2078 31.9173 10.7043 26.0625 4.84945C20.2076 -1.00539 10.7041 -1.00539 4.84928 4.84945ZM20.7592 12.2741L17.5772 15.4561L20.7592 18.638C21.3425 19.2214 21.3425 20.176 20.7592 20.7594C20.1758 21.3427 19.2212 21.3427 18.6379 20.7594L15.4559 17.5774L12.2739 20.7594C11.6905 21.3427 10.7359 21.3427 10.1526 20.7594C9.56922 20.176 9.56922 19.2214 10.1526 18.638L13.3346 15.4561L10.1526 12.2741C9.56922 11.6907 9.56922 10.7361 10.1526 10.1528C10.7359 9.56939 11.6905 9.56939 12.2739 10.1528L15.4559 13.3347L18.6379 10.1528C19.2212 9.56939 20.1758 9.56939 20.7592 10.1528C21.3425 10.7361 21.3425 11.6907 20.7592 12.2741Z" fill="#979797"/>
</svg>
