<svg width="351" height="215" viewBox="0 0 351 215" fill="none" xmlns="http://www.w3.org/2000/svg">
<path d="M122.655 22.0384L139.655 31.1426L163.655 25.885L183.155 25.885L201.655 31.1426L221.655 17.5384L254.155 6.03845L271.655 19.0385L282.655 55.0385L279.633 81.0385L285.655 99.5385V107.038L299.155 109.038L312.655 112.538L330.155 122.15L341.155 140.038L346.155 159.538L341.155 187.038L325.661 203.591L309.655 198.334L294.12 200.354L285.655 197.038L279.633 198.334L260.655 200.354L252.055 183.612L248.155 175.538L228.93 179.026L204.655 183.612L177.655 177.538L170.655 168.038L160.573 179.026L132.182 187.818L96.1547 175.538L78.6547 200.354H62.3337L48.0606 208.849L31.6547 201.538L18.6182 200.354L8.10303 193.038L8.10303 171.916L10.1547 148.538L23.8757 132.088L43.1547 118.038L62.3337 116.038L69.577 107.93V92.5384L58.6547 81.5384L56.1547 67.5384L64.1547 40.0384L79.6547 22.0384L98.6547 11.0384L122.655 22.0384Z" fill="#FFE89F"/>
<path d="M63.3184 123.727C63.3184 114.346 72.4614 111.268 75.0567 104.525" stroke="#FFE89F" stroke-linecap="round"/>
<path d="M198.525 126.508C205.702 133.552 195.676 153.703 186.01 157.046C172.448 178.698 120.784 128.845 157.071 126.867C167.888 126.277 189.055 117.212 198.525 126.508Z" fill="#222222"/>
<path d="M32.13 174.089C32.13 218.354 0.674119 188.136 15.6942 166.022" stroke="#FFE89F" stroke-width="3" stroke-linecap="round"/>
<path d="M137.058 110.305C137.058 113.351 133.804 116.521 128.827 116.521C123.849 116.521 120.596 113.351 120.596 110.305C120.596 107.259 123.849 104.089 128.827 104.089C133.804 104.089 137.058 107.259 137.058 110.305Z" fill="#222222" stroke="#222222" stroke-width="4"/>
<path d="M219.073 110.305C219.073 113.131 216.042 116.123 211.337 116.123C206.633 116.123 203.602 113.131 203.602 110.305C203.602 107.478 206.633 104.486 211.337 104.486C216.042 104.486 219.073 107.478 219.073 110.305Z" fill="#222222" stroke="#222222" stroke-width="4"/>
<path d="M220.141 42.5243C220.141 42.5243 230.832 58.4397 233.77 60.9346C238.143 64.6493 242.441 68.4973 247.679 71.0494C254.725 74.4822 275.018 84.2816 281.497 75.1213" stroke="#222222" stroke-width="11" stroke-linecap="round"/>
<path d="M69.6623 91.7723C74.8133 92.9262 81.2386 91.3807 86.0466 89.56C93.8911 86.5895 99.6106 81.5648 105.97 76.3866C110.789 72.4633 114.656 67.8047 118.547 63.0279C119.981 61.267 124.16 55.5559 124.16 55.5559" stroke="#222222" stroke-width="11" stroke-linecap="round"/>
<path d="M53.7734 114.887C66.5948 114.887 83.2274 128.872 88.6894 139.594C94.6969 151.388 95.1854 165.648 95.1854 178.647" stroke="#222222" stroke-width="11" stroke-linecap="round"/>
<path d="M289.587 107.997C266.975 107.997 258.148 136.169 253.702 154.592C252.962 157.661 249.96 176.403 249.897 176.361" stroke="#222222" stroke-width="11" stroke-linecap="round"/>
<path d="M63.2905 198.296C63.2905 201.881 71.8649 202.323 74.1056 202.323C79.3708 202.323 83.127 197.977 86.1327 194.371C89.6031 190.208 93.1335 182.166 94.8035 177.249" stroke="#222222" stroke-width="11" stroke-linecap="round"/>
<path d="M32.5234 199.03C32.5234 215.766 63.8333 212.003 63.8333 187.818" stroke="#222222" stroke-width="11" stroke-linecap="round"/>
<path d="M6.41803 167.185C6.41803 177.326 3.27038 195.23 14.2496 201.217C20.8168 204.798 31.2364 207.797 38.597 188.87" stroke="#222222" stroke-width="11" stroke-linecap="round"/>
<path d="M6.04492 167.184C6.04492 155.548 12.3712 144.141 19.9885 135.338C24.9428 129.612 30.6252 125.336 37.0813 121.357C39.596 119.807 48.9242 117.783 50.0511 115.571" stroke="#222222" stroke-width="11" stroke-linecap="round"/>
<path d="M96.6572 175.753C107.681 185.492 127.757 189.119 142.082 186.922C149.764 185.744 155.675 183.623 161.754 179.021C164.531 176.917 171.559 172.005 171.559 168.268" stroke="#222222" stroke-width="11" stroke-linecap="round"/>
<path d="M170.741 163.724C170.741 173.879 181.051 179.731 189.747 182.17C197.82 184.434 206.99 184.309 215.349 184.309C222.307 184.309 247.723 179.173 251.003 170.994" stroke="#222222" stroke-width="11" stroke-linecap="round"/>
<path d="M249.482 174.489C249.482 185.891 252.543 196.154 263.681 201.62C268.988 204.224 288.858 205.694 288.858 180.458" stroke="#222222" stroke-width="11" stroke-linecap="round"/>
<path d="M286.036 194.651C286.036 205.915 310.94 205.694 319.352 184.664" stroke="#222222" stroke-width="11" stroke-linecap="round"/>
<path d="M311.178 197.417C330.336 215.834 341.086 190.33 344.211 178.061" stroke="#222222" stroke-width="11" stroke-linecap="round"/>
<path d="M324.736 117.814C332.764 117.814 341.903 141.456 343.033 147.333C344.374 154.308 345.443 160.658 345.443 167.845C345.443 169.987 345.802 179.337 343.964 180.239" stroke="#222222" stroke-width="11" stroke-linecap="round"/>
<path d="M208.536 29.6557C213.946 24.7866 219.061 19.9389 225.106 15.9091C232.689 10.854 240.949 5.90613 249.952 5.90613C254.762 5.90613 259.412 7.52906 263.621 10.1122C268.767 13.2695 271.405 21.153 274.371 26.2376C280.31 36.4194 283.919 48.5874 282.099 60.4184" stroke="#222222" stroke-width="11" stroke-linecap="round"/>
<path d="M282.098 64.431C282.098 66.9201 282.272 69.1739 281.43 71.4901C280.561 73.8801 279.067 75.1746 278.086 77.1374" stroke="#222222" stroke-width="11" stroke-linecap="round"/>
<path d="M204.523 32.3307C193.585 27.0176 180.984 26.9807 169.079 26.9807C163.205 26.9807 157.46 27.0243 151.692 28.3554C147.589 29.3021 143.095 29.8734 139.654 32.3307" stroke="#222222" stroke-width="11" stroke-linecap="round"/>
<path d="M69.4349 94.5249C69.4349 100.042 63.1548 110.314 63.1548 116.038" stroke="#222222" stroke-width="11" stroke-linecap="round"/>
<path d="M278.086 80.481C281.664 84.9532 282.728 92.112 283.585 97.5713C284.067 100.649 284.927 106.888 287.448 108.569" stroke="#222222" stroke-width="11" stroke-linecap="round"/>
<path d="M294.136 109.906C297.356 109.906 300.339 110.393 303.499 110.575C306.885 110.77 313.221 113.068 315.908 115.108C319.155 117.573 323.042 118.749 326.385 120.978C327.865 121.964 329.368 123.175 330.918 123.95" stroke="#222222" stroke-width="11" stroke-linecap="round"/>
<path d="M67.4319 91.3727C66.0726 91.3727 64.6159 90.4704 63.8068 89.4102C63.0785 88.4559 62.6413 87.3012 61.8988 86.3302C60.8991 85.0229 60.1591 84.0618 59.7183 82.4189C58.82 79.0708 57.3381 76.0344 56.6928 72.5928C56.3593 70.8141 56.393 69.0225 56.393 67.2233C56.393 64.4728 56.2609 61.8769 57.3197 59.278C59.5167 53.8852 61.662 48.438 64.2292 43.1966C66.4679 38.6259 68.9271 33.4023 72.2836 29.5546C74.0326 27.5497 75.9015 25.6333 77.9802 23.967C80.9973 21.5485 83.596 18.3999 86.9613 16.4714" stroke="#222222" stroke-width="11" stroke-linecap="round"/>
<path d="M83.8682 19.0063C83.943 18.4079 85.5142 17.6462 85.9397 17.3709C87.7188 16.2198 89.5974 14.2695 91.7181 13.9093C95.5618 13.2566 99.7213 11.1598 103.547 13.2279C106.653 14.9066 110.241 15.8935 113.115 17.9706C116.227 20.2208 119.892 21.9247 123.281 23.7217C127.178 25.7877 131.088 27.6891 135.138 29.4184" stroke="#222222" stroke-width="11" stroke-linecap="round"/>
</svg>
