<svg width="63" height="13" viewBox="0 0 63 13" fill="none" xmlns="http://www.w3.org/2000/svg">
<path d="M50 6.25C50 4.5924 50.6585 3.00269 51.8306 1.83058C53.0027 0.65848 54.5924 0 56.25 0C57.9076 0 59.4973 0.65848 60.6694 1.83058C61.8415 3.00269 62.5 4.5924 62.5 6.25C62.5 7.9076 61.8415 9.49731 60.6694 10.6694C59.4973 11.8415 57.9076 12.5 56.25 12.5C54.5924 12.5 53.0027 11.8415 51.8306 10.6694C50.6585 9.49731 50 7.9076 50 6.25ZM25 6.25C25 4.5924 25.6585 3.00269 26.8306 1.83058C28.0027 0.65848 29.5924 0 31.25 0C32.9076 0 34.4973 0.65848 35.6694 1.83058C36.8415 3.00269 37.5 4.5924 37.5 6.25C37.5 7.9076 36.8415 9.49731 35.6694 10.6694C34.4973 11.8415 32.9076 12.5 31.25 12.5C29.5924 12.5 28.0027 11.8415 26.8306 10.6694C25.6585 9.49731 25 7.9076 25 6.25ZM0 6.25C0 4.5924 0.65848 3.00269 1.83058 1.83058C3.00269 0.65848 4.5924 0 6.25 0C7.9076 0 9.49731 0.65848 10.6694 1.83058C11.8415 3.00269 12.5 4.5924 12.5 6.25C12.5 7.9076 11.8415 9.49731 10.6694 10.6694C9.49731 11.8415 7.9076 12.5 6.25 12.5C4.5924 12.5 3.00269 11.8415 1.83058 10.6694C0.65848 9.49731 0 7.9076 0 6.25Z" fill="black"/>
</svg>
