<svg width="36" height="36" viewBox="0 0 36 36" fill="none" xmlns="http://www.w3.org/2000/svg">
<g clip-path="url(#clip0_252_569)">
<path d="M4.5 13.5H10.5V7.5H4.5V13.5ZM4.5 21H10.5V15H4.5V21ZM12 21H18V15H12V21ZM19.5 21H25.5V15H19.5V21ZM12 13.5H18V7.5H12V13.5ZM19.5 7.5V13.5H25.5V7.5H19.5ZM27 21H33V15H27V21ZM4.5 28.5H10.5V22.5H4.5V28.5ZM12 28.5H18V22.5H12V28.5ZM19.5 28.5H25.5V22.5H19.5V28.5ZM27 28.5H33V22.5H27V28.5ZM27 7.5V13.5H33V7.5H27Z" fill="#222222"/>
</g>
<defs>
<clipPath id="clip0_252_569">
<rect width="36" height="36" fill="white"/>
</clipPath>
</defs>
</svg>
