<svg width="130" height="130" viewBox="0 0 130 130" fill="none" xmlns="http://www.w3.org/2000/svg">
<circle cx="65" cy="65" r="65" fill="#494949"/>
<path d="M45.9637 84.8306C40.4482 80.941 36.3143 75.3964 34.1609 69.0001C32.0075 62.6038 31.9465 55.688 33.9868 49.2547C36.027 42.8214 40.0625 37.2047 45.5086 33.2185C50.9547 29.2323 57.5285 27.0835 64.2775 27.0835C71.0266 27.0835 77.6004 29.2323 83.0465 33.2185C88.4925 37.2047 92.528 42.8214 94.5683 49.2547C96.6085 55.688 96.5475 62.6038 94.3942 69.0001C92.2408 75.3964 88.1069 80.941 82.5913 84.8306L90.8654 103.738C90.9983 104.041 91.0535 104.372 91.0261 104.701C90.9987 105.031 90.8895 105.348 90.7084 105.625C90.5274 105.901 90.2801 106.128 89.9892 106.285C89.6982 106.442 89.3727 106.523 89.0422 106.523H39.5089C39.1789 106.523 38.854 106.441 38.5635 106.285C38.273 106.128 38.0261 105.902 37.8451 105.626C37.6641 105.35 37.5548 105.033 37.527 104.704C37.4991 104.375 37.5537 104.045 37.6857 103.742L45.9637 84.8306ZM48.8595 62.7094C49.7222 66.1451 51.7078 69.1943 54.501 71.3728C57.2943 73.5514 60.7352 74.7346 64.2775 74.7346C67.8199 74.7346 71.2608 73.5514 74.0541 71.3728C76.8473 69.1943 78.8329 66.1451 79.6956 62.7094L71.9856 60.7829C71.5579 62.5043 70.5665 64.0331 69.1692 65.1257C67.772 66.2183 66.0493 66.8119 64.2755 66.8119C62.5018 66.8119 60.7791 66.2183 59.3818 65.1257C57.9846 64.0331 56.9932 62.5043 56.5655 60.7829L48.8595 62.7094Z" fill="#F8D259"/>
<circle cx="57.1462" cy="50.2119" r="4.0625" fill="#494949"/>
<circle cx="70.146" cy="50.2119" r="4.0625" fill="#494949"/>
</svg>
