<svg width="30" height="27" viewBox="0 0 30 27" fill="none" xmlns="http://www.w3.org/2000/svg">
<path d="M26.49 1.985C22.53 -0.714995 17.64 0.545005 15 3.635C12.36 0.545005 7.47002 -0.729995 3.51001 1.985C1.41001 3.425 0.0900147 5.855 1.46595e-05 8.42C-0.209985 14.24 4.95002 18.905 12.825 26.06L12.975 26.195C14.115 27.23 15.87 27.23 17.01 26.18L17.175 26.03C25.05 18.89 30.195 14.225 30 8.40501C29.91 5.85501 28.59 3.425 26.49 1.985ZM15.15 23.825L15 23.975L14.85 23.825C7.71001 17.36 3.00001 13.085 3.00001 8.75C3.00001 5.75 5.25001 3.5 8.25001 3.5C10.56 3.5 12.81 4.985 13.605 7.04H16.41C17.19 4.985 19.44 3.5 21.75 3.5C24.75 3.5 27 5.75 27 8.75C27 13.085 22.29 17.36 15.15 23.825Z" fill="#D7D7D7"/>
</svg>
