<svg width="164" height="161" viewBox="0 0 164 161" fill="none" xmlns="http://www.w3.org/2000/svg">
<path d="M34.4 12.4V16.36C34.4 16.8 34.32 17.6 34.24 18.72C34.16 19.36 33.76 19.72 33.12 19.72C31.68 19.76 30.48 19.76 29.44 19.68C28.84 19.68 28.32 19.44 27.92 19.04C27.52 18.64 27.28 18.16 27.28 17.6C27.24 15.64 27.24 13.16 27.28 10.16C27.28 9.72 27.32 8.68 27.36 7.08C27.4 5.48 27.44 4.36 27.48 3.76C27.48 2.96 27.76 2.44 28.32 2.12C28.44 2.04 28.68 1.92 29.04 1.72C29.4 1.56 29.68 1.4 29.88 1.32C30.04 1.24 30.28 1.16 30.6 1.04C30.92 0.92 31.2 0.839998 31.48 0.799999C31.76 0.759999 32.04 0.759999 32.36 0.759999C32.84 0.799999 33.2 0.839998 33.44 0.92C34 1.16 34.28 1.56 34.28 2.16C34.28 3.28 34.36 4.72 34.56 6.4C34.6 6.72 34.84 6.92 35.32 6.96C37.24 7.12 38.32 7.2 38.56 7.24C39.12 7.4 39.48 7.84 39.56 8.64C39.68 9.84 39.48 10.92 38.92 11.84C38.76 12.12 38.28 12.32 37.56 12.4H34.4ZM8.12 11.76C5.4 11.28 3.92 11 3.64 10.92C2.8 10.76 2.4 10.32 2.44 9.56V6.88C3.68 6.4 5.04 6.12 6.56 5.96C8.08 5.84 9.36 5.8 10.44 5.84C11.48 5.92 12.92 6.04 14.68 6.24C15.16 6.32 15.68 6.32 16.24 6.32C16.8 6.32 17.44 6.32 18.2 6.32C18.96 6.32 19.56 6.28 19.96 6.28V8.68C19.96 9.08 19.84 9.36 19.6 9.52C19.32 9.68 19 9.8 18.6 9.88C18.2 9.96 17.96 10.12 17.84 10.28L18.36 10.84C20.6 12.36 21.24 14.44 20.32 17.08C19.92 18.2 19 19.6 17.56 21.24C17.32 21.48 17 21.72 16.52 21.88C16.04 22.04 15.6 22.16 15.16 22.16C12.96 22.24 11.04 22.2 9.44 21.96C7.12 21.64 5.56 20.76 4.8 19.28C4 17.8 4.28 16.2 5.56 14.48C5.76 14.2 6 13.92 6.28 13.6C6.56 13.28 6.88 12.96 7.28 12.56C7.64 12.2 7.92 11.92 8.12 11.76ZM15.64 16.68C15.6 16.04 15.4 15.6 15.04 15.32C14.64 15.08 14 14.92 13.08 14.88C12.44 14.88 11.92 15.16 11.56 15.72C11.16 16.28 10.92 17 10.8 17.8C10.72 18.28 10.88 18.6 11.2 18.8C11.52 19 12.08 19.12 12.84 19.12C13.64 19.12 14.28 18.92 14.84 18.44C15.36 17.96 15.64 17.4 15.64 16.68ZM8 5.36C8.16 3.92 8.28 3 8.36 2.6C8.36 2.56 8.4 2.48 8.48 2.36C8.88 1.96 9.76 1.6 11.12 1.32C12.44 1.04 13.44 0.999999 14.08 1.24C14.96 1.56 15.48 2.16 15.64 2.96C15.8 3.8 15.56 4.48 14.84 5C14.36 5.32 13.76 5.48 13.04 5.48C12.76 5.52 11.48 5.48 9.2 5.4C9.04 5.4 8.64 5.4 8 5.36ZM18.96 33.44C21 33.44 22.2 33.4 22.6 33.28C22.92 33.2 23.16 33.12 23.32 32.96C23.48 32.8 23.6 32.6 23.68 32.36C23.72 32.12 23.76 31.92 23.76 31.68C23.76 31.48 23.76 31.16 23.76 30.72C23.72 30.32 23.72 29.96 23.76 29.64V29.44C23.76 29.12 23.68 28.84 23.6 28.68C23.48 28.52 23.28 28.44 22.96 28.44H16.28V32.76C17.24 33.24 18.12 33.44 18.96 33.44ZM14.6 22.8C14.72 22.8 14.92 22.84 15.16 22.84C15.4 22.84 15.6 22.84 15.76 22.84C19.32 22.84 22 22.72 23.76 22.48C24.24 22.44 24.72 22.4 25.2 22.4C27.36 22.4 29.24 23.08 30.84 24.44C31.24 24.76 31.56 25.28 31.8 26C32.04 26.72 32.2 27.48 32.2 28.2C32.2 28.52 32.16 28.8 32.12 29.04C32.04 29.52 31.88 30.24 31.72 31.24C31.52 32.24 31.36 33 31.28 33.56C31.04 34.68 30.84 35.52 30.6 36.16C30.44 36.48 30.16 36.76 29.72 36.92C27.32 37.8 24.8 38.24 22.08 38.24C19.36 38.24 17.6 38.16 16.88 38C13.16 37.2 11 36.68 10.4 36.48C10.16 36.4 9.92 36.24 9.68 35.92C9.44 35.6 9.32 35.28 9.24 34.96C9.16 34.72 9.12 34.44 9.12 34.04C9.12 33.88 9.12 33.68 9.12 33.36C9.12 33.04 9.16 32.88 9.16 32.8C9.24 30.36 9.36 28.72 9.44 27.92C9.6 25.92 10.08 24.56 10.84 23.84C11.6 23.16 12.84 22.8 14.6 22.8ZM87.36 16.28V8.6C87.36 8.04 87.32 7.28 87.28 6.24C87.24 5.2 87.2 4.44 87.2 3.92C87.2 3.08 87.32 2.48 87.56 2.08C87.8 1.72 88.28 1.52 88.92 1.48C90.72 1.4 92.24 1.8 93.52 2.6C94.28 3.12 94.64 3.92 94.56 4.96C94.4 6.4 94.28 8.92 94.2 12.52C94.16 13.32 94.08 15.76 93.96 19.84C93.8 23.92 93.68 27.04 93.6 29.2C93.6 29.72 93.36 31.64 92.96 34.96C92.88 35.44 92.76 35.84 92.56 36.08C92.32 36.32 92.04 36.44 91.64 36.36C91.44 36.36 91.16 36.4 90.84 36.48C90.48 36.56 90.24 36.56 90.12 36.56C88.76 36.64 87.76 36.36 87.2 35.64C86.64 34.92 86.32 33.68 86.32 31.88C86.32 30.76 86.36 28.48 86.52 25C86.52 24.6 86.44 24.28 86.32 24.12C86.2 23.96 86 23.92 85.68 23.96H85.6H85.52C84.52 23.96 83.8 23.6 83.4 22.96C83 22.32 82.88 21.36 83.04 20C83.12 19.04 83.28 18.28 83.52 17.76C83.76 17.24 84.12 16.88 84.6 16.72C84.76 16.68 85.68 16.52 87.36 16.28ZM101.48 8.92C101 16.16 100.72 20.08 100.68 20.72C100.56 22.12 100.4 24.28 100.16 27.2C99.92 30.16 99.72 32.4 99.6 33.92C99.52 35.16 99.04 36.16 98.16 36.92C97.28 37.72 96.44 37.88 95.56 37.44C95.24 37.32 95.04 36.92 94.92 36.24C94.68 34.88 94.56 33.44 94.56 32C94.56 31.24 94.6 30.44 94.68 29.64C94.76 29.16 94.76 28.24 94.76 26.88C94.72 25.52 94.72 24.6 94.76 24.12C94.76 23.08 94.88 21.28 95.04 18.68C95.2 16.08 95.28 14.08 95.36 12.64C95.36 12 95.36 10.96 95.28 9.56C95.2 8.16 95.16 7.12 95.2 6.4C95.2 5.76 95.48 4.48 96.04 2.48C96.08 2.32 96.32 2.2 96.8 2.12C98.24 1.96 99.16 1.92 99.64 1.96C99.8 2 100 2.12 100.24 2.36C100.44 2.6 100.56 2.84 100.64 3.08C100.72 3.68 101 5.64 101.48 8.92ZM64.08 6.6C64.44 6.52 64.84 6.44 65.24 6.44C65.64 6.44 66 6.44 66.28 6.44C66.52 6.48 66.92 6.52 67.4 6.6C67.88 6.68 68.28 6.76 68.56 6.76C69.2 6.84 70.08 6.88 71.24 6.8C71.96 6.8 72.44 6.92 72.72 7.2C72.96 7.44 73.08 7.84 73.16 8.48C73.32 10 73.32 12.24 73.16 15.24C72.88 19.64 72.56 22.88 72.24 25.04C72 26.64 71.84 27.72 71.84 28.2C71.84 28.52 71.72 29.16 71.52 30.12C71.32 31.12 71.24 31.68 71.24 31.8C71.12 32.64 70.84 33.24 70.44 33.6C70 34 69.48 34.2 68.88 34.2C68.24 34.2 67.56 34.16 66.76 34.08C66.68 34.08 66.64 34.08 66.6 34.04C66.4 33.96 66.36 33.72 66.48 33.32C66.8 32.04 67.32 28.72 68.08 23.36C68.8 18 69.16 14.28 69.08 12.2C69.08 11.96 69.04 11.76 69 11.64C68.88 11.44 68.6 11.24 68.2 11.08C67.96 11 67.28 10.96 66.24 11C65.16 11.08 64.52 11.04 64.28 10.96C64.04 10.88 63.92 10.8 63.84 10.72C63.64 10.56 63.56 10.2 63.56 9.64V7.52C63.56 7.4 63.6 7.24 63.68 7.08C63.76 6.92 63.84 6.8 63.92 6.72L64.08 6.6ZM74.08 7.04C75.28 6.84 76.48 6.72 77.76 6.72C78.44 6.72 79.16 6.76 79.92 6.84C80.76 6.92 81.36 7.16 81.68 7.56C81.84 7.8 82 8.16 82.16 8.72C82.32 9.4 82.4 10.08 82.44 10.72C82.48 11.36 82.48 12.24 82.4 13.36C82.32 14.48 82.28 15.12 82.28 15.36C82.2 16.48 82.16 18.4 82.16 21.04C82.12 23.68 82.08 26 82 27.96C81.92 29.92 81.76 31.68 81.56 33.24C81.52 33.48 81.24 33.6 80.76 33.64C80.28 33.68 79.96 33.76 79.88 33.88C79.64 34.16 79.32 34.32 79 34.32C78.64 34.32 78.2 34.28 77.72 34.2C77.24 34.12 76.88 34.04 76.64 34.04C76.56 33.72 76.64 33.04 76.8 32.08C77 30.8 77.12 29.28 77.12 27.56L77.08 21.76C77.04 20.16 77 18.92 77 18.08C76.96 17.76 77 17.2 77.12 16.4C77.2 15.6 77.28 14.96 77.32 14.48C77.32 14 77.24 13.52 77.08 12.96C76.92 12.72 76.84 12.6 76.76 12.52C76.68 12.44 76.56 12.4 76.36 12.36C76.12 12.32 75.96 12.28 75.88 12.2C75.08 11.96 74.48 11.8 74.08 11.8C73.96 11.8 73.84 11.72 73.76 11.48C73.68 11.28 73.64 11.12 73.64 10.96C73.68 10.52 73.68 9.88 73.6 9C73.52 8.16 73.48 7.52 73.52 7.12L74.08 7.04ZM132.12 12.96C129.4 12.48 127.92 12.2 127.64 12.12C126.8 11.96 126.4 11.52 126.44 10.76V8.08C127.68 7.6 129.04 7.32 130.56 7.16C132.08 7.04 133.36 7 134.44 7.04C135.48 7.12 136.92 7.24 138.68 7.44C139.16 7.52 139.68 7.52 140.24 7.52C140.8 7.52 141.44 7.52 142.2 7.52C142.96 7.52 143.56 7.48 143.96 7.48V9.88C143.96 10.28 143.84 10.56 143.6 10.72C143.32 10.88 143 11 142.6 11.08C142.2 11.16 141.96 11.32 141.84 11.48L142.36 12.04C144.6 13.56 145.24 15.64 144.32 18.28C143.92 19.4 143 20.8 141.56 22.44C141.32 22.68 141 22.92 140.52 23.08C140.04 23.24 139.6 23.36 139.16 23.36C136.96 23.44 135.04 23.4 133.44 23.16C131.12 22.84 129.56 21.96 128.8 20.48C128 19 128.28 17.4 129.56 15.68C129.76 15.4 130 15.12 130.28 14.8C130.56 14.48 130.88 14.16 131.28 13.76C131.64 13.4 131.92 13.12 132.12 12.96ZM139.64 17.88C139.6 17.24 139.4 16.8 139.04 16.52C138.64 16.28 138 16.12 137.08 16.08C136.44 16.08 135.92 16.36 135.56 16.92C135.16 17.48 134.92 18.2 134.8 19C134.72 19.48 134.88 19.8 135.2 20C135.52 20.2 136.08 20.32 136.84 20.32C137.64 20.32 138.28 20.12 138.84 19.64C139.36 19.16 139.64 18.6 139.64 17.88ZM132 6.56C132.16 5.12 132.28 4.2 132.36 3.8C132.36 3.76 132.4 3.68 132.48 3.56C132.88 3.16 133.76 2.8 135.12 2.52C136.44 2.24 137.44 2.2 138.08 2.44C138.96 2.76 139.48 3.36 139.64 4.16C139.8 5 139.56 5.68 138.84 6.2C138.36 6.52 137.76 6.68 137.04 6.68C136.76 6.72 135.48 6.68 133.2 6.6C133.04 6.6 132.64 6.6 132 6.56ZM158.4 16V21.16C158.4 21.6 158.32 22.4 158.24 23.52C158.16 24.16 157.76 24.52 157.12 24.52C155.68 24.56 154.48 24.56 153.44 24.48C152.84 24.48 152.32 24.24 151.92 23.84C151.52 23.44 151.28 22.96 151.28 22.4C151.24 20.08 151.24 17.2 151.28 13.76C151.28 13.56 151.28 12 151.36 9.08C151.4 6.2 151.44 4.4 151.48 3.76C151.48 2.96 151.76 2.44 152.32 2.12C152.44 2.04 152.68 1.92 153.04 1.72C153.4 1.56 153.68 1.4 153.88 1.32C154.04 1.24 154.28 1.16 154.6 1.04C154.92 0.92 155.2 0.839998 155.48 0.799999C155.76 0.759999 156.04 0.759999 156.36 0.759999C156.84 0.799999 157.2 0.839998 157.44 0.92C158 1.16 158.28 1.56 158.28 2.16C158.28 2.68 158.28 4 158.36 6.16C158.44 8.32 158.48 9.6 158.56 10C158.6 10.32 158.84 10.52 159.32 10.56C161.24 10.72 162.32 10.8 162.56 10.84C163.12 11 163.48 11.44 163.56 12.24C163.68 13.44 163.48 14.52 162.92 15.44C162.76 15.72 162.28 15.92 161.56 16H158.4ZM141.96 30.72C147.4 30.4 150.48 30.24 151.16 30.16C151.84 30.12 152.64 30.04 153.6 29.96C154.56 29.88 155.36 29.8 156 29.72C156.64 29.64 157.2 29.6 157.6 29.6C158.12 29.6 158.52 30.28 158.76 31.56C158.8 31.84 158.84 32.4 158.84 33.2C158.84 34.12 158.6 35.04 158.12 36C157.96 36.28 157.6 36.48 157.04 36.56C156.48 36.64 154.6 36.76 151.4 36.92C148.2 37.08 146.32 37.2 145.72 37.28C145.56 37.32 145.44 37.32 145.28 37.32C144.6 37.32 143.16 37.36 140.96 37.4C138.76 37.44 137.16 37.48 136.16 37.52C135.92 37.52 135.48 37.56 134.92 37.6C134.36 37.64 133.92 37.64 133.64 37.64C132.72 37.64 131.96 37.48 131.4 37.12C131.2 37.04 131.04 36.84 130.88 36.6C130.72 36.36 130.68 36.16 130.68 35.92C130.56 34.76 130.48 33.12 130.4 30.96C130.32 28.8 130.24 27.32 130.2 26.48L130.16 25.92C130.16 25.52 130.16 25.16 130.16 24.76L130.12 24.2C130.2 24.2 130.4 24.16 130.76 24.08C131.12 24 131.36 23.92 131.48 23.88C131.76 23.84 132.4 23.8 133.4 23.8C134.56 23.8 135.28 23.88 135.6 23.96C135.92 24.08 136.08 24.28 136.08 24.56C136.08 24.68 136.12 24.96 136.2 25.36C136.28 25.76 136.36 26.04 136.36 26.16C136.36 26.6 136.44 27.4 136.68 28.6C136.68 28.76 136.72 29.12 136.8 29.64C136.84 30.16 136.92 30.6 137.04 31L141.96 30.72ZM24.08 92.72C24 93.16 23.88 93.84 23.72 94.72C23.56 95.6 23.48 96.16 23.44 96.36C23.32 96.96 22.96 97.32 22.4 97.4C21.8 97.52 20.44 97.6 18.28 97.64C17.72 97.68 17.4 97.36 17.32 96.68V95.76V95C17.32 94.84 17.32 94.64 17.32 94.44C17.32 94.24 17.32 94.08 17.32 93.96C17.28 93.88 17.28 93.76 17.28 93.68C17.28 93.6 17.24 93.52 17.16 93.44C17.08 93.4 17.04 93.36 17 93.32C16.96 93.28 16.88 93.24 16.72 93.2C16.56 93.16 16.44 93.12 16.36 93.12C16.28 93.12 16.12 93.08 15.88 93C15.4 92.92 13.44 92.84 10 92.72C6.56 92.64 4.48 92.56 3.76 92.56C3.28 92.56 2.92 92.28 2.68 91.72C2.16 90.6 2.12 89.2 2.56 87.56C2.6 87.28 2.96 87.08 3.64 86.92C3.72 86.88 4.52 86.88 6.04 86.88C7.56 86.88 8.36 86.88 8.44 86.88C9.28 86.88 11.76 86.8 15.84 86.72C19.92 86.64 22.28 86.56 23 86.52C23.8 86.48 26.04 86.44 29.68 86.4C33.32 86.4 35.36 86.36 35.8 86.36C36.36 86.36 36.84 86.72 37.2 87.52C37.76 88.72 37.88 89.88 37.56 91.04C37.44 91.44 37.12 91.76 36.6 91.92C36 92.16 33.92 92.36 30.36 92.44C26.76 92.56 24.92 92.6 24.76 92.6L24.08 92.72ZM19.48 63.52C22.52 63.68 24.16 63.8 24.36 63.8C28.92 64.24 32.48 66.04 35 69.24C35.32 69.72 35.56 70.36 35.68 71.24C35.88 72.84 35.6 74.68 34.8 76.8C33.92 79.12 32.16 80.52 29.6 81.04C27.72 81.44 25.72 81.64 23.56 81.64C22.96 81.64 21.84 81.68 20.2 81.76C18.56 81.84 17.32 81.84 16.44 81.8C13.12 81.64 10.28 81.04 7.96 80C6.6 79.44 5.6 78.64 5 77.6C4.36 76.56 4.12 75.4 4.28 74.04C4.52 71.76 5.68 69.56 7.8 67.4C8.76 66.44 9.92 65.68 11.2 65.12C12.48 64.6 14 64.16 15.76 63.84C16.12 63.76 16.52 63.72 16.96 63.68C17.36 63.64 17.84 63.6 18.36 63.6C18.88 63.6 19.24 63.56 19.48 63.52ZM19.68 76.96C21.88 76.8 23.08 76.68 23.24 76.68C23.92 76.6 24.6 76.32 25.32 75.8C26 75.28 26.36 74.76 26.44 74.28C26.6 73.12 26.44 72.16 26 71.4C25.56 70.64 24.72 70.08 23.44 69.76C20.72 69.12 18.28 69.08 16.12 69.64C15.04 69.96 14.4 70.2 14.24 70.44C13.64 71.16 13 72.24 12.32 73.64C11.8 74.72 12.16 75.44 13.44 75.84C14.36 76.16 15.04 76.4 15.52 76.52C15.96 76.68 16.6 76.8 17.4 76.88C18.2 77 18.96 77.04 19.68 76.96ZM89.76 63.08C91.28 63 92.12 62.96 92.2 62.96C93.08 63 93.92 63.08 94.8 63.2C95.68 63.32 96.44 63.4 97.12 63.44C97.88 63.52 98.28 63.96 98.32 64.72C98.32 65.68 98.4 67.16 98.52 69.12C98.64 71.12 98.72 72.6 98.76 73.6C98.8 74.36 98.8 75.72 98.8 77.64C98.8 79.6 98.8 80.96 98.8 81.68C98.8 82.76 98.8 84.96 98.8 88.32C98.8 91.68 98.8 93.92 98.8 95V95.08C98.8 95.64 98.72 96.2 98.56 96.68C98.2 97.68 97.56 98.16 96.64 98.12C96.2 98.12 95.68 98.16 95.12 98.16C94.56 98.16 94.08 98.16 93.68 98.08C93.36 98.08 93 97.96 92.68 97.76C92.32 97.6 92.08 97.36 92 97.12C91.2 95.2 90.8 93.72 90.76 92.68C90.64 90.36 90.56 86.4 90.52 80.88C90.48 75.36 90.44 71.6 90.36 69.56C90.36 68.92 90.32 68.28 90.24 67.56C90.16 66.84 90.08 66.04 90 65.12L89.76 63.08ZM73.56 84.32C73.56 84.4 73.52 84.72 73.52 85.28C73.52 85.84 73.48 86.24 73.48 86.44C76.04 86.16 78.96 86.24 82.2 86.72C82.6 86.8 82.92 87 83.12 87.28C83.28 87.6 83.36 87.96 83.32 88.44C83.28 88.92 83.2 89.36 83.12 89.72C83.04 90.12 82.88 90.6 82.72 91.16C82.52 91.72 82.4 92.12 82.4 92.28C82.16 93.04 81.56 93.52 80.68 93.76C80.44 93.84 79.84 94 78.84 94.28C77.84 94.56 77.16 94.72 76.84 94.8C76.52 94.88 75.92 94.96 75.08 95.12C74.2 95.28 73.52 95.4 73.04 95.4C72.56 95.4 71.96 95.4 71.28 95.32C70.56 95.24 69.92 95.12 69.32 94.92C69 94.84 68.44 94.6 67.56 94.28C66.68 93.96 66.04 93.72 65.56 93.48C64.76 93.16 64.36 92.4 64.44 91.24C64.44 90.12 64.6 88.64 64.88 86.8C65.12 84.96 65.28 83.48 65.32 82.32C65.24 79.76 65.96 78.44 67.52 78.44C68.2 78.44 69.16 78.48 70.36 78.6C71.56 78.72 72.64 78.76 73.64 78.72C74.6 78.68 75.52 78.48 76.4 78.12C76.4 78.12 76.4 77.8 76.32 77.2C76.24 76.64 76.16 76.04 76.08 75.4C76 74.76 75.96 74.44 75.96 74.4C75.96 74.36 75.92 74.28 75.84 74.2C75.76 74.12 75.68 74.04 75.64 74.04C73.64 73.64 72.36 73.44 71.88 73.4C71.56 73.4 71.08 73.4 70.52 73.48C69.96 73.56 69.56 73.6 69.32 73.6C68.16 73.6 66.68 73.56 64.88 73.48C64.72 73.48 64.56 73.44 64.48 73.36C64.36 73.28 64.28 73.2 64.2 73.04C64.12 72.88 64.08 72.76 64.08 72.64C64.08 72.56 64.04 72.4 64.04 72.2C64 72 64 71.84 64 71.76C63.92 71.48 63.88 71.2 63.88 70.96C63.88 70.72 63.88 70.44 63.96 70.2C64 69.96 64.04 69.8 64.08 69.64C64.08 69.48 64.16 69.28 64.28 69C64.36 68.76 64.44 68.56 64.52 68.44C64.56 68.36 64.68 68.12 64.88 67.8C65.04 67.48 65.16 67.28 65.24 67.12C65.32 67 65.68 66.88 66.36 66.76C69.24 66.28 71 66.04 71.64 65.96C72.08 65.96 72.72 66 73.56 66.12C74.36 66.24 74.92 66.28 75.24 66.28C75.64 66.32 76.2 66.32 77 66.28C77.8 66.24 78.4 66.24 78.8 66.24C79.64 66.28 80.48 66.48 81.36 66.8C82.2 67.12 82.96 67.64 83.6 68.36C84.24 69.08 84.52 69.88 84.52 70.8C84.48 71.6 84.52 73.08 84.64 75.16C84.72 77.24 84.76 78.72 84.76 79.52C84.76 79.88 84.72 80.2 84.64 80.44C84.56 80.72 84.52 80.92 84.48 81.04C84.4 81.16 84.32 81.36 84.16 81.64C84 81.96 83.84 82.2 83.76 82.36C83.6 82.68 83.28 82.96 82.84 83.12C80.44 84.08 78.48 84.4 76.96 84.08C76.44 84.04 76.08 84.04 75.84 84.04C75.6 84.04 75.24 84.12 74.72 84.2C74.16 84.28 73.8 84.32 73.56 84.32ZM152.52 92.72C148.44 93.28 146.24 93.56 145.96 93.6C144.36 93.84 141.36 94.04 136.96 94.16C132.56 94.32 129.56 94.24 127.92 94C127.76 94 127.56 93.88 127.4 93.72C127.24 93.56 127.16 93.44 127.16 93.28C127.04 91.76 127.04 90.48 127.16 89.52C127.2 88.88 127.48 88.08 128 87.16C129.72 86.68 130.92 86.44 131.6 86.36C132.08 86.28 134.36 86.32 138.44 86.48C142.52 86.64 144.8 86.68 145.2 86.68C145.68 86.68 146.44 86.64 147.48 86.64C148.48 86.64 149.24 86.6 149.76 86.56L152.64 86.28C152.8 81.76 152.92 79.24 152.96 78.76L153.6 63.84C153.68 63.76 153.8 63.64 154 63.48C154.16 63.36 154.6 63.16 155.24 62.92C155.88 62.68 156.52 62.56 157.24 62.48C157.56 62.48 158 62.48 158.56 62.56C159.08 62.64 159.52 62.72 159.92 62.8L160.48 62.92C160.56 63.04 160.72 63.16 160.88 63.32C161.04 63.48 161.24 63.76 161.48 64.2C161.72 64.64 161.76 65.04 161.68 65.4C161.28 66.52 161 70.28 160.84 76.64C160.64 83 160.52 86.36 160.48 86.76C160.44 87.08 160.44 87.72 160.44 88.68C160.44 89.64 160.4 90.24 160.32 90.52C160.24 90.84 160.2 91.8 160.24 93.32C160.28 94.88 160.24 95.8 160.16 96.04C159.92 96.8 159.56 97.32 159.16 97.56C158.72 97.84 158.08 97.96 157.28 97.96C155.92 97.96 154.88 97.88 154.24 97.76C153.28 97.6 152.88 97.04 153 96.16C153 95.96 152.92 95.44 152.76 94.56C152.6 93.68 152.52 93.08 152.52 92.72ZM135.04 64.24C135.28 64.28 135.64 64.32 136.16 64.4C136.64 64.48 137.12 64.56 137.52 64.64C137.92 64.72 138.28 64.8 138.64 64.88C138.72 64.96 139.12 65.08 139.8 65.28C140.48 65.52 140.96 65.64 141.2 65.72C141.44 65.8 141.8 65.96 142.32 66.12C142.84 66.32 143.28 66.52 143.68 66.68C144.04 66.84 144.4 67.04 144.8 67.2C146.16 68 147.08 69.04 147.48 70.32C147.88 71.64 147.84 73.04 147.36 74.48C146.68 76.68 145.88 78.72 144.96 80.56C144.72 81.04 144.36 81.44 143.92 81.84C143.48 82.24 143.04 82.52 142.6 82.68C139.36 83.8 136.92 84.44 135.28 84.56C132.72 84.8 130.64 84.16 129.08 82.68C128.12 81.8 127.48 80.4 127.12 78.44C126.2 73.64 127.36 69.56 130.6 66.2C131.8 64.96 133.28 64.32 135.04 64.24ZM140.28 74.48C140.28 73.32 140.04 72.48 139.6 71.96C139.12 71.48 138.4 71.2 137.4 71.2C136.2 71.2 135.16 71.68 134.28 72.6C133.36 73.52 132.88 74.56 132.88 75.76C132.88 76.44 133.28 77.16 134.12 77.88C134.92 78.6 135.72 78.92 136.48 78.84C137.44 78.76 138.32 78.28 139.12 77.48C139.88 76.68 140.28 75.68 140.28 74.48ZM27.76 124.08C29.28 124 30.12 123.96 30.2 123.96C31.08 124 31.92 124.08 32.8 124.2C33.68 124.32 34.44 124.4 35.12 124.44C35.88 124.52 36.28 124.96 36.32 125.72C36.32 126.68 36.4 128.16 36.52 130.12C36.64 132.12 36.72 133.6 36.76 134.6C36.8 135.36 36.8 136.72 36.8 138.64C36.8 140.6 36.8 141.96 36.8 142.68C36.8 143.76 36.8 145.96 36.8 149.32C36.8 152.68 36.8 154.92 36.8 156V156.08C36.8 156.64 36.72 157.2 36.56 157.68C36.2 158.68 35.56 159.16 34.64 159.12C34.2 159.12 33.68 159.16 33.12 159.16C32.56 159.16 32.08 159.16 31.68 159.08C31.36 159.08 31 158.96 30.68 158.76C30.32 158.6 30.08 158.36 30 158.12C29.2 156.2 28.8 154.72 28.76 153.68C28.64 151.36 28.56 147.4 28.52 141.88C28.48 136.36 28.44 132.6 28.36 130.56C28.36 129.92 28.32 129.28 28.24 128.56C28.16 127.84 28.08 127.04 28 126.12L27.76 124.08ZM7.72 130.44C9.52 129.96 11.48 129.88 13.64 130.24C14.04 130.32 14.4 130.72 14.72 131.4C15.04 132.08 15.16 132.72 15.08 133.28C15.04 133.52 14.92 135.12 14.76 138C14.76 138.24 14.8 138.4 14.92 138.48C15 138.56 15.2 138.6 15.44 138.6C18.32 139 20.56 139.6 22.16 140.4C22.76 140.72 23.12 140.96 23.2 141.12C23.28 141.28 23.28 141.72 23.16 142.36C23 142.92 22.92 143.72 22.88 144.68C22.8 145.68 22.68 146.52 22.52 147.16C22.36 147.68 22.16 148 21.96 148.12C21.76 148.28 21.56 148.32 21.36 148.24C21.16 148.16 20.84 148.08 20.4 147.92C19.96 147.8 19.52 147.72 19.12 147.72C19.04 147.72 18.92 147.72 18.84 147.64L18.68 147.52C16.28 146.56 14.72 145.64 14 144.8C13.88 144.68 13.76 144.56 13.6 144.44C13.44 144.32 13.24 144.16 13 144C12.76 143.84 12.6 143.72 12.48 143.64C11.36 145.4 10.8 146.32 10.72 146.44C9.36 148.4 8.4 149.76 7.8 150.52C7.68 150.64 7.52 150.8 7.36 151.04C7.2 151.28 7.04 151.52 6.88 151.72C6.72 151.92 6.56 152.16 6.36 152.44C6.12 152.72 5.92 152.92 5.76 153.08C5.6 153.24 5.4 153.4 5.2 153.56C4.96 153.72 4.8 153.8 4.64 153.8C4.48 153.8 4.28 153.76 4.12 153.68C2.36 152.56 1.28 150.72 0.88 148.16C0.8 147.76 0.96 147.28 1.36 146.72C2.2 145.52 3.6 143.64 5.52 141.04C5.84 140.6 6.2 140.2 6.6 139.8C7.16 139.24 7.48 138.44 7.56 137.36C7.6 136.92 7.68 136.16 7.8 135.04C7.88 133.92 7.96 133.08 8.04 132.44C8.04 132.28 8 132.12 8 131.96C7.96 131.8 7.92 131.64 7.84 131.44C7.76 131.24 7.72 131.08 7.72 130.96V130.44ZM65.64 125.36C67.24 125.36 69.68 125.32 73 125.28C76.32 125.24 78.84 125.2 80.56 125.16C81.6 125.16 82.4 125.32 82.96 125.72C83.48 126.12 83.92 126.84 84.24 127.88C84.88 130 85.2 131.44 85.28 132.2C85.28 132.96 85.28 133.48 85.28 133.8C85.28 134.12 85.24 134.68 85.16 135.4C85.08 136.16 85 136.68 85 137C84.8 139.6 84.68 141.08 84.68 141.44C84.64 142.4 84.28 143.2 83.64 143.8C83 144.44 82.2 144.76 81.24 144.8C79.48 144.88 78.16 144.56 77.32 143.76C76.76 143.28 76.48 142.8 76.48 142.4C76.4 141.6 76.32 139.4 76.2 135.72C76.2 135 76.08 134.56 75.88 134.36C75.64 134.2 75.2 134.08 74.52 134.08C74.12 134.08 73.56 134.12 72.8 134.12C72.04 134.12 71.36 134.12 70.8 134.12C70.24 134.12 69.68 134.08 69.16 134C67.6 133.84 66.2 133.48 65 132.84C64.84 132.76 64.76 132.6 64.68 132.36C64.6 132.12 64.56 131.8 64.52 131.36C64.44 130.92 64.4 130.64 64.4 130.52C64.32 130.28 64.12 129.04 63.8 126.84C63.76 126.84 63.72 126.8 63.72 126.68C63.72 126.6 63.72 126.48 63.76 126.32C63.8 126.2 63.88 126.08 64 125.92C64.08 125.76 64.28 125.64 64.56 125.52C64.84 125.44 65.2 125.36 65.64 125.36ZM96.4 138V143.16C96.4 143.6 96.32 144.4 96.24 145.52C96.16 146.16 95.76 146.52 95.12 146.52C93.68 146.56 92.48 146.56 91.44 146.48C90.84 146.48 90.32 146.24 89.92 145.84C89.52 145.44 89.28 144.96 89.28 144.4C89.24 142.08 89.24 139.2 89.28 135.76C89.28 135.56 89.28 134 89.36 131.08C89.4 128.2 89.44 126.4 89.48 125.76C89.48 124.96 89.76 124.44 90.32 124.12C90.44 124.04 90.68 123.92 91.04 123.72C91.4 123.56 91.68 123.4 91.88 123.32C92.04 123.24 92.28 123.16 92.6 123.04C92.92 122.92 93.2 122.84 93.48 122.8C93.76 122.76 94.04 122.76 94.36 122.76C94.84 122.8 95.2 122.84 95.44 122.92C96 123.16 96.28 123.56 96.28 124.16C96.28 124.68 96.28 126 96.36 128.16C96.44 130.32 96.48 131.6 96.56 132C96.6 132.32 96.84 132.52 97.32 132.56C99.24 132.72 100.32 132.8 100.56 132.84C101.12 133 101.48 133.44 101.56 134.24C101.68 135.44 101.48 136.52 100.92 137.44C100.76 137.72 100.28 137.92 99.56 138H96.4ZM79.96 152.72C85.4 152.4 88.48 152.24 89.16 152.16C89.84 152.12 90.64 152.04 91.6 151.96C92.56 151.88 93.36 151.8 94 151.72C94.64 151.64 95.2 151.6 95.6 151.6C96.12 151.6 96.52 152.28 96.76 153.56C96.8 153.84 96.84 154.4 96.84 155.2C96.84 156.12 96.6 157.04 96.12 158C95.96 158.28 95.6 158.48 95.04 158.56C94.48 158.64 92.6 158.76 89.4 158.92C86.2 159.08 84.32 159.2 83.72 159.28C83.56 159.32 83.44 159.32 83.28 159.32C82.6 159.32 81.16 159.36 78.96 159.4C76.76 159.44 75.16 159.48 74.16 159.52C73.92 159.52 73.48 159.56 72.92 159.6C72.36 159.64 71.92 159.64 71.64 159.64C70.72 159.64 69.96 159.48 69.4 159.12C69.2 159.04 69.04 158.84 68.88 158.6C68.72 158.36 68.68 158.16 68.68 157.92C68.56 156.76 68.48 155.12 68.4 152.96C68.32 150.8 68.24 149.32 68.2 148.48L68.16 147.92C68.16 147.52 68.16 147.16 68.16 146.76L68.12 146.2C68.2 146.2 68.4 146.16 68.76 146.08C69.12 146 69.36 145.92 69.48 145.88C69.76 145.84 70.4 145.8 71.4 145.8C72.56 145.8 73.28 145.88 73.6 145.96C73.92 146.08 74.08 146.28 74.08 146.56C74.08 146.68 74.12 146.96 74.2 147.36C74.28 147.76 74.36 148.04 74.36 148.16C74.36 148.6 74.44 149.4 74.68 150.6C74.68 150.76 74.72 151.12 74.8 151.64C74.84 152.16 74.92 152.6 75.04 153L79.96 152.72ZM145 143.92C141.72 144.08 139.96 144.12 139.64 144.12C133.16 144.12 129.52 144.04 128.64 143.8C127.84 143.6 127.4 143.2 127.28 142.64C127.16 142.08 127.24 141.24 127.56 140.12C127.68 139.96 127.76 139.76 127.8 139.48C127.84 139.2 127.96 138.96 128.16 138.8C128.24 138.72 128.44 138.64 128.72 138.64H135.44H142.16C142.36 138.64 142.88 138.68 143.76 138.76C144.64 138.84 145.12 138.92 145.24 138.92C145.48 138.92 147.68 138.96 151.76 139.04C155.84 139.12 158.2 139.16 158.84 139.24C158.96 139.24 159.12 139.36 159.28 139.52C159.44 139.68 159.56 139.84 159.6 139.96C159.76 141 159.76 141.8 159.6 142.36C159.36 143.24 158.6 143.72 157.32 143.8C156.92 143.84 154.84 143.88 151.12 143.88C147.36 143.92 145.32 143.96 145 143.96V143.92ZM137.08 131.6C141.56 131.36 143.96 131.2 144.28 131.16L148.6 130.88L153.36 130.68L156.12 131C156.16 131.04 156.24 131.08 156.32 131.08C156.4 131.12 156.52 131.2 156.72 131.28C156.92 131.4 157.08 131.52 157.24 131.64C157.36 131.76 157.48 131.92 157.56 132.12C157.64 132.32 157.68 132.52 157.64 132.72C157.56 133.12 157.44 133.56 157.28 133.96C157.12 134.36 156.96 134.84 156.76 135.36C156.52 135.92 156.4 136.28 156.32 136.48C149.64 136.64 146.08 136.68 145.6 136.64C145.36 136.64 141.64 136.52 134.36 136.28H133.4H132.44C131.48 136.28 130.88 136.16 130.64 135.92C130.36 135.68 130.24 135.2 130.32 134.52C130.32 134.12 130.4 133.48 130.6 132.68C130.76 131.88 130.88 131.44 130.88 131.32C130.92 131.04 131 130.6 131.08 130.04C131.16 129.48 131.2 129.04 131.28 128.76L131.92 125.28L136.16 123.48C139.76 123.64 142.52 123.52 144.36 123.08C144.6 123 144.84 122.96 145.12 122.92C145.4 122.92 145.72 122.92 146.08 122.92C146.4 122.92 146.68 122.96 146.92 122.96C147.12 122.96 147.44 123 147.88 123.04C148.32 123.08 148.6 123.12 148.76 123.12C149.64 123.2 150.88 123.36 152.56 123.52C154.2 123.72 155.4 123.84 156.12 123.88C156.68 123.96 157.08 124.08 157.32 124.24C157.56 124.4 157.64 124.68 157.56 125.08L157.12 127.56C156.24 128.44 155.4 128.84 154.6 128.84C153.8 128.88 152.64 128.88 151.12 128.88C149.6 128.88 148.52 128.84 147.88 128.84C145.64 128.84 143.64 128.88 141.92 128.96C141.56 129 141 129.08 140.28 129.16C139.52 129.24 138.96 129.28 138.56 129.28C138.08 129.32 137.76 129.4 137.56 129.52C137.32 129.64 137.24 129.84 137.24 130.12C137.2 130.2 137.16 130.72 137.08 131.6ZM133.4 150.84C133.32 150.84 133.12 150.88 132.8 150.88C132.48 150.92 132.24 150.92 132.12 150.92C131.96 150.92 131.8 150.92 131.56 150.88C131.32 150.84 131.12 150.76 131.04 150.68C130.92 150.6 130.8 150.44 130.68 150.28C130.56 150.12 130.48 149.88 130.48 149.6C130.44 149.44 130.4 149.2 130.32 148.8C130.24 148.4 130.2 148.08 130.2 147.8C130.2 147.44 130.24 147.08 130.36 146.68C130.36 146.52 130.48 146.36 130.72 146.2C130.96 146.04 131.2 145.92 131.48 145.92C142.28 145.92 149.8 146 154.12 146.24C155 146.32 155.68 146.4 156.2 146.56C156.8 146.76 157.16 147.04 157.28 147.36C157.4 147.84 157.48 148.36 157.48 148.88C157.48 149.48 157.36 150.2 157.2 151.04C156.88 152.44 156.08 153.44 154.76 154C154.04 154.32 152.72 154.56 150.84 154.72C150.16 154.8 149.2 154.84 147.92 154.84C146.64 154.88 145.76 154.92 145.24 154.92C145.16 154.92 143.72 154.96 140.96 155C138.16 155.04 136.64 155.08 136.36 155.16L136.4 156.12C136.88 156.12 138.68 156.12 141.8 156.08C144.92 156.04 146.76 156 147.24 156C148.32 156 149.28 156 150.12 155.96C150.68 155.96 151.56 155.92 152.72 155.84C153.84 155.76 154.68 155.72 155.24 155.72H155.32C156.04 155.72 156.44 155.96 156.44 156.44V156.64C156.2 157.76 156 158.64 155.84 159.2C155.64 159.76 155.32 160.16 154.88 160.4C154.44 160.64 153.72 160.72 152.68 160.72H152.2C151.16 160.72 149.68 160.64 147.8 160.52C145.92 160.4 144.6 160.32 143.84 160.28C142.64 160.24 141.6 160.24 140.68 160.28C139.76 160.32 138.72 160.32 137.6 160.28C136.48 160.24 135.48 160.12 134.6 159.96C133.4 159.72 132.56 159.32 132.08 158.76C131.6 158.2 131.32 157.48 131.16 156.52C131.12 156.36 131.12 155.92 131.12 155.24C131.12 155.2 131.12 154.92 131.16 154.4C131.16 153.64 131.4 153.12 131.8 152.8C132.2 152.52 132.88 152.36 133.92 152.32C137.76 152.24 142.84 152.08 149.2 151.84C150 151.84 150.4 151.56 150.4 151.08L150.36 150.88C150.36 150.76 150.36 150.64 150.36 150.52V150.28C150.36 150.24 150.16 150.2 149.76 150.2C149.36 150.2 148.64 150.2 147.6 150.24C146.56 150.28 145.48 150.32 144.32 150.36C143.16 150.44 141.52 150.52 139.44 150.6C137.36 150.68 135.32 150.76 133.4 150.84Z" fill="#494949"/>
</svg>
