<svg width="32" height="32" viewBox="0 0 32 32" fill="none" xmlns="http://www.w3.org/2000/svg">
<path d="M22.0859 4.30603L27.4973 9.71744M8.46402 8.41124H2.86601C2.37111 8.41124 1.89648 8.60784 1.54654 8.95778C1.1966 9.30772 1 9.78235 1 10.2772V28.9373C1 30.0569 1.7464 30.8033 2.86601 30.8033H23.3921C24.5117 30.8033 25.2581 30.0569 25.2581 28.9373V20.5403M29.7365 1.88022C30.1336 2.23044 30.4516 2.66115 30.6695 3.14374C30.8873 3.62633 31 4.14975 31 4.67923C31 5.20871 30.8873 5.73213 30.6695 6.21472C30.4516 6.69731 30.1336 7.12802 29.7365 7.47824L17.0476 20.1671L10.33 21.4733L11.6362 14.7557L24.5117 2.06682C25.2093 1.38302 26.1472 1 27.1241 1C28.1009 1 29.0389 1.38302 29.7365 2.06682V1.88022Z" stroke="#494949" stroke-width="2" stroke-linecap="round" stroke-linejoin="round"/>
</svg>
