<svg width="26" height="26" viewBox="0 0 26 26" fill="none" xmlns="http://www.w3.org/2000/svg">
<path d="M23 13C23 18.5125 18.5125 23 13 23C7.4875 23 3 18.5125 3 13C3 7.4875 7.4875 3 13 3C18.5125 3 23 7.4875 23 13ZM25.5 13C25.5 6.1 19.9 0.5 13 0.499999C6.1 0.499999 0.5 6.1 0.499999 13C0.499999 19.9 6.1 25.5 13 25.5C19.9 25.5 25.5 19.9 25.5 13ZM13 14.25L16.75 14.25C17.4375 14.25 18 13.6875 18 13C18 12.3125 17.4375 11.75 16.75 11.75L13 11.75L13 9.5125C13 8.95 12.325 8.675 11.9375 9.075L8.45 12.5625C8.2 12.8125 8.2 13.2 8.45 13.45L11.9375 16.9375C12.325 17.325 13 17.05 13 16.5L13 14.25Z" fill="#D7D7D7"/>
</svg>
