<svg width="40" height="54" viewBox="0 0 40 54" fill="none" xmlns="http://www.w3.org/2000/svg">
<path d="M17.9446 52.2573C2.80938 30.3157 0 28.0639 0 20C0 8.95427 8.95427 0 20 0C31.0457 0 40 8.95427 40 20C40 28.0639 37.1906 30.3157 22.0554 52.2573C21.0622 53.6921 18.9377 53.692 17.9446 52.2573Z" fill="#F8D259"/>
<path d="M13.1343 19.7862C14.38 19.7862 15.3897 18.7764 15.3897 17.5308C15.3897 16.2852 14.38 15.2754 13.1343 15.2754C11.8887 15.2754 10.8789 16.2852 10.8789 17.5308C10.8789 18.7764 11.8887 19.7862 13.1343 19.7862Z" fill="#494949"/>
<path d="M17.1939 16.1778C18.4395 16.1778 19.4493 15.168 19.4493 13.9224C19.4493 12.6768 18.4395 11.667 17.1939 11.667C15.9483 11.667 14.9385 12.6768 14.9385 13.9224C14.9385 15.168 15.9483 16.1778 17.1939 16.1778Z" fill="#494949"/>
<path d="M22.607 16.1778C23.8526 16.1778 24.8624 15.168 24.8624 13.9224C24.8624 12.6768 23.8526 11.667 22.607 11.667C21.3613 11.667 20.3516 12.6768 20.3516 13.9224C20.3516 15.168 21.3613 16.1778 22.607 16.1778Z" fill="#494949"/>
<path d="M26.6665 19.7862C27.9122 19.7862 28.922 18.7764 28.922 17.5308C28.922 16.2852 27.9122 15.2754 26.6665 15.2754C25.4209 15.2754 24.4111 16.2852 24.4111 17.5308C24.4111 18.7764 25.4209 19.7862 26.6665 19.7862Z" fill="#494949"/>
<path d="M24.7165 22.3661C23.9316 21.4458 23.2731 20.661 22.4792 19.7408C22.0642 19.2536 21.5319 18.7664 20.9004 18.5499C20.8011 18.5138 20.7019 18.4867 20.6026 18.4687C20.3771 18.4326 20.1335 18.4326 19.899 18.4326C19.6644 18.4326 19.4208 18.4326 19.1862 18.4777C19.087 18.4958 18.9878 18.5228 18.8885 18.5589C18.257 18.7754 17.7338 19.2626 17.3097 19.7498C16.5249 20.67 15.8663 21.4549 15.0724 22.3751C13.8905 23.5569 12.4381 24.8651 12.7087 26.6965C12.9703 27.6167 13.6289 28.5278 14.8107 28.7895C15.4693 28.9248 17.5714 28.3925 19.8087 28.3925H19.9711C22.2085 28.3925 24.3105 28.9158 24.9691 28.7895C26.151 28.5278 26.8095 27.6076 27.0712 26.6965C27.3508 24.856 25.8984 23.5479 24.7165 22.3661Z" fill="#494949"/>
</svg>
