<svg width="24" height="34" viewBox="0 0 24 34" fill="none" xmlns="http://www.w3.org/2000/svg">
<path d="M11.6667 15.8333C10.5616 15.8333 9.50179 15.3943 8.72039 14.6129C7.93899 13.8315 7.5 12.7717 7.5 11.6667C7.5 10.5616 7.93899 9.50179 8.72039 8.72039C9.50179 7.93899 10.5616 7.5 11.6667 7.5C12.7717 7.5 13.8315 7.93899 14.6129 8.72039C15.3943 9.50179 15.8333 10.5616 15.8333 11.6667C15.8333 12.2138 15.7256 12.7557 15.5162 13.2612C15.3068 13.7667 14.9999 14.226 14.6129 14.6129C14.226 14.9999 13.7667 15.3068 13.2612 15.5162C12.7557 15.7256 12.2138 15.8333 11.6667 15.8333ZM11.6667 0C8.57247 0 5.60501 1.22916 3.41709 3.41709C1.22916 5.60501 0 8.57247 0 11.6667C0 20.4167 11.6667 33.3333 11.6667 33.3333C11.6667 33.3333 23.3333 20.4167 23.3333 11.6667C23.3333 8.57247 22.1042 5.60501 19.9162 3.41709C17.7283 1.22916 14.7609 0 11.6667 0Z" fill="#10DCF7"/>
</svg>
