<svg width="22" height="21" viewBox="0 0 22 21" fill="none" xmlns="http://www.w3.org/2000/svg">
<mask id="path-1-inside-1_171_2322" fill="white">
<path fill-rule="evenodd" clip-rule="evenodd" d="M11.194 19.9549C17.0074 19.9549 21.7201 15.4878 21.7201 9.97744C21.7201 4.46705 17.0074 0 11.194 0C5.38068 0 0.668016 4.46705 0.668016 9.97744C0.668016 11.603 1.07815 13.1378 1.80568 14.4939L0.065395 18.9753C-0.236987 19.7539 0.561692 20.511 1.38316 20.2244L5.9505 18.6307C7.49433 19.4731 9.28482 19.9549 11.194 19.9549Z"/>
</mask>
<path d="M1.80568 14.4939L3.67004 15.2179L4.00332 14.3597L3.56807 13.5484L1.80568 14.4939ZM0.065395 18.9753L-1.79896 18.2513L0.065395 18.9753ZM1.38316 20.2244L0.724278 18.336H0.724277L1.38316 20.2244ZM5.9505 18.6307L6.90843 16.8751L6.12946 16.45L5.29162 16.7424L5.9505 18.6307ZM19.7201 9.97744C19.7201 14.2837 16.005 17.9549 11.194 17.9549V21.9549C18.0098 21.9549 23.7201 16.6919 23.7201 9.97744H19.7201ZM11.194 2C16.005 2 19.7201 5.67114 19.7201 9.97744H23.7201C23.7201 3.26297 18.0098 -2 11.194 -2V2ZM2.66802 9.97744C2.66802 5.67114 6.38303 2 11.194 2V-2C4.37832 -2 -1.33198 3.26297 -1.33198 9.97744H2.66802ZM3.56807 13.5484C2.99101 12.4728 2.66802 11.2616 2.66802 9.97744H-1.33198C-1.33198 11.9444 -0.83471 13.8029 0.043294 15.4394L3.56807 13.5484ZM-0.0586719 13.7699L-1.79896 18.2513L1.92975 19.6993L3.67004 15.2179L-0.0586719 13.7699ZM-1.79896 18.2513C-2.27878 19.4868 -1.85442 20.7102 -1.07305 21.4508C-0.300398 22.1832 0.880307 22.5181 2.04204 22.1127L0.724277 18.336C1.06454 18.2173 1.43517 18.3169 1.67872 18.5478C1.93098 18.7869 2.10719 19.2424 1.92975 19.6993L-1.79896 18.2513ZM2.04203 22.1127L6.60938 20.5191L5.29162 16.7424L0.724278 18.336L2.04203 22.1127ZM11.194 17.9549C9.62388 17.9549 8.16225 17.5592 6.90843 16.8751L4.99257 20.3864C6.8264 21.387 8.94576 21.9549 11.194 21.9549V17.9549Z" fill="#282828" mask="url(#path-1-inside-1_171_2322)"/>
</svg>
