<svg width="34" height="34" viewBox="0 0 34 34" fill="none" xmlns="http://www.w3.org/2000/svg">
<circle cx="17" cy="17" r="17" fill="#494949"/>
<path d="M12.0213 22.1865C10.5788 21.1692 9.49758 19.7191 8.93439 18.0462C8.3712 16.3733 8.35525 14.5645 8.88885 12.882C9.42245 11.1994 10.4779 9.73047 11.9022 8.68792C13.3266 7.64536 15.0459 7.08337 16.811 7.08337C18.5762 7.08337 20.2955 7.64536 21.7198 8.68792C23.1442 9.73047 24.1996 11.1994 24.7332 12.882C25.2668 14.5645 25.2509 16.3733 24.6877 18.0462C24.1245 19.7191 23.0433 21.1692 21.6008 22.1865L23.7648 27.1315C23.7995 27.2107 23.814 27.2973 23.8068 27.3834C23.7997 27.4696 23.7711 27.5526 23.7237 27.6249C23.6764 27.6972 23.6117 27.7566 23.5356 27.7976C23.4595 27.8386 23.3744 27.86 23.288 27.8598H10.3331C10.2468 27.8599 10.1618 27.8385 10.0858 27.7976C10.0099 27.7566 9.94528 27.6974 9.89795 27.6252C9.85062 27.553 9.82202 27.4702 9.81474 27.3841C9.80746 27.2981 9.82173 27.2117 9.85626 27.1326L12.0213 22.1865ZM12.7786 16.4009C13.0043 17.2995 13.5236 18.097 14.2541 18.6667C14.9847 19.2365 15.8846 19.546 16.811 19.546C17.7375 19.546 18.6374 19.2365 19.368 18.6667C20.0985 18.097 20.6178 17.2995 20.8435 16.4009L18.827 15.8971C18.7151 16.3473 18.4559 16.7471 18.0904 17.0329C17.725 17.3186 17.2744 17.4739 16.8105 17.4739C16.3466 17.4739 15.8961 17.3186 15.5306 17.0329C15.1652 16.7471 14.9059 16.3473 14.7941 15.8971L12.7786 16.4009Z" fill="#F8D259"/>
<circle cx="14.9453" cy="13.1326" r="1.0625" fill="#494949"/>
<circle cx="18.3457" cy="13.1326" r="1.0625" fill="#494949"/>
</svg>
