<svg xmlns="http://www.w3.org/2000/svg" width="70" height="70" viewBox="0 0 70 70" fill="none">
<circle cx="35" cy="35" r="35" fill="#494949"/>
<path d="M24.7497 45.6781C21.7798 43.5837 19.5538 40.5981 18.3943 37.154C17.2348 33.7098 17.202 29.9859 18.3006 26.5218C19.3992 23.0577 21.5721 20.0334 24.5046 17.887C27.4371 15.7405 30.9769 14.5835 34.611 14.5835C38.2451 14.5835 41.7848 15.7405 44.7173 17.887C47.6498 20.0334 49.8228 23.0577 50.9214 26.5218C52.02 29.9859 51.9871 33.7098 50.8276 37.154C49.6681 40.5981 47.4422 43.5837 44.4723 45.6781L48.9275 55.8591C48.9991 56.0221 49.0288 56.2003 49.0141 56.3777C48.9993 56.5551 48.9405 56.7259 48.843 56.8748C48.7455 57.0238 48.6124 57.146 48.4557 57.2304C48.299 57.3149 48.1238 57.3589 47.9458 57.3584H21.274C21.0963 57.3587 20.9214 57.3147 20.7649 57.2304C20.6085 57.146 20.4756 57.024 20.3781 56.8754C20.2807 56.7268 20.2218 56.5563 20.2068 56.3792C20.1918 56.2021 20.2212 56.0241 20.2923 55.8612L24.7497 45.6781ZM26.3089 33.7667C26.7735 35.6167 27.8426 37.2585 29.3467 38.4316C30.8508 39.6047 32.7035 40.2418 34.611 40.2418C36.5184 40.2418 38.3712 39.6047 39.8753 38.4316C41.3793 37.2585 42.4485 35.6167 42.913 33.7667L38.7615 32.7293C38.5312 33.6562 37.9973 34.4794 37.245 35.0678C36.4926 35.6561 35.565 35.9757 34.6099 35.9757C33.6548 35.9757 32.7272 35.6561 31.9748 35.0678C31.2225 34.4794 30.6886 33.6562 30.4584 32.7293L26.3089 33.7667Z" fill="#F8D259"/>
<circle cx="30.771" cy="27.0371" r="2.1875" fill="#494949"/>
<circle cx="37.7708" cy="27.0371" r="2.1875" fill="#494949"/>
</svg>
