<svg width="46" height="46" viewBox="0 0 46 46" fill="none" xmlns="http://www.w3.org/2000/svg">
<circle cx="23" cy="23.0004" r="19.6" fill="#494949"/>
<path d="M17.2599 28.9799C15.5968 27.807 14.3502 26.1351 13.7009 24.2064C13.0516 22.2776 13.0332 20.1922 13.6484 18.2524C14.2636 16.3125 15.4805 14.6188 17.1227 13.4168C18.7649 12.2148 20.7471 11.5669 22.7822 11.5669C24.8173 11.5669 26.7996 12.2148 28.4418 13.4168C30.084 14.6188 31.3008 16.3125 31.9161 18.2524C32.5313 20.1922 32.5129 22.2776 31.8635 24.2064C31.2142 26.1351 29.9677 27.807 28.3045 28.9799L30.7995 34.6812C30.8396 34.7725 30.8562 34.8723 30.8479 34.9716C30.8397 35.071 30.8068 35.1667 30.7522 35.2501C30.6976 35.3334 30.623 35.4019 30.5353 35.4492C30.4475 35.4965 30.3494 35.5211 30.2497 35.5209H15.3135C15.214 35.521 15.116 35.4964 15.0284 35.4491C14.9408 35.4019 14.8664 35.3336 14.8118 35.2504C14.7573 35.1672 14.7243 35.0717 14.7159 34.9725C14.7075 34.8733 14.724 34.7736 14.7638 34.6824L17.2599 28.9799ZM18.1331 22.3095C18.3932 23.3455 18.992 24.2649 19.8342 24.9218C20.6765 25.5788 21.7141 25.9355 22.7822 25.9355C23.8504 25.9355 24.8879 25.5788 25.7302 24.9218C26.5725 24.2649 27.1712 23.3455 27.4314 22.3095L25.1065 21.7286C24.9775 22.2476 24.6786 22.7086 24.2573 23.0381C23.8359 23.3675 23.3165 23.5465 22.7816 23.5465C22.2468 23.5465 21.7273 23.3675 21.306 23.0381C20.8847 22.7086 20.5857 22.2476 20.4568 21.7286L18.1331 22.3095Z" fill="#F8D259"/>
<circle cx="20.6317" cy="18.5409" r="1.225" fill="#494949"/>
<circle cx="24.5516" cy="18.5414" r="1.225" fill="#494949"/>
<circle cx="23" cy="23" r="22" stroke="#494949" stroke-width="2"/>
</svg>
