<svg width="96" height="96" viewBox="0 0 96 96" fill="none" xmlns="http://www.w3.org/2000/svg">
<g clip-path="url(#clip0_89_218)">
<path d="M18 48C23.5228 48 28 43.5228 28 38C28 32.4772 23.5228 28 18 28C12.4772 28 8 32.4772 8 38C8 43.5228 12.4772 48 18 48Z" fill="#D7D7D7"/>
<path d="M36 32C41.5228 32 46 27.5228 46 22C46 16.4772 41.5228 12 36 12C30.4772 12 26 16.4772 26 22C26 27.5228 30.4772 32 36 32Z" fill="#D7D7D7"/>
<path d="M60 32C65.5228 32 70 27.5228 70 22C70 16.4772 65.5228 12 60 12C54.4772 12 50 16.4772 50 22C50 27.5228 54.4772 32 60 32Z" fill="#D7D7D7"/>
<path d="M78 48C83.5228 48 88 43.5228 88 38C88 32.4772 83.5228 28 78 28C72.4772 28 68 32.4772 68 38C68 43.5228 72.4772 48 78 48Z" fill="#D7D7D7"/>
<path d="M69.36 59.44C65.88 55.36 62.96 51.88 59.44 47.8C57.6 45.64 55.24 43.48 52.44 42.52C52 42.36 51.56 42.24 51.12 42.16C50.12 42 49.04 42 48 42C46.96 42 45.88 42 44.84 42.2C44.4 42.28 43.96 42.4 43.52 42.56C40.72 43.52 38.4 45.68 36.52 47.84C33.04 51.92 30.12 55.4 26.6 59.48C21.36 64.72 14.92 70.52 16.12 78.64C17.28 82.72 20.2 86.76 25.44 87.92C28.36 88.52 37.68 86.16 47.6 86.16H48.32C58.24 86.16 67.56 88.48 70.48 87.92C75.72 86.76 78.64 82.68 79.8 78.64C81.04 70.48 74.6 64.68 69.36 59.44Z" fill="#D7D7D7"/>
</g>
<defs>
<clipPath id="clip0_89_218">
<rect width="96" height="96" fill="white"/>
</clipPath>
</defs>
</svg>
