<svg width="13" height="13" viewBox="0 0 13 13" fill="none" xmlns="http://www.w3.org/2000/svg">
<path d="M11.9503 5.28135L9.235 8.00576C9.46656 8.64916 9.56254 9.72674 8.5652 11.0526C8.49544 11.1459 8.40639 11.2229 8.30411 11.2786C8.20183 11.3343 8.08875 11.3672 7.97258 11.3751H7.9152C7.80843 11.3751 7.70271 11.3541 7.60407 11.3132C7.50544 11.2724 7.41582 11.2125 7.34035 11.1369L4.88965 8.68369L2.72484 10.85C2.64862 10.9263 2.54523 10.9691 2.43742 10.9691C2.32962 10.9691 2.22623 10.9263 2.15 10.85C2.07377 10.7738 2.03095 10.6704 2.03095 10.5626C2.03095 10.4548 2.07377 10.3514 2.15 10.2752L4.31633 8.11037L1.86359 5.65764C1.78297 5.57692 1.72026 5.48012 1.67952 5.37356C1.63879 5.26699 1.62096 5.15304 1.62719 5.03912C1.63342 4.92521 1.66356 4.81388 1.71567 4.71239C1.76777 4.6109 1.84067 4.52151 1.92961 4.45006C3.22047 3.40854 4.45598 3.61319 4.9968 3.7828L7.71867 1.05127C7.79412 0.975807 7.8837 0.915942 7.98229 0.875098C8.08088 0.834255 8.18655 0.813232 8.29326 0.813232C8.39998 0.813232 8.50565 0.834255 8.60424 0.875098C8.70283 0.915942 8.7924 0.975807 8.86785 1.05127L11.9498 4.13268C12.1021 4.28497 12.1877 4.49151 12.1878 4.70691C12.1879 4.92231 12.1025 5.12893 11.9503 5.28135Z" fill="#494949"/>
</svg>
