<svg width="26" height="26" viewBox="0 0 26 26" fill="none" xmlns="http://www.w3.org/2000/svg">
<path d="M3 13C3 7.4875 7.4875 3 13 3C18.5125 3 23 7.4875 23 13C23 18.5125 18.5125 23 13 23C7.4875 23 3 18.5125 3 13ZM0.499999 13C0.499999 19.9 6.1 25.5 13 25.5C19.9 25.5 25.5 19.9 25.5 13C25.5 6.1 19.9 0.5 13 0.499999C6.1 0.499999 0.5 6.1 0.499999 13ZM13 11.75L9.25 11.75C8.5625 11.75 8 12.3125 8 13C8 13.6875 8.5625 14.25 9.25 14.25L13 14.25L13 16.4875C13 17.05 13.675 17.325 14.0625 16.925L17.55 13.4375C17.8 13.1875 17.8 12.8 17.55 12.55L14.0625 9.0625C13.675 8.675 13 8.95 13 9.5125L13 11.75Z" fill="#D7D7D7"/>
</svg>
