<svg width="17" height="3" viewBox="0 0 17 3" fill="none" xmlns="http://www.w3.org/2000/svg">
<path d="M2.2627 2.63867C2.03418 2.63867 1.82048 2.57943 1.62158 2.46094C1.42269 2.34245 1.264 2.18376 1.14551 1.98486C1.02702 1.78597 0.967773 1.56803 0.967773 1.33105C0.967773 1.09408 1.02702 0.876139 1.14551 0.677246C1.264 0.478353 1.42269 0.321777 1.62158 0.20752C1.82048 0.0932617 2.03418 0.0361328 2.2627 0.0361328C2.49967 0.0361328 2.71973 0.0932617 2.92285 0.20752C3.12598 0.321777 3.28467 0.478353 3.39893 0.677246C3.51318 0.876139 3.57031 1.09408 3.57031 1.33105C3.57031 1.56803 3.51318 1.78597 3.39893 1.98486C3.28467 2.18376 3.12598 2.34245 2.92285 2.46094C2.71973 2.57943 2.49967 2.63867 2.2627 2.63867ZM8.88965 2.63867C8.66113 2.63867 8.44743 2.57943 8.24854 2.46094C8.04964 2.34245 7.89095 2.18376 7.77246 1.98486C7.65397 1.78597 7.59473 1.56803 7.59473 1.33105C7.59473 1.09408 7.65397 0.876139 7.77246 0.677246C7.89095 0.478353 8.04964 0.321777 8.24854 0.20752C8.44743 0.0932617 8.66113 0.0361328 8.88965 0.0361328C9.12663 0.0361328 9.34668 0.0932617 9.5498 0.20752C9.75293 0.321777 9.91162 0.478353 10.0259 0.677246C10.1401 0.876139 10.1973 1.09408 10.1973 1.33105C10.1973 1.56803 10.1401 1.78597 10.0259 1.98486C9.91162 2.18376 9.75293 2.34245 9.5498 2.46094C9.34668 2.57943 9.12663 2.63867 8.88965 2.63867ZM15.5166 2.63867C15.2881 2.63867 15.0744 2.57943 14.8755 2.46094C14.6766 2.34245 14.5179 2.18376 14.3994 1.98486C14.2809 1.78597 14.2217 1.56803 14.2217 1.33105C14.2217 1.09408 14.2809 0.876139 14.3994 0.677246C14.5179 0.478353 14.6766 0.321777 14.8755 0.20752C15.0744 0.0932617 15.2881 0.0361328 15.5166 0.0361328C15.7536 0.0361328 15.9736 0.0932617 16.1768 0.20752C16.3799 0.321777 16.5386 0.478353 16.6528 0.677246C16.7671 0.876139 16.8242 1.09408 16.8242 1.33105C16.8242 1.56803 16.7671 1.78597 16.6528 1.98486C16.5386 2.18376 16.3799 2.34245 16.1768 2.46094C15.9736 2.57943 15.7536 2.63867 15.5166 2.63867Z" fill="black"/>
</svg>
