<svg width="32" height="37" viewBox="0 0 32 37" fill="none" xmlns="http://www.w3.org/2000/svg">
<path fill-rule="evenodd" clip-rule="evenodd" d="M16.0001 0C14.8723 0 13.8919 0.721578 11.9329 2.16645L8.98315 4.34147C8.67464 4.56942 8.52038 4.68255 8.35413 4.77853C8.18787 4.87451 8.01133 4.94992 7.65997 5.10418L4.30232 6.57133C2.07074 7.54829 0.954947 8.03506 0.391054 9.0103C-0.171126 9.98726 -0.0374369 11.1973 0.235083 13.6174L0.643006 17.2596C0.685855 17.6401 0.706423 17.8304 0.706423 18.0223C0.706423 18.2143 0.685855 18.4045 0.643006 18.785L0.235083 22.4272C-0.0357229 24.8473 -0.171126 26.0574 0.391054 27.0343C0.956661 28.0113 2.07074 28.4981 4.30232 29.4733L7.66168 30.9405C8.01133 31.0947 8.18787 31.1701 8.35413 31.2661C8.51867 31.3621 8.67464 31.4752 8.98315 31.7032L11.9312 33.8782C13.8937 35.3231 14.874 36.0446 16.0001 36.0446C17.1262 36.0446 18.1083 35.3231 20.0673 33.8782L23.0171 31.7032C23.3256 31.4752 23.4798 31.3621 23.6461 31.2661C23.8124 31.1701 23.9889 31.0947 24.3403 30.9405L27.6979 29.4733C29.9295 28.4963 31.0453 28.0096 31.6092 27.0343C32.1713 26.0574 32.0377 24.8473 31.7634 22.4272L31.3572 18.785C31.3144 18.4045 31.2921 18.2143 31.2921 18.0223C31.2921 17.8304 31.3144 17.6401 31.3572 17.2596L31.7651 13.6174C32.0359 11.1973 32.1713 9.98726 31.6092 9.0103C31.0436 8.03334 29.9295 7.54658 27.6979 6.57133L24.3385 5.10418C24.102 5.0082 23.8709 4.89949 23.6461 4.77853C23.4287 4.64429 23.2187 4.49839 23.0171 4.34147L20.0691 2.16645C18.1049 0.721578 17.1245 0 16.0001 0ZM16.0001 24.8782C17.8184 24.8782 19.5622 24.1559 20.8479 22.8701C22.1337 21.5844 22.856 19.8406 22.856 18.0223C22.856 16.204 22.1337 14.4602 20.8479 13.1745C19.5622 11.8888 17.8184 11.1665 16.0001 11.1665C14.1818 11.1665 12.438 11.8888 11.1523 13.1745C9.86657 14.4602 9.14426 16.204 9.14426 18.0223C9.14426 19.8406 9.86657 21.5844 11.1523 22.8701C12.438 24.1559 14.1818 24.8782 16.0001 24.8782Z" fill="#494949"/>
</svg>
