<svg width="26" height="26" viewBox="0 0 26 26" fill="none" xmlns="http://www.w3.org/2000/svg">
<path d="M10.5 5.5H15.5C15.5 4.83696 15.2366 4.20107 14.7678 3.73223C14.2989 3.26339 13.663 3 13 3C12.337 3 11.7011 3.26339 11.2322 3.73223C10.7634 4.20107 10.5 4.83696 10.5 5.5ZM8 5.5C8 4.17392 8.52678 2.90215 9.46447 1.96447C10.4021 1.02678 11.6739 0.5 13 0.5C14.3261 0.5 15.5979 1.02678 16.5355 1.96447C17.4732 2.90215 18 4.17392 18 5.5H24.25C24.5815 5.5 24.8995 5.6317 25.1339 5.86612C25.3683 6.10054 25.5 6.41848 25.5 6.75C25.5 7.08152 25.3683 7.39946 25.1339 7.63388C24.8995 7.8683 24.5815 8 24.25 8H23.1475L22.04 20.925C21.9335 22.1731 21.3625 23.3357 20.4398 24.1829C19.5172 25.0301 18.3101 25.5001 17.0575 25.5H8.9425C7.68989 25.5001 6.48284 25.0301 5.56019 24.1829C4.63753 23.3357 4.06647 22.1731 3.96 20.925L2.8525 8H1.75C1.41848 8 1.10054 7.8683 0.866116 7.63388C0.631696 7.39946 0.5 7.08152 0.5 6.75C0.5 6.41848 0.631696 6.10054 0.866116 5.86612C1.10054 5.6317 1.41848 5.5 1.75 5.5H8ZM16.75 13C16.75 12.6685 16.6183 12.3505 16.3839 12.1161C16.1495 11.8817 15.8315 11.75 15.5 11.75C15.1685 11.75 14.8505 11.8817 14.6161 12.1161C14.3817 12.3505 14.25 12.6685 14.25 13V18C14.25 18.3315 14.3817 18.6495 14.6161 18.8839C14.8505 19.1183 15.1685 19.25 15.5 19.25C15.8315 19.25 16.1495 19.1183 16.3839 18.8839C16.6183 18.6495 16.75 18.3315 16.75 18V13ZM10.5 11.75C10.8315 11.75 11.1495 11.8817 11.3839 12.1161C11.6183 12.3505 11.75 12.6685 11.75 13V18C11.75 18.3315 11.6183 18.6495 11.3839 18.8839C11.1495 19.1183 10.8315 19.25 10.5 19.25C10.1685 19.25 9.85054 19.1183 9.61612 18.8839C9.3817 18.6495 9.25 18.3315 9.25 18V13C9.25 12.6685 9.3817 12.3505 9.61612 12.1161C9.85054 11.8817 10.1685 11.75 10.5 11.75ZM6.45 20.7125C6.50325 21.3368 6.78896 21.9183 7.25055 22.3419C7.71215 22.7655 8.31598 23.0004 8.9425 23H17.0575C17.6836 22.9998 18.2868 22.7646 18.7479 22.341C19.2089 21.9175 19.4943 21.3363 19.5475 20.7125L20.6375 8H5.3625L6.45 20.7125Z" fill="white"/>
</svg>
