<svg width="34" height="34" viewBox="0 0 34 34" fill="none" xmlns="http://www.w3.org/2000/svg">
<path d="M16.9997 30.3333C9.64967 30.3333 3.66634 24.3499 3.66634 16.9999C3.66634 9.64992 9.64967 3.66659 16.9997 3.66659C24.3497 3.66659 30.333 9.64992 30.333 16.9999C30.333 24.3499 24.3497 30.3333 16.9997 30.3333ZM16.9997 33.6666C26.1997 33.6666 33.6663 26.1999 33.6663 16.9999C33.6663 7.79992 26.1997 0.333252 16.9997 0.333252C7.79967 0.333252 0.333008 7.79992 0.333008 16.9999C0.333008 26.1999 7.79967 33.6666 16.9997 33.6666ZM15.333 16.9999V21.9999C15.333 22.9166 16.083 23.6666 16.9997 23.6666C17.9163 23.6666 18.6663 22.9166 18.6663 21.9999V16.9999H21.6497C22.3997 16.9999 22.7663 16.0999 22.233 15.5833L17.583 10.9333C17.2497 10.5999 16.733 10.5999 16.3997 10.9333L11.7497 15.5833C11.233 16.0999 11.5997 16.9999 12.3497 16.9999H15.333Z" fill="#D7D7D7"/>
</svg>
