<svg width="80" height="80" viewBox="0 0 80 80" fill="none" xmlns="http://www.w3.org/2000/svg">
<path d="M10.0001 20.0003C8.16675 20.0003 6.66675 21.5003 6.66675 23.3337V66.667C6.66675 70.3337 9.66675 73.3337 13.3334 73.3337H56.6667C58.5001 73.3337 60.0001 71.8337 60.0001 70.0003C60.0001 68.167 58.5001 66.667 56.6667 66.667H16.6667C14.8334 66.667 13.3334 65.167 13.3334 63.3337V23.3337C13.3334 21.5003 11.8334 20.0003 10.0001 20.0003ZM66.6667 6.66699H26.6667C23.0001 6.66699 20.0001 9.66699 20.0001 13.3337V53.3337C20.0001 57.0003 23.0001 60.0003 26.6667 60.0003H66.6667C70.3334 60.0003 73.3334 57.0003 73.3334 53.3337V13.3337C73.3334 9.66699 70.3334 6.66699 66.6667 6.66699ZM40.0001 48.3337V18.3337L58.2334 32.0003C59.1334 32.667 59.1334 34.0003 58.2334 34.667L40.0001 48.3337Z" fill="white"/>
</svg>
