<svg width="66" height="58" viewBox="0 0 66 58" fill="none" xmlns="http://www.w3.org/2000/svg">
<path d="M3.17639 58C2.58691 58 2.05103 57.8528 1.56873 57.5585C1.08644 57.2642 0.711316 56.8743 0.443373 56.3889C0.175431 55.9055 0.0285983 55.3814 0.00287581 54.8164C-0.0228467 54.2515 0.123986 53.7015 0.443373 53.1666L30.185 1.61111C30.5065 1.07407 30.9224 0.671296 31.4325 0.402778C31.9427 0.134259 32.4647 0 32.9984 0C33.5343 0 34.0573 0.134259 34.5675 0.402778C35.0776 0.671296 35.4924 1.07407 35.8118 1.61111L65.5534 53.1666C65.875 53.7037 66.0229 54.2547 65.9971 54.8196C65.9714 55.3846 65.8235 55.9077 65.5534 56.3889C65.2855 56.8722 64.9104 57.2621 64.4281 57.5585C63.9458 57.855 63.4099 58.0021 62.8204 58H3.17639ZM32.9984 48.3333C33.9094 48.3333 34.6736 48.024 35.2909 47.4053C35.9083 46.7866 36.2159 46.0219 36.2137 45.1111C36.2137 44.1981 35.905 43.4334 35.2877 42.8169C34.6704 42.2004 33.9073 41.891 32.9984 41.8889C32.0874 41.8889 31.3243 42.1982 30.7091 42.8169C30.0939 43.4355 29.7852 44.2003 29.7831 45.1111C29.7831 46.0241 30.0918 46.7899 30.7091 47.4085C31.3264 48.0272 32.0895 48.3355 32.9984 48.3333ZM32.9984 38.6666C33.9094 38.6666 34.6736 38.3573 35.2909 37.7387C35.9083 37.12 36.2159 36.3552 36.2137 35.4444V25.7778C36.2137 24.8648 35.905 24.1001 35.2877 23.4835C34.6704 22.867 33.9073 22.5577 32.9984 22.5555C32.0874 22.5555 31.3243 22.8649 30.7091 23.4835C30.0939 24.1022 29.7852 24.867 29.7831 25.7778V35.4444C29.7831 36.3574 30.0918 37.1232 30.7091 37.7419C31.3264 38.3605 32.0895 38.6688 32.9984 38.6666Z" fill="#FF3931"/>
</svg>
