<svg xmlns="http://www.w3.org/2000/svg" width="218" height="169" viewBox="0 0 218 169" fill="none">
  <path d="M29.2677 130.872L22.5359 131.369C22.4254 129.58 22.3701 128.63 22.3701 128.52C22.3259 127.416 22.2706 125.869 22.2043 123.881C22.1601 121.871 22.1269 120.48 22.1048 119.707C22.0606 118.492 22.6244 117.895 23.7961 117.918C24.4814 117.94 25.5868 117.995 27.1122 118.083C28.6376 118.172 29.7983 118.227 30.5942 118.249C31.5227 118.271 33.026 118.282 35.1041 118.282C37.2043 118.26 38.7187 118.271 39.6472 118.315C40.7084 118.337 42.2228 118.503 44.1904 118.812C44.6988 118.878 45.0304 119.022 45.1852 119.243C45.3621 119.442 45.4394 119.806 45.4173 120.336C45.4173 120.734 45.3842 121.297 45.3178 122.026C45.2515 122.755 45.2073 123.263 45.1852 123.55C45.1631 123.727 45.141 124.699 45.1189 126.466C45.0968 127.924 45.0857 128.697 45.0857 128.785C45.0857 128.873 45.0083 129.68 44.8536 131.204C42.0238 131.425 40.4873 131.546 40.2441 131.568C39.6472 131.612 39.2603 131.734 39.0835 131.933C38.9287 132.109 38.8845 132.485 38.9508 133.059C39.0835 133.965 39.1609 134.97 39.183 136.074C39.2051 137.156 39.194 138.051 39.1498 138.758C39.1277 139.465 39.0614 140.492 38.9508 141.839C38.8403 143.187 38.774 144.125 38.7519 144.655C38.7519 144.722 38.7519 145.362 38.7519 146.577L28.8366 147.737C28.9914 141.994 29.1351 136.372 29.2677 130.872ZM56.4989 133.49C56.5211 133.689 56.5542 133.987 56.5984 134.384C56.6426 134.76 56.6869 135.08 56.7311 135.345C56.7753 135.61 56.8416 135.853 56.93 136.074C56.9964 136.273 57.1511 136.461 57.3943 136.637C57.6596 136.792 57.8917 136.869 58.0907 136.869C58.2676 136.869 58.4665 136.792 58.6876 136.637C58.9308 136.461 59.1076 136.273 59.2182 136.074C59.5056 135.544 59.6382 134.937 59.6161 134.252C59.594 133.678 59.5387 132.86 59.4503 131.8C59.384 130.718 59.3398 129.945 59.3177 129.481C59.2956 129.127 59.1629 128.906 58.9197 128.818C58.6987 128.73 58.4997 128.752 58.3228 128.884C57.6375 129.194 57.2396 129.58 57.129 130.044C57.0185 130.375 56.93 130.74 56.8637 131.137C56.7974 131.513 56.72 131.955 56.6316 132.463C56.5653 132.949 56.5211 133.291 56.4989 133.49ZM58.4223 118.547C60.3015 118.37 61.2963 118.282 61.4068 118.282C62.5122 118.194 63.5734 118.337 64.5903 118.713C65.6294 119.066 66.569 119.729 67.4091 120.701C68.2492 121.65 68.7908 122.832 69.034 124.246C69.7635 128.332 69.7083 131.877 68.8682 134.881C68.1607 137.355 67.4643 139.851 66.779 142.369C65.9831 145.241 63.9603 146.809 60.7105 147.074C59.804 147.14 59.0192 147.24 58.356 147.372C57.8033 147.461 57.2396 147.516 56.6648 147.538C56.1121 147.56 55.5483 147.527 54.9735 147.438C54.4208 147.35 53.9124 147.251 53.4481 147.14C52.9838 147.03 52.4532 146.864 51.8563 146.643C51.2594 146.422 50.762 146.235 50.3641 146.08C49.9661 145.925 49.4466 145.705 48.8055 145.417C48.2749 145.197 47.8659 144.832 47.5785 144.324C47.2911 143.816 47.059 143.198 46.8821 142.469C45.9978 139.155 45.7878 135.853 46.2521 132.562C46.7384 129.05 48.2528 125.45 50.7952 121.761C50.9941 121.474 51.2484 121.209 51.5579 120.966C51.8674 120.723 52.2432 120.458 52.6854 120.171C53.1275 119.883 53.4481 119.674 53.6471 119.541C54.8409 118.635 56.4326 118.304 58.4223 118.547ZM95.7305 122.556C95.0894 123.705 94.7578 124.312 94.7357 124.378C93.4534 126.587 92.6796 127.901 92.4143 128.321C92.1048 128.785 91.6074 129.039 90.9221 129.083C90.2589 129.105 89.7283 128.918 89.3303 128.52C88.7555 127.968 87.8049 127.537 86.4785 127.228C84.9088 126.874 83.6708 126.841 82.7644 127.128C81.2832 127.592 80.0783 128.2 79.1498 128.951C78.2434 129.68 77.6686 130.718 77.4254 132.065C77.1601 133.589 77.2375 134.76 77.6575 135.577C78.2544 136.659 79.2161 137.554 80.5425 138.261C81.6258 138.835 83.0628 138.901 84.8535 138.46C85.561 138.283 85.9036 137.841 85.8815 137.134C85.8594 136.494 85.9258 135.699 86.0805 134.749C86.1026 134.638 86.18 134.517 86.3126 134.384C86.4453 134.252 86.5669 134.186 86.6774 134.186C88.4902 134.208 90.2257 134.263 91.8838 134.351C92.1048 134.351 92.2928 134.395 92.4475 134.484C92.6023 134.55 92.746 134.694 92.8786 134.914C93.0113 135.135 93.0886 135.279 93.1107 135.345C93.155 135.411 93.2434 135.599 93.376 135.908C93.6192 136.461 93.7187 137.035 93.6745 137.631C93.4976 139.906 93.2765 141.939 93.0113 143.728C92.9228 144.302 92.6575 145.086 92.2154 146.08C92.1269 146.279 91.8506 146.433 91.3863 146.544C91.2316 146.588 90.9995 146.643 90.6899 146.71C90.4026 146.798 90.1594 146.864 89.9604 146.908C89.7835 146.975 89.5625 147.019 89.2972 147.041C89.054 147.085 88.8219 147.107 88.6008 147.107C85.3952 146.975 82.6096 146.765 80.2441 146.478C79.9125 146.433 79.5698 146.345 79.2161 146.213C78.8845 146.08 78.4865 145.903 78.0223 145.682C77.5801 145.462 77.2485 145.307 77.0274 145.219C76.8727 145.152 76.6516 145.053 76.3642 144.92C76.0768 144.788 75.8778 144.7 75.7673 144.655C73.6008 143.706 71.81 142.071 70.3951 139.752C70.1962 139.42 70.0304 138.725 69.8977 137.664C69.7209 136.185 69.5882 134.782 69.4998 133.457C69.5219 133.147 69.5108 132.96 69.4666 132.893C69.4445 132.827 69.4666 132.65 69.5329 132.363C69.5993 132.054 69.6214 131.866 69.5993 131.8C69.5993 131.734 69.6435 131.557 69.7319 131.27C69.8203 130.983 69.8646 130.806 69.8646 130.74C69.8867 130.674 69.9419 130.497 70.0304 130.21C70.1188 129.923 70.1741 129.757 70.1962 129.713C70.2183 129.646 70.2846 129.47 70.3951 129.183C70.5057 128.873 70.561 128.697 70.561 128.652C71.6221 125.693 73.4018 123.164 75.8999 121.065C77.3369 119.85 78.9397 119.155 80.7084 118.978C80.841 118.956 81.3274 118.878 82.1675 118.746C83.0297 118.613 83.6929 118.547 84.1571 118.547C85.0193 118.547 86.2353 118.702 87.8049 119.011C89.1977 119.276 90.8889 119.652 92.8786 120.137C93.365 120.27 93.6524 120.48 93.7408 120.767C93.9177 121.297 94.3598 121.706 95.0673 121.993C95.1557 122.037 95.2441 122.092 95.3326 122.159C95.421 122.225 95.4984 122.302 95.5647 122.39C95.6531 122.479 95.7084 122.534 95.7305 122.556ZM106.21 135.677C106.409 137.93 106.542 139.255 106.608 139.652C106.63 139.763 106.752 139.873 106.973 139.984C107.216 140.094 107.426 140.149 107.603 140.149C108.598 140.149 110.024 140.127 111.881 140.083C113.738 140.039 115.031 140.017 115.761 140.017C116.181 140.017 116.778 140.083 117.551 140.216C117.994 140.282 118.159 140.569 118.049 141.077C117.806 142.402 117.651 143.407 117.585 144.092C117.474 145.395 116.822 146.202 115.628 146.511C113.55 147.041 111.052 147.273 108.134 147.207C107.736 147.184 105.348 147.162 100.971 147.14C99.8212 147.14 99.0032 146.93 98.5168 146.511C98.0526 146.113 97.732 145.34 97.5551 144.192C97.2235 141.916 97.0135 139.973 96.9251 138.36C96.7703 135.688 96.7703 133.666 96.9251 132.297C97.1019 130.751 97.6104 127.692 98.4505 123.119C98.5389 122.611 98.8042 121.783 99.2464 120.634C99.4896 119.972 99.8764 119.629 100.407 119.607C100.761 119.607 101.402 119.563 102.33 119.475C103.259 119.386 103.966 119.342 104.453 119.342C106.73 119.364 108.907 119.088 110.986 118.514C111.428 118.492 111.682 118.481 111.748 118.481C111.837 118.459 112.113 118.481 112.577 118.547C113.042 118.613 113.318 118.646 113.406 118.646C113.76 118.691 114.136 118.746 114.534 118.812C114.932 118.856 115.374 118.912 115.86 118.978C116.347 119.044 116.734 119.099 117.021 119.143C117.529 119.21 117.784 119.53 117.784 120.104C117.762 120.634 117.75 121.385 117.75 122.357C117.75 123.307 117.75 124.058 117.75 124.61C117.75 125.118 117.574 125.538 117.22 125.869C116.888 126.179 116.468 126.333 115.96 126.333C115.916 126.333 115.175 126.322 113.738 126.3C112.323 126.256 111.593 126.256 111.549 126.3C110.422 126.388 109.173 126.609 107.802 126.963C107.625 127.007 107.448 127.393 107.271 128.122C107.249 128.189 107.294 128.288 107.404 128.421C107.515 128.553 107.614 128.63 107.703 128.652C109.073 128.94 110.09 129.105 110.753 129.149C111.483 129.216 112.5 129.282 113.804 129.348C115.131 129.414 116.026 129.459 116.49 129.481C116.932 129.503 117.242 129.613 117.419 129.812C117.596 129.989 117.673 130.287 117.651 130.707C117.651 132.65 117.618 134.031 117.551 134.848C117.529 135.025 117.452 135.213 117.319 135.411C117.187 135.588 117.032 135.721 116.855 135.809C116.28 136.074 115.672 136.24 115.031 136.306C114.169 136.372 113.307 136.405 112.445 136.405C110.831 136.405 109.206 136.284 107.57 136.041C107.548 136.019 107.095 135.897 106.21 135.677ZM127.568 128.918C127.966 132.915 128.187 135.224 128.231 135.842C128.297 136.439 128.629 136.715 129.226 136.67C129.425 136.67 129.867 136.682 130.552 136.704C131.238 136.726 131.68 136.704 131.879 136.637C132.564 136.527 133.117 136.24 133.537 135.776C134.244 135.025 134.532 134.042 134.399 132.827C134.311 132.098 134.145 131.491 133.902 131.005C133.658 130.497 133.227 130.099 132.608 129.812C131.901 129.459 131.171 129.227 130.42 129.116C129.668 129.006 128.717 128.94 127.568 128.918ZM119.443 119.508C120.394 119.243 120.891 119.099 120.936 119.077C122.616 118.304 124.65 118.083 127.037 118.415C130.751 118.945 132.807 119.243 133.205 119.309C135.527 119.663 137.627 120.634 139.506 122.225C140.125 122.733 140.943 123.727 141.96 125.207C144.104 128.277 145.188 131.336 145.21 134.384C145.232 136.814 144.768 138.879 143.817 140.58C142.866 142.259 141.352 143.695 139.274 144.887C138.08 145.572 136.82 146.069 135.493 146.378C134.189 146.687 132.686 146.908 130.983 147.041C130.608 147.085 129.845 147.162 128.695 147.273C127.546 147.383 126.661 147.461 126.042 147.505C125.777 147.527 125.412 147.516 124.948 147.472C124.506 147.427 124.207 147.405 124.053 147.405C123.854 147.383 123.577 147.383 123.224 147.405C122.892 147.45 122.649 147.472 122.494 147.472C121.964 147.472 121.654 147.427 121.566 147.339C120.814 146.654 120.427 146.036 120.405 145.484C120.118 140.315 119.93 136.737 119.841 134.749C119.731 132.098 119.554 127.283 119.311 120.303C119.311 120.259 119.355 119.994 119.443 119.508ZM155.789 133.49C155.811 133.689 155.844 133.987 155.888 134.384C155.933 134.76 155.977 135.08 156.021 135.345C156.065 135.61 156.132 135.853 156.22 136.074C156.286 136.273 156.441 136.461 156.684 136.637C156.95 136.792 157.182 136.869 157.381 136.869C157.558 136.869 157.757 136.792 157.978 136.637C158.221 136.461 158.398 136.273 158.508 136.074C158.796 135.544 158.928 134.937 158.906 134.252C158.884 133.678 158.829 132.86 158.74 131.8C158.674 130.718 158.63 129.945 158.608 129.481C158.586 129.127 158.453 128.906 158.21 128.818C157.989 128.73 157.79 128.752 157.613 128.884C156.928 129.194 156.53 129.58 156.419 130.044C156.309 130.375 156.22 130.74 156.154 131.137C156.087 131.513 156.01 131.955 155.922 132.463C155.855 132.949 155.811 133.291 155.789 133.49ZM157.712 118.547C159.591 118.37 160.586 118.282 160.697 118.282C161.802 118.194 162.863 118.337 163.88 118.713C164.919 119.066 165.859 119.729 166.699 120.701C167.539 121.65 168.081 122.832 168.324 124.246C169.054 128.332 168.998 131.877 168.158 134.881C167.451 137.355 166.754 139.851 166.069 142.369C165.273 145.241 163.25 146.809 160 147.074C159.094 147.14 158.309 147.24 157.646 147.372C157.093 147.461 156.53 147.516 155.955 147.538C155.402 147.56 154.838 147.527 154.264 147.438C153.711 147.35 153.202 147.251 152.738 147.14C152.274 147.03 151.743 146.864 151.146 146.643C150.549 146.422 150.052 146.235 149.654 146.08C149.256 145.925 148.737 145.705 148.096 145.417C147.565 145.197 147.156 144.832 146.869 144.324C146.581 143.816 146.349 143.198 146.172 142.469C145.288 139.155 145.078 135.853 145.542 132.562C146.028 129.05 147.543 125.45 150.085 121.761C150.284 121.474 150.538 121.209 150.848 120.966C151.157 120.723 151.533 120.458 151.975 120.171C152.418 119.883 152.738 119.674 152.937 119.541C154.131 118.635 155.723 118.304 157.712 118.547ZM195.021 122.556C194.379 123.705 194.048 124.312 194.026 124.378C192.743 126.587 191.97 127.901 191.704 128.321C191.395 128.785 190.897 129.039 190.212 129.083C189.549 129.105 189.018 128.918 188.62 128.52C188.046 127.968 187.095 127.537 185.768 127.228C184.199 126.874 182.961 126.841 182.054 127.128C180.573 127.592 179.368 128.2 178.44 128.951C177.533 129.68 176.959 130.718 176.715 132.065C176.45 133.589 176.527 134.76 176.948 135.577C177.544 136.659 178.506 137.554 179.833 138.261C180.916 138.835 182.353 138.901 184.144 138.46C184.851 138.283 185.194 137.841 185.172 137.134C185.149 136.494 185.216 135.699 185.371 134.749C185.393 134.638 185.47 134.517 185.603 134.384C185.735 134.252 185.857 134.186 185.967 134.186C187.78 134.208 189.516 134.263 191.174 134.351C191.395 134.351 191.583 134.395 191.738 134.484C191.892 134.55 192.036 134.694 192.169 134.914C192.301 135.135 192.379 135.279 192.401 135.345C192.445 135.411 192.533 135.599 192.666 135.908C192.909 136.461 193.009 137.035 192.964 137.631C192.788 139.906 192.567 141.939 192.301 143.728C192.213 144.302 191.948 145.086 191.505 146.08C191.417 146.279 191.141 146.433 190.676 146.544C190.522 146.588 190.289 146.643 189.98 146.71C189.693 146.798 189.449 146.864 189.25 146.908C189.074 146.975 188.852 147.019 188.587 147.041C188.344 147.085 188.112 147.107 187.891 147.107C184.685 146.975 181.9 146.765 179.534 146.478C179.203 146.433 178.86 146.345 178.506 146.213C178.174 146.08 177.777 145.903 177.312 145.682C176.87 145.462 176.539 145.307 176.317 145.219C176.163 145.152 175.942 145.053 175.654 144.92C175.367 144.788 175.168 144.7 175.057 144.655C172.891 143.706 171.1 142.071 169.685 139.752C169.486 139.42 169.32 138.725 169.188 137.664C169.011 136.185 168.878 134.782 168.79 133.457C168.812 133.147 168.801 132.96 168.757 132.893C168.735 132.827 168.757 132.65 168.823 132.363C168.889 132.054 168.911 131.866 168.889 131.8C168.889 131.734 168.934 131.557 169.022 131.27C169.11 130.983 169.155 130.806 169.155 130.74C169.177 130.674 169.232 130.497 169.32 130.21C169.409 129.923 169.464 129.757 169.486 129.713C169.508 129.646 169.575 129.47 169.685 129.183C169.796 128.873 169.851 128.697 169.851 128.652C170.912 125.693 172.692 123.164 175.19 121.065C176.627 119.85 178.23 119.155 179.998 118.978C180.131 118.956 180.617 118.878 181.457 118.746C182.32 118.613 182.983 118.547 183.447 118.547C184.309 118.547 185.525 118.702 187.095 119.011C188.488 119.276 190.179 119.652 192.169 120.137C192.655 120.27 192.942 120.48 193.031 120.767C193.208 121.297 193.65 121.706 194.357 121.993C194.446 122.037 194.534 122.092 194.623 122.159C194.711 122.225 194.788 122.302 194.855 122.39C194.943 122.479 194.998 122.534 195.021 122.556Z" fill="url(#paint0_linear_264_216)"/>
  <path d="M31.6509 127.183C31.5646 127.365 31.2204 128.71 31.7095 128.296C31.8705 128.16 31.9086 127.949 31.9225 127.748C31.928 127.668 31.8464 127.1 31.8464 127.34" stroke="#F8D259" stroke-linecap="round"/>
  <path d="M34.9394 130.08C34.4248 129.884 33.7444 129.949 33.2235 130.08C33.1387 130.101 33.0207 130.279 33.1474 130.323C33.5656 130.467 34.7885 130.697 35.096 130.236" stroke="#F8D259" stroke-linecap="round"/>
  <path d="M36.9355 126.833C36.4501 126.93 36.3808 128.224 36.8659 128.35C37.455 128.502 37.2487 127.13 37.2487 126.872" stroke="#F8D259" stroke-linecap="round"/>
  <path d="M181.143 102.137C194.93 95.3177 208.431 92.3188 211.442 105.872C215.099 122.325 203.888 118.843 211.442 135.463C218.997 152.083 212.72 164.028 195.137 164.028C173.759 164.028 149.49 161.799 126.78 161.799C100.204 161.799 73.1299 164.028 46.643 164.028C34.4039 164.028 3 171.833 3 154.137C3 147.643 10.0522 143.75 9.68709 137.543C9.28867 130.77 3 126.398 3 117.383C3 98.5679 18.081 98.1667 33.4914 105.872" stroke="#222222" stroke-width="6" stroke-linecap="round"/>
  <path d="M80.5 28L85 33.5L103.45 29.8262L113 30.5L118.5 33.5L125 30.5L136 21.5L148 24.5L153.5 47.5L151.669 56.8711L155.114 63.5V70.3936H164.5L172.335 73.7742L179.223 80.5354L182 87.5L182.667 94.0578L179.223 107.58L177 112.5L168.89 107.58L162.002 110.961L158.558 104.2L155.114 110L148 109L142 103L144.781 90.6772L131.004 100.819L110.339 97.4384L106.894 90.6772H103.45L98.5 100.819L85 105L65.5638 94.0578L58.6753 107.58H51.7869L45 115L38.01 107.58L31 110.961L26 97.4384L33.5 78.5L51.7869 73.7742L55.2311 67.0129L57 58L53.5 50L55.2311 36.5L65.5638 24.5L80.5 28Z" fill="#F8D259"/>
  <path d="M64.7783 90.0331C64.7783 103.881 101.51 105.061 101.51 92.3344" stroke="#F8D259" stroke-width="3" stroke-linecap="round"/>
  <path d="M106.211 90.96C107.851 105.447 145.282 102.04 145.282 86.3946" stroke="#F8D259" stroke-width="3" stroke-linecap="round"/>
  <path d="M145.282 88.2206C145.864 93.3592 142.972 109.21 150.573 109.21C154.853 109.21 163.172 98.1265 159.344 100.005" stroke="#F8D259" stroke-width="3" stroke-linecap="round"/>
  <path d="M158.561 99.239C158.561 111.737 169.503 112.11 169.503 100.773" stroke="#F8D259" stroke-width="3" stroke-linecap="round"/>
  <path d="M168.722 100.774C168.722 104.852 175.294 111.967 179.272 108.061C181.77 105.61 183.567 93.8631 183.571 93.8701" stroke="#F8D259" stroke-width="3" stroke-linecap="round"/>
  <path d="M63.9964 89.2664C63.8633 88.2214 63.907 103.588 59.9151 107.506C53.1324 114.164 51.4919 98.248 51.4919 99.2386" stroke="#F8D259" stroke-width="3" stroke-linecap="round"/>
  <path d="M50.7103 98.4718C50.7103 117.349 38.9874 117.144 38.9874 98.4718" stroke="#F8D259" stroke-width="3" stroke-linecap="round"/>
  <path d="M76.5361 44.3055C70.5096 53.7291 48.5971 67.4016 53.2903 42.9945C53.9902 39.3544 60.5185 26.3789 65.5 24.912C75.9612 23.4452 85.5247 33.1462 85.5247 33.1462C91.7292 31.2936 107.358 28.6999 120.236 33.1462" stroke="#F8D259" stroke-width="3" stroke-linecap="round"/>
  <path d="M120.791 32.8724C120.791 32.8724 135.026 20.4342 142 21.4121C150.469 23.3679 149.655 31.3145 151.277 34.6591C161 63.912 137.139 46.1306 128.864 38.5264" stroke="#F8D259" stroke-width="3" stroke-linecap="round"/>
  <path d="M28.9986 95.5252C28.9986 84.7927 43.5241 70.9034 54.3761 75.6778C60.8367 78.5202 64.3488 85.9495 64.3488 92.7859" stroke="#F8D259" stroke-width="3" stroke-linecap="round"/>
  <path d="M183.423 95.5264C183.423 86.5575 181.201 78.676 172.389 74.0943C159.943 67.6224 145.282 70.4647 145.282 86.6233" stroke="#F8D259" stroke-width="3" stroke-linecap="round"/>
  <path d="M156.446 70.8727C156.446 67.9499 153.817 57.7849 150.864 56.2633" stroke="#F8D259" stroke-width="3" stroke-linecap="round"/>
  <path d="M116.547 75.8468C119.959 79.1961 115.192 88.778 110.596 90.3674C104.147 100.663 79.5802 76.9581 96.8348 76.0173C101.978 75.7368 112.043 71.4266 116.547 75.8468Z" fill="#222222"/>
  <path d="M37.4248 98.4715C37.4248 119.52 22.4674 105.151 29.6095 94.636" stroke="#F8D259" stroke-width="3" stroke-linecap="round"/>
  <ellipse cx="83.4047" cy="68.1419" rx="3.59643" ry="2.88819" fill="#222222"/>
  <ellipse cx="122.639" cy="68.1419" rx="3.59643" ry="2.88819" fill="#222222"/>
  <path d="M52.2552 74.5245C52.2552 70.0636 56.6028 68.5999 57.8369 65.3936" stroke="#F8D259" stroke-linecap="round"/>
  <path d="M126.825 35.912C126.825 35.912 131.909 43.4799 133.305 44.6662C135.385 46.4326 137.429 48.2623 139.919 49.4759C143.269 51.1082 152.919 55.7678 156 51.412" stroke="#222222" stroke-width="5" stroke-linecap="round"/>
  <path d="M55.2717 59.3297C57.721 59.8784 60.7763 59.1435 63.0625 58.2778C66.7926 56.8653 69.5123 54.476 72.5363 52.0138C74.8274 50.1482 76.6663 47.933 78.5164 45.6616C79.1984 44.8243 81.1857 42.1087 81.1857 42.1087" stroke="#222222" stroke-width="5" stroke-linecap="round"/>
  <path d="M47.7166 70.3209C53.8132 70.3209 61.7221 76.9708 64.3193 82.0692C67.1759 87.677 67.4081 94.4577 67.4081 100.639" stroke="#222222" stroke-width="5" stroke-linecap="round"/>
  <path d="M159.847 67.0444C149.094 67.0444 144.897 80.4402 142.783 89.2005C142.431 90.6599 141.004 99.5717 140.974 99.5521" stroke="#222222" stroke-width="5" stroke-linecap="round"/>
  <path d="M52.2419 109.982C52.2419 111.687 56.3191 111.897 57.3846 111.897C59.8882 111.897 61.6743 109.83 63.1035 108.116C64.7537 106.136 66.4324 102.312 67.2265 99.9739" stroke="#222222" stroke-width="5" stroke-linecap="round"/>
  <path d="M37.6121 110.331C37.6121 118.289 52.5 116.5 52.5 105" stroke="#222222" stroke-width="5" stroke-linecap="round"/>
  <path d="M25.1988 95.1886C25.1988 100.011 23.7021 108.524 28.9227 111.371C32.0455 113.074 37 114.5 40.5 105.5" stroke="#222222" stroke-width="5" stroke-linecap="round"/>
  <path d="M25.0213 95.1881C25.0213 89.6553 28.0295 84.2311 31.6515 80.0452C34.0073 77.3226 36.7093 75.2892 39.7792 73.3972C40.975 72.6602 45.4105 71.6981 45.9464 70.6461" stroke="#222222" stroke-width="5" stroke-linecap="round"/>
  <path d="M68.1077 99.263C73.3497 103.894 82.8959 105.618 89.7076 104.574C93.3602 104.014 96.1708 103.005 99.0613 100.817C100.382 99.8165 103.724 97.4806 103.724 95.7036" stroke="#222222" stroke-width="5" stroke-linecap="round"/>
  <path d="M103.335 93.5428C103.335 98.3717 108.238 101.155 112.372 102.314C116.211 103.391 120.572 103.331 124.547 103.331C127.855 103.331 139.941 100.889 141.5 97" stroke="#222222" stroke-width="5" stroke-linecap="round"/>
  <path d="M140.777 98.6616C140.777 104.084 142.232 108.963 147.528 111.563C150.052 112.801 159.5 113.5 159.5 101.5" stroke="#222222" stroke-width="5" stroke-linecap="round"/>
  <path d="M158.158 108.249C158.158 113.605 170 113.5 174 103.5" stroke="#222222" stroke-width="5" stroke-linecap="round"/>
  <path d="M170.113 109.564C179.223 118.321 184.335 106.194 185.821 100.36" stroke="#222222" stroke-width="5" stroke-linecap="round"/>
  <path d="M176.56 71.7125C180.378 71.7125 184.723 82.9547 185.261 85.7489C185.898 89.0658 186.407 92.0852 186.407 95.5028C186.407 96.5211 186.577 100.967 185.703 101.396" stroke="#222222" stroke-width="5" stroke-linecap="round"/>
  <path d="M121.307 29.793C123.879 27.4777 126.311 25.1727 129.186 23.2564C132.791 20.8527 136.719 18.5 141 18.5C143.288 18.5 145.498 19.2717 147.5 20.5C149.947 22.0013 151.201 25.7499 152.611 28.1677C155.436 33.0092 157.151 38.7951 156.286 44.4208" stroke="#222222" stroke-width="5" stroke-linecap="round"/>
  <path d="M156.286 46.3288C156.286 47.5124 156.368 48.584 155.968 49.6854C155.555 50.8219 154.845 51.4374 154.378 52.3707" stroke="#222222" stroke-width="5" stroke-linecap="round"/>
  <path d="M119.399 31.065C114.197 28.5386 108.205 28.5211 102.545 28.5211C99.7516 28.5211 97.0196 28.5418 94.2769 29.1747C92.3261 29.6249 90.1889 29.8965 88.553 31.065" stroke="#222222" stroke-width="5" stroke-linecap="round"/>
  <path d="M55.1635 60.6385C55.1635 63.2618 53.2556 65.2306 53.2556 67.9524" stroke="#222222" stroke-width="5" stroke-linecap="round"/>
  <path d="M154.378 53.9606C156.079 56.0872 156.585 59.4912 156.993 62.0872C157.222 63.5508 157.631 66.5172 158.83 67.3164" stroke="#222222" stroke-width="5" stroke-linecap="round"/>
  <path d="M162.01 67.9525C163.541 67.9525 164.96 68.1838 166.462 68.2704C168.072 68.3633 171.085 69.4557 172.362 70.4257C173.907 71.5982 175.755 72.1572 177.344 73.217C178.048 73.6861 178.763 74.262 179.5 74.6304" stroke="#222222" stroke-width="5" stroke-linecap="round"/>
  <path d="M54.2112 59.1397C53.5649 59.1397 52.8722 58.7107 52.4875 58.2065C52.1411 57.7527 51.9333 57.2037 51.5802 56.742C51.1048 56.1203 50.753 55.6633 50.5434 54.8821C50.1162 53.2901 49.4116 51.8463 49.1047 50.2098C48.9461 49.364 48.9622 48.5121 48.9622 47.6566C48.9622 46.3487 48.8994 45.1143 49.4028 43.8785C50.4475 41.3143 51.4676 38.7241 52.6883 36.2318C53.7528 34.0584 54.9222 31.5746 56.5182 29.745C57.3499 28.7916 58.2386 27.8803 59.227 27.088C60.6616 25.938 61.8973 24.4408 63.4975 23.5239" stroke="#222222" stroke-width="5" stroke-linecap="round"/>
  <path d="M62.0265 24.7292C62.0621 24.4447 62.8092 24.0825 63.0115 23.9516C63.8575 23.4042 64.7507 22.4768 65.7592 22.3056C67.5869 21.9952 69.5647 20.9981 71.3841 21.9816C72.8607 22.7798 74.567 23.2491 75.9333 24.2367C77.4134 25.3067 79.156 26.1169 80.7676 26.9714C82.6204 27.9538 84.4796 28.8579 86.4054 29.6802" stroke="#222222" stroke-width="5" stroke-linecap="round"/>
  <defs>
    <linearGradient id="paint0_linear_264_216" x1="29.2412" y1="132.195" x2="140.29" y2="132.195" gradientUnits="userSpaceOnUse">
      <stop stop-color="#494949"/>
      <stop offset="1" stop-color="#222222"/>
    </linearGradient>
  </defs>
</svg>