<svg width="218" height="153" viewBox="0 0 218 153" fill="none" xmlns="http://www.w3.org/2000/svg">
<path d="M211.442 89.8719C208.431 76.3188 194.93 79.3177 181.143 86.1367L104 74.5L33.4914 89.8719C18.081 82.1667 3 82.5679 3 101.383C3 110.398 9.28867 114.77 9.68709 121.543C10.0522 127.75 3 131.643 3 138.137C3 155.833 34.4039 148.028 46.643 148.028C73.1299 148.028 100.204 145.799 126.78 145.799C149.49 145.799 173.759 148.028 195.137 148.028C212.72 148.028 218.997 136.083 211.442 119.463C203.888 102.843 215.099 106.325 211.442 89.8719Z" fill="#F8D259" stroke="#222222" stroke-width="6" stroke-linecap="round"/>
<path d="M29.2678 114.872L22.536 115.369C22.4255 113.58 22.3702 112.63 22.3702 112.52C22.326 111.416 22.2708 109.869 22.2044 107.881C22.1602 105.871 22.1271 104.48 22.105 103.707C22.0607 102.492 22.6245 101.895 23.7962 101.918C24.4815 101.94 25.5869 101.995 27.1123 102.083C28.6378 102.172 29.7984 102.227 30.5943 102.249C31.5228 102.271 33.0261 102.282 35.1042 102.282C37.2045 102.26 38.7188 102.271 39.6474 102.315C40.7085 102.337 42.2229 102.503 44.1905 102.812C44.6989 102.878 45.0306 103.022 45.1853 103.243C45.3622 103.442 45.4396 103.806 45.4174 104.336C45.4174 104.734 45.3843 105.297 45.318 106.026C45.2516 106.755 45.2074 107.263 45.1853 107.55C45.1632 107.727 45.1411 108.699 45.119 110.466C45.0969 111.924 45.0858 112.697 45.0858 112.785C45.0858 112.873 45.0085 113.68 44.8537 115.204C42.0239 115.425 40.4874 115.546 40.2443 115.568C39.6474 115.612 39.2605 115.734 39.0836 115.933C38.9289 116.109 38.8846 116.485 38.951 117.059C39.0836 117.965 39.161 118.97 39.1831 120.074C39.2052 121.156 39.1941 122.051 39.1499 122.758C39.1278 123.465 39.0615 124.492 38.951 125.839C38.8404 127.187 38.7741 128.125 38.752 128.655C38.752 128.722 38.752 129.362 38.752 130.577L28.8367 131.737C28.9915 125.994 29.1352 120.372 29.2678 114.872ZM56.4991 117.49C56.5212 117.689 56.5543 117.987 56.5986 118.384C56.6428 118.76 56.687 119.08 56.7312 119.345C56.7754 119.61 56.8417 119.853 56.9302 120.074C56.9965 120.273 57.1512 120.461 57.3944 120.637C57.6597 120.792 57.8918 120.869 58.0908 120.869C58.2677 120.869 58.4667 120.792 58.6877 120.637C58.9309 120.461 59.1078 120.273 59.2183 120.074C59.5057 119.544 59.6384 118.937 59.6162 118.252C59.5941 117.678 59.5389 116.86 59.4504 115.8C59.3841 114.718 59.3399 113.945 59.3178 113.481C59.2957 113.127 59.163 112.906 58.9199 112.818C58.6988 112.73 58.4998 112.752 58.3229 112.884C57.6376 113.194 57.2397 113.58 57.1291 114.044C57.0186 114.375 56.9302 114.74 56.8638 115.137C56.7975 115.513 56.7201 115.955 56.6317 116.463C56.5654 116.949 56.5212 117.291 56.4991 117.49ZM58.4224 102.547C60.3016 102.37 61.2964 102.282 61.407 102.282C62.5123 102.194 63.5735 102.337 64.5905 102.713C65.6295 103.066 66.5691 103.729 67.4092 104.701C68.2493 105.65 68.7909 106.832 69.0341 108.246C69.7636 112.332 69.7084 115.877 68.8683 118.881C68.1608 121.355 67.4645 123.851 66.7791 126.369C65.9832 129.241 63.9604 130.809 60.7106 131.074C59.8042 131.14 59.0193 131.24 58.3561 131.372C57.8034 131.461 57.2397 131.516 56.6649 131.538C56.1122 131.56 55.5484 131.527 54.9736 131.438C54.421 131.35 53.9125 131.251 53.4482 131.14C52.984 131.03 52.4534 130.864 51.8565 130.643C51.2596 130.422 50.7621 130.235 50.3642 130.08C49.9663 129.925 49.4467 129.705 48.8056 129.417C48.275 129.197 47.866 128.832 47.5786 128.324C47.2912 127.816 47.0591 127.198 46.8822 126.469C45.9979 123.155 45.7879 119.853 46.2522 116.562C46.7386 113.05 48.2529 109.45 50.7953 105.761C50.9943 105.474 51.2485 105.209 51.558 104.966C51.8675 104.723 52.2433 104.458 52.6855 104.171C53.1277 103.883 53.4482 103.674 53.6472 103.541C54.841 102.635 56.4327 102.304 58.4224 102.547ZM95.7306 106.556C95.0895 107.705 94.7579 108.312 94.7358 108.378C93.4535 110.587 92.6798 111.901 92.4145 112.321C92.105 112.785 91.6075 113.039 90.9222 113.083C90.259 113.105 89.7284 112.918 89.3305 112.52C88.7557 111.968 87.805 111.537 86.4786 111.228C84.9089 110.874 83.6709 110.841 82.7645 111.128C81.2833 111.592 80.0784 112.2 79.1499 112.951C78.2435 113.68 77.6687 114.718 77.4255 116.065C77.1602 117.589 77.2376 118.76 77.6576 119.577C78.2545 120.659 79.2162 121.554 80.5427 122.261C81.6259 122.835 83.0629 122.901 84.8537 122.46C85.5611 122.283 85.9038 121.841 85.8817 121.134C85.8596 120.494 85.9259 119.699 86.0806 118.749C86.1027 118.638 86.1801 118.517 86.3128 118.384C86.4454 118.252 86.567 118.186 86.6775 118.186C88.4904 118.208 90.2258 118.263 91.8839 118.351C92.105 118.351 92.2929 118.395 92.4476 118.484C92.6024 118.55 92.7461 118.694 92.8787 118.914C93.0114 119.135 93.0888 119.279 93.1109 119.345C93.1551 119.411 93.2435 119.599 93.3762 119.908C93.6193 120.461 93.7188 121.035 93.6746 121.631C93.4977 123.906 93.2767 125.939 93.0114 127.728C92.9229 128.302 92.6576 129.086 92.2155 130.08C92.1271 130.279 91.8507 130.433 91.3865 130.544C91.2317 130.588 90.9996 130.643 90.6901 130.71C90.4027 130.798 90.1595 130.864 89.9605 130.908C89.7837 130.975 89.5626 131.019 89.2973 131.041C89.0541 131.085 88.822 131.107 88.6009 131.107C85.3953 130.975 82.6097 130.765 80.2442 130.478C79.9126 130.433 79.5699 130.345 79.2162 130.213C78.8846 130.08 78.4867 129.903 78.0224 129.682C77.5802 129.462 77.2486 129.307 77.0276 129.219C76.8728 129.152 76.6517 129.053 76.3643 128.92C76.0769 128.788 75.878 128.7 75.7674 128.655C73.6009 127.706 71.8102 126.071 70.3953 123.752C70.1963 123.42 70.0305 122.725 69.8978 121.664C69.721 120.185 69.5883 118.782 69.4999 117.457C69.522 117.147 69.511 116.96 69.4667 116.893C69.4446 116.827 69.4667 116.65 69.5331 116.363C69.5994 116.054 69.6215 115.866 69.5994 115.8C69.5994 115.734 69.6436 115.557 69.732 115.27C69.8205 114.983 69.8647 114.806 69.8647 114.74C69.8868 114.674 69.9421 114.497 70.0305 114.21C70.1189 113.923 70.1742 113.757 70.1963 113.713C70.2184 113.646 70.2847 113.47 70.3953 113.183C70.5058 112.873 70.5611 112.697 70.5611 112.652C71.6222 109.693 73.4019 107.164 75.9001 105.065C77.3371 103.85 78.9399 103.155 80.7085 102.978C80.8411 102.956 81.3275 102.878 82.1676 102.746C83.0298 102.613 83.693 102.547 84.1573 102.547C85.0195 102.547 86.2354 102.702 87.805 103.011C89.1978 103.276 90.889 103.652 92.8787 104.137C93.3651 104.27 93.6525 104.48 93.7409 104.767C93.9178 105.297 94.3599 105.706 95.0674 105.993C95.1558 106.037 95.2442 106.092 95.3327 106.159C95.4211 106.225 95.4985 106.302 95.5648 106.39C95.6532 106.479 95.7085 106.534 95.7306 106.556ZM106.21 119.677C106.409 121.93 106.542 123.255 106.608 123.652C106.63 123.763 106.752 123.873 106.973 123.984C107.216 124.094 107.426 124.149 107.603 124.149C108.598 124.149 110.024 124.127 111.881 124.083C113.738 124.039 115.031 124.017 115.761 124.017C116.181 124.017 116.778 124.083 117.552 124.216C117.994 124.282 118.16 124.569 118.049 125.077C117.806 126.402 117.651 127.407 117.585 128.092C117.474 129.395 116.822 130.202 115.628 130.511C113.55 131.041 111.052 131.273 108.134 131.207C107.736 131.184 105.348 131.162 100.971 131.14C99.8213 131.14 99.0033 130.93 98.5169 130.511C98.0527 130.113 97.7321 129.34 97.5553 128.192C97.2236 125.916 97.0136 123.973 96.9252 122.36C96.7705 119.688 96.7705 117.666 96.9252 116.297C97.1021 114.751 97.6105 111.692 98.4506 107.119C98.5391 106.611 98.8044 105.783 99.2465 104.634C99.4897 103.972 99.8766 103.629 100.407 103.607C100.761 103.607 101.402 103.563 102.331 103.475C103.259 103.386 103.966 103.342 104.453 103.342C106.73 103.364 108.908 103.088 110.986 102.514C111.428 102.492 111.682 102.481 111.748 102.481C111.837 102.459 112.113 102.481 112.577 102.547C113.042 102.613 113.318 102.646 113.406 102.646C113.76 102.691 114.136 102.746 114.534 102.812C114.932 102.856 115.374 102.912 115.86 102.978C116.347 103.044 116.734 103.099 117.021 103.143C117.53 103.21 117.784 103.53 117.784 104.104C117.762 104.634 117.751 105.385 117.751 106.357C117.751 107.307 117.751 108.058 117.751 108.61C117.751 109.118 117.574 109.538 117.22 109.869C116.888 110.179 116.468 110.333 115.96 110.333C115.916 110.333 115.175 110.322 113.738 110.3C112.323 110.256 111.594 110.256 111.549 110.3C110.422 110.388 109.173 110.609 107.802 110.963C107.625 111.007 107.448 111.393 107.272 112.122C107.249 112.189 107.294 112.288 107.404 112.421C107.515 112.553 107.614 112.63 107.703 112.652C109.073 112.94 110.09 113.105 110.754 113.149C111.483 113.216 112.5 113.282 113.804 113.348C115.131 113.414 116.026 113.459 116.49 113.481C116.933 113.503 117.242 113.613 117.419 113.812C117.596 113.989 117.673 114.287 117.651 114.707C117.651 116.65 117.618 118.031 117.552 118.848C117.53 119.025 117.452 119.213 117.319 119.411C117.187 119.588 117.032 119.721 116.855 119.809C116.28 120.074 115.672 120.24 115.031 120.306C114.169 120.372 113.307 120.405 112.445 120.405C110.831 120.405 109.206 120.284 107.57 120.041C107.548 120.019 107.095 119.897 106.21 119.677ZM127.568 112.918C127.966 116.915 128.187 119.224 128.231 119.842C128.297 120.439 128.629 120.715 129.226 120.67C129.425 120.67 129.867 120.682 130.552 120.704C131.238 120.726 131.68 120.704 131.879 120.637C132.564 120.527 133.117 120.24 133.537 119.776C134.244 119.025 134.532 118.042 134.399 116.827C134.311 116.098 134.145 115.491 133.902 115.005C133.659 114.497 133.227 114.099 132.608 113.812C131.901 113.459 131.171 113.227 130.42 113.116C129.668 113.006 128.718 112.94 127.568 112.918ZM119.443 103.508C120.394 103.243 120.891 103.099 120.936 103.077C122.616 102.304 124.65 102.083 127.037 102.415C130.751 102.945 132.807 103.243 133.205 103.309C135.527 103.663 137.627 104.634 139.506 106.225C140.125 106.733 140.943 107.727 141.96 109.207C144.104 112.277 145.188 115.336 145.21 118.384C145.232 120.814 144.768 122.879 143.817 124.58C142.866 126.259 141.352 127.695 139.274 128.887C138.08 129.572 136.82 130.069 135.494 130.378C134.189 130.687 132.686 130.908 130.984 131.041C130.608 131.085 129.845 131.162 128.695 131.273C127.546 131.383 126.662 131.461 126.043 131.505C125.777 131.527 125.412 131.516 124.948 131.472C124.506 131.427 124.208 131.405 124.053 131.405C123.854 131.383 123.577 131.383 123.224 131.405C122.892 131.45 122.649 131.472 122.494 131.472C121.964 131.472 121.654 131.427 121.566 131.339C120.814 130.654 120.427 130.036 120.405 129.484C120.118 124.315 119.93 120.737 119.841 118.749C119.731 116.098 119.554 111.283 119.311 104.303C119.311 104.259 119.355 103.994 119.443 103.508ZM155.789 117.49C155.811 117.689 155.844 117.987 155.889 118.384C155.933 118.76 155.977 119.08 156.021 119.345C156.065 119.61 156.132 119.853 156.22 120.074C156.287 120.273 156.441 120.461 156.684 120.637C156.95 120.792 157.182 120.869 157.381 120.869C157.558 120.869 157.757 120.792 157.978 120.637C158.221 120.461 158.398 120.273 158.508 120.074C158.796 119.544 158.928 118.937 158.906 118.252C158.884 117.678 158.829 116.86 158.74 115.8C158.674 114.718 158.63 113.945 158.608 113.481C158.586 113.127 158.453 112.906 158.21 112.818C157.989 112.73 157.79 112.752 157.613 112.884C156.928 113.194 156.53 113.58 156.419 114.044C156.309 114.375 156.22 114.74 156.154 115.137C156.088 115.513 156.01 115.955 155.922 116.463C155.855 116.949 155.811 117.291 155.789 117.49ZM157.712 102.547C159.592 102.37 160.586 102.282 160.697 102.282C161.802 102.194 162.864 102.337 163.88 102.713C164.92 103.066 165.859 103.729 166.699 104.701C167.539 105.65 168.081 106.832 168.324 108.246C169.054 112.332 168.998 115.877 168.158 118.881C167.451 121.355 166.754 123.851 166.069 126.369C165.273 129.241 163.25 130.809 160.001 131.074C159.094 131.14 158.309 131.24 157.646 131.372C157.093 131.461 156.53 131.516 155.955 131.538C155.402 131.56 154.838 131.527 154.264 131.438C153.711 131.35 153.202 131.251 152.738 131.14C152.274 131.03 151.743 130.864 151.146 130.643C150.55 130.422 150.052 130.235 149.654 130.08C149.256 129.925 148.737 129.705 148.096 129.417C147.565 129.197 147.156 128.832 146.869 128.324C146.581 127.816 146.349 127.198 146.172 126.469C145.288 123.155 145.078 119.853 145.542 116.562C146.029 113.05 147.543 109.45 150.085 105.761C150.284 105.474 150.539 105.209 150.848 104.966C151.158 104.723 151.533 104.458 151.976 104.171C152.418 103.883 152.738 103.674 152.937 103.541C154.131 102.635 155.723 102.304 157.712 102.547ZM195.021 106.556C194.38 107.705 194.048 108.312 194.026 108.378C192.744 110.587 191.97 111.901 191.705 112.321C191.395 112.785 190.898 113.039 190.212 113.083C189.549 113.105 189.018 112.918 188.62 112.52C188.046 111.968 187.095 111.537 185.769 111.228C184.199 110.874 182.961 110.841 182.055 111.128C180.573 111.592 179.368 112.2 178.44 112.951C177.534 113.68 176.959 114.718 176.716 116.065C176.45 117.589 176.528 118.76 176.948 119.577C177.545 120.659 178.506 121.554 179.833 122.261C180.916 122.835 182.353 122.901 184.144 122.46C184.851 122.283 185.194 121.841 185.172 121.134C185.15 120.494 185.216 119.699 185.371 118.749C185.393 118.638 185.47 118.517 185.603 118.384C185.735 118.252 185.857 118.186 185.968 118.186C187.78 118.208 189.516 118.263 191.174 118.351C191.395 118.351 191.583 118.395 191.738 118.484C191.892 118.55 192.036 118.694 192.169 118.914C192.301 119.135 192.379 119.279 192.401 119.345C192.445 119.411 192.534 119.599 192.666 119.908C192.909 120.461 193.009 121.035 192.965 121.631C192.788 123.906 192.567 125.939 192.301 127.728C192.213 128.302 191.948 129.086 191.506 130.08C191.417 130.279 191.141 130.433 190.676 130.544C190.522 130.588 190.29 130.643 189.98 130.71C189.693 130.798 189.45 130.864 189.251 130.908C189.074 130.975 188.853 131.019 188.587 131.041C188.344 131.085 188.112 131.107 187.891 131.107C184.685 130.975 181.9 130.765 179.534 130.478C179.203 130.433 178.86 130.345 178.506 130.213C178.175 130.08 177.777 129.903 177.312 129.682C176.87 129.462 176.539 129.307 176.318 129.219C176.163 129.152 175.942 129.053 175.654 128.92C175.367 128.788 175.168 128.7 175.057 128.655C172.891 127.706 171.1 126.071 169.685 123.752C169.486 123.42 169.321 122.725 169.188 121.664C169.011 120.185 168.878 118.782 168.79 117.457C168.812 117.147 168.801 116.96 168.757 116.893C168.735 116.827 168.757 116.65 168.823 116.363C168.889 116.054 168.912 115.866 168.889 115.8C168.889 115.734 168.934 115.557 169.022 115.27C169.111 114.983 169.155 114.806 169.155 114.74C169.177 114.674 169.232 114.497 169.321 114.21C169.409 113.923 169.464 113.757 169.486 113.713C169.508 113.646 169.575 113.47 169.685 113.183C169.796 112.873 169.851 112.697 169.851 112.652C170.912 109.693 172.692 107.164 175.19 105.065C176.627 103.85 178.23 103.155 179.999 102.978C180.131 102.956 180.618 102.878 181.458 102.746C182.32 102.613 182.983 102.547 183.447 102.547C184.31 102.547 185.525 102.702 187.095 103.011C188.488 103.276 190.179 103.652 192.169 104.137C192.655 104.27 192.943 104.48 193.031 104.767C193.208 105.297 193.65 105.706 194.357 105.993C194.446 106.037 194.534 106.092 194.623 106.159C194.711 106.225 194.789 106.302 194.855 106.39C194.943 106.479 194.999 106.534 195.021 106.556Z" fill="url(#paint0_linear_389_11636)"/>
<path d="M31.6508 111.183C31.5645 111.365 31.2203 112.71 31.7095 112.296C31.8704 112.16 31.9085 111.949 31.9224 111.748C31.928 111.668 31.8464 111.1 31.8464 111.34" stroke="#F8D259" stroke-linecap="round"/>
<path d="M34.9394 114.08C34.4248 113.884 33.7444 113.949 33.2235 114.08C33.1387 114.101 33.0207 114.279 33.1474 114.323C33.5656 114.467 34.7885 114.697 35.096 114.236" stroke="#F8D259" stroke-linecap="round"/>
<path d="M36.9353 110.833C36.4499 110.93 36.3805 112.224 36.8657 112.35C37.4547 112.502 37.2485 111.13 37.2485 110.872" stroke="#F8D259" stroke-linecap="round"/>
<path d="M80.5 12L85 13.8262H103.45L113 14.5L118.5 16L125 10L140 1.5L151.444 7.5L156.944 30.5L155.114 39.8711L158.558 46.5V52.5H167.944L175.779 55.8806L181.723 61.5354L184.5 68.5L185.167 75.0578L184.5 89L177 96.5L169.5 93L159.5 95L158.558 88.1997L155.114 94L148 96.5L142 87L139 83.5L131.004 84.819H112L106 81.4384H102.556L98.5 84.819L85 89L68 84.819L63.5 93L51.7869 96.5L45 99L37.5 94.9609H26.5L24.5 77L33.5 62.5L51.7869 54.3936L53.5 49V42.5L49.5 30.5L55.2311 14.5L69 5.5L80.5 12Z" fill="#FFE89F"/>
<path d="M116.547 59.8468C119.959 63.1961 115.192 72.778 110.596 74.3674C104.147 84.6634 79.58 60.9581 96.8347 60.0173C101.978 59.7368 112.043 55.4266 116.547 59.8468Z" fill="#222222"/>
<ellipse cx="83.4045" cy="52.1419" rx="3.59643" ry="2.88819" fill="#222222"/>
<ellipse cx="122.638" cy="52.1419" rx="3.59643" ry="2.88819" fill="#222222"/>
<path d="M126.825 19.912C126.825 19.912 131.909 27.4799 133.305 28.6662C135.385 30.4326 137.429 32.2623 139.919 33.4759C143.27 35.1082 152.919 39.7678 156 35.412" stroke="#222222" stroke-width="5" stroke-linecap="round"/>
<path d="M55.2717 43.3297C57.721 43.8785 60.7762 43.1436 63.0624 42.2778C66.7925 40.8653 69.5122 38.4761 72.5362 36.0138C74.8274 34.1483 76.6662 31.9331 78.5163 29.6617C79.1983 28.8244 81.1857 26.1087 81.1857 26.1087" stroke="#222222" stroke-width="5" stroke-linecap="round"/>
<path d="M47.7168 54.321C53.8134 54.321 61.7223 60.9709 64.3195 66.0693C67.1761 71.677 67.4083 78.4577 67.4083 84.6392" stroke="#222222" stroke-width="5" stroke-linecap="round"/>
<path d="M159.847 51.0444C149.094 51.0444 144.897 64.4402 142.783 73.2005C142.431 74.6599 141.004 83.5717 140.974 83.5521" stroke="#222222" stroke-width="5" stroke-linecap="round"/>
<path d="M52.2417 93.9822C52.2417 95.6868 56.3189 95.8968 57.3843 95.8968C59.8879 95.8968 61.674 93.8305 63.1033 92.1159C64.7534 90.1363 66.4321 86.3122 67.2262 83.9739" stroke="#222222" stroke-width="5" stroke-linecap="round"/>
<path d="M37.6123 94.3312C37.6123 102.289 52.5002 100.5 52.5002 89" stroke="#222222" stroke-width="5" stroke-linecap="round"/>
<path d="M25.1988 79.1887C25.1988 84.0111 23.7021 92.5243 28.9227 95.3711C32.0455 97.0739 37 98.5 40.5 89.5" stroke="#222222" stroke-width="5" stroke-linecap="round"/>
<path d="M25.0215 79.1881C25.0215 73.6553 28.0296 68.2312 31.6517 64.0452C34.0075 61.3227 36.7095 59.2892 39.7794 57.3972C40.9751 56.6603 45.4107 55.6981 45.9466 54.6462" stroke="#222222" stroke-width="5" stroke-linecap="round"/>
<path d="M68.1079 83.2631C73.3499 87.8937 82.896 89.6185 89.7077 88.5739C93.3603 88.0137 96.171 87.0053 99.0614 84.8168C100.382 83.8166 103.724 81.4806 103.724 79.7037" stroke="#222222" stroke-width="5" stroke-linecap="round"/>
<path d="M103.335 77.5429C103.335 82.3717 108.237 85.1547 112.372 86.3142C116.211 87.3908 120.571 87.3312 124.546 87.3312C127.855 87.3312 139.94 84.8894 141.5 81.0001" stroke="#222222" stroke-width="5" stroke-linecap="round"/>
<path d="M140.777 82.6617C140.777 88.0837 142.232 92.9635 147.528 95.5626C150.052 96.801 159.5 97.5 159.5 85.5" stroke="#222222" stroke-width="5" stroke-linecap="round"/>
<path d="M158.158 92.2488C158.158 97.6049 170 97.5 174 87.5" stroke="#222222" stroke-width="5" stroke-linecap="round"/>
<path d="M170.113 93.5644C179.223 102.321 184.334 90.1944 185.82 84.3602" stroke="#222222" stroke-width="5" stroke-linecap="round"/>
<path d="M176.561 55.7125C180.378 55.7125 184.724 66.9547 185.261 69.7489C185.898 73.0658 186.407 76.0852 186.407 79.5028C186.407 80.5211 186.577 84.9672 185.703 85.396" stroke="#222222" stroke-width="5" stroke-linecap="round"/>
<path d="M121.307 13.793C123.879 11.4777 126.312 9.17266 129.186 7.25645C132.791 4.85272 136.719 2.5 141 2.5C143.288 2.5 145.498 3.27171 147.5 4.5C149.947 6.00132 151.201 9.74995 152.611 12.1677C155.436 17.0092 157.152 22.7951 156.286 28.4208" stroke="#222222" stroke-width="5" stroke-linecap="round"/>
<path d="M156.286 30.3288C156.286 31.5124 156.368 32.584 155.968 33.6854C155.555 34.8219 154.845 35.4374 154.378 36.3707" stroke="#222222" stroke-width="5" stroke-linecap="round"/>
<path d="M119.398 15.065C114.197 12.5386 108.205 12.5211 102.545 12.5211C99.7514 12.5211 97.0193 12.5418 94.2766 13.1747C92.3258 13.6249 90.1886 13.8965 88.5527 15.065" stroke="#222222" stroke-width="5" stroke-linecap="round"/>
<path d="M55.1638 44.6385C55.1638 47.2618 53.2559 49.2306 53.2559 51.9524" stroke="#222222" stroke-width="5" stroke-linecap="round"/>
<path d="M154.378 37.9606C156.079 40.0872 156.585 43.4912 156.993 46.0872C157.222 47.5508 157.631 50.5172 158.83 51.3164" stroke="#222222" stroke-width="5" stroke-linecap="round"/>
<path d="M162.01 51.9525C163.541 51.9525 164.959 52.1838 166.462 52.2704C168.072 52.3633 171.085 53.4557 172.362 54.4257C173.906 55.5982 175.754 56.1572 177.344 57.217C178.048 57.6861 178.763 58.262 179.499 58.6304" stroke="#222222" stroke-width="5" stroke-linecap="round"/>
<path d="M54.2115 43.1397C53.5652 43.1397 52.8725 42.7107 52.4878 42.2065C52.1415 41.7527 51.9336 41.2037 51.5805 40.742C51.1051 40.1203 50.7533 39.6633 50.5437 38.8821C50.1165 37.2901 49.4119 35.8463 49.105 34.2098C48.9464 33.364 48.9625 32.5121 48.9625 31.6566C48.9625 30.3487 48.8997 29.1143 49.4031 27.8785C50.4478 25.3143 51.4679 22.7241 52.6886 20.2318C53.7531 18.0584 54.9225 15.5746 56.5185 13.745C57.3502 12.7916 58.2389 11.8803 59.2273 11.088C60.6619 9.93804 61.8976 8.44085 63.4978 7.52386" stroke="#222222" stroke-width="5" stroke-linecap="round"/>
<path d="M62.0264 8.72922C62.0619 8.44466 62.8091 8.08248 63.0114 7.95158C63.8573 7.40419 64.7506 6.47682 65.759 6.30558C67.5867 5.99522 69.5646 4.99815 71.3839 5.98157C72.8606 6.77976 74.5669 7.24906 75.9331 8.23672C77.4133 9.30672 79.1558 10.1169 80.7674 10.9714C82.6203 11.9538 84.4794 12.8579 86.4053 13.6802" stroke="#222222" stroke-width="5" stroke-linecap="round"/>
<defs>
<linearGradient id="paint0_linear_389_11636" x1="29.2414" y1="116.195" x2="140.29" y2="116.195" gradientUnits="userSpaceOnUse">
<stop stop-color="#494949"/>
<stop offset="1" stop-color="#222222"/>
</linearGradient>
</defs>
</svg>
