<!-- Logo version2 component -->
<svg xmlns="http://www.w3.org/2000/svg" width="158" height="93" viewBox="0 0 158 93" fill="none">
  <path d="M6.54712 76.8994L0.396111 77.3535C0.295109 75.7187 0.244608 74.8509 0.244608 74.75C0.204207 73.7408 0.153706 72.328 0.0931052 70.5116C0.0527044 68.675 0.0224039 67.4035 0.00220367 66.6971C-0.038197 65.5871 0.476912 65.0421 1.54753 65.0623C2.17374 65.0825 3.18376 65.1329 4.57758 65.2137C5.97141 65.2944 7.03192 65.3449 7.75914 65.365C8.60755 65.3852 9.98117 65.3953 11.88 65.3953C13.799 65.3751 15.1828 65.3852 16.0312 65.4256C17.0008 65.4458 18.3845 65.5971 20.1823 65.8797C20.647 65.9403 20.95 66.0714 21.0914 66.2733C21.253 66.4549 21.3237 66.7879 21.3035 67.2723C21.3035 67.6356 21.2732 68.1502 21.2126 68.8163C21.152 69.4823 21.1116 69.9465 21.0914 70.2089C21.0712 70.3703 21.051 71.2584 21.0308 72.873C21.0106 74.205 21.0005 74.9114 21.0005 74.9922C21.0005 75.0729 20.9298 75.8095 20.7884 77.2021C18.2027 77.404 16.7988 77.515 16.5766 77.5352C16.0312 77.5755 15.6777 77.6865 15.5161 77.8682C15.3747 78.0296 15.3343 78.3727 15.3949 78.8975C15.5161 79.725 15.5868 80.6433 15.607 81.6524C15.6272 82.6414 15.6171 83.4588 15.5767 84.1046C15.5565 84.7504 15.4959 85.6889 15.3949 86.9201C15.2939 88.1512 15.2333 89.009 15.2131 89.4934C15.2131 89.5539 15.2131 90.1392 15.2131 91.2492L6.15321 92.3088C6.29461 87.0613 6.42591 81.9249 6.54712 76.8994ZM31.429 79.291C31.4492 79.4727 31.4795 79.7452 31.5199 80.1084C31.5604 80.4515 31.6008 80.7442 31.6412 80.9864C31.6816 81.2286 31.7422 81.4506 31.823 81.6524C31.8836 81.8341 32.025 82.0056 32.2472 82.1671C32.4896 82.3083 32.7017 82.379 32.8835 82.379C33.0451 82.379 33.2269 82.3083 33.4289 82.1671C33.6511 82.0056 33.8127 81.8341 33.9137 81.6524C34.1763 81.168 34.2975 80.613 34.2773 79.9873C34.2571 79.4626 34.2066 78.7158 34.1258 77.7471C34.0652 76.7581 34.0248 76.0517 34.0046 75.6279C33.9844 75.305 33.8632 75.1032 33.641 75.0224C33.439 74.9417 33.2572 74.9619 33.0956 75.083C32.4694 75.3655 32.1058 75.7187 32.0048 76.1426C31.9038 76.4453 31.823 76.7783 31.7624 77.1416C31.7018 77.4847 31.6311 77.8884 31.5503 78.3526C31.4897 78.7966 31.4492 79.1094 31.429 79.291ZM33.1865 65.6375C34.9035 65.4761 35.8125 65.3953 35.9135 65.3953C36.9235 65.3146 37.8932 65.4458 38.8224 65.7889C39.7718 66.1118 40.6303 66.7173 41.3979 67.6053C42.1655 68.4732 42.6604 69.5529 42.8826 70.8446C43.5493 74.5784 43.4988 77.8177 42.7311 80.5625C42.0847 82.823 41.4484 85.1036 40.8222 87.4045C40.095 90.0282 38.2467 91.4612 35.2772 91.7033C34.449 91.7639 33.7319 91.8547 33.1259 91.9758C32.6209 92.0565 32.1058 92.107 31.5806 92.1272C31.0755 92.1474 30.5604 92.1171 30.0352 92.0364C29.5302 91.9556 29.0656 91.8648 28.6414 91.7639C28.2172 91.663 27.7324 91.5116 27.187 91.3098C26.6416 91.108 26.1871 90.9364 25.8235 90.7951C25.4598 90.6539 24.9851 90.452 24.3993 90.1897C23.9145 89.9878 23.5408 89.6548 23.2782 89.1906C23.0156 88.7264 22.8035 88.1613 22.6419 87.4953C21.8339 84.4679 21.642 81.4506 22.0662 78.4434C22.5106 75.2343 23.8943 71.9446 26.2174 68.5741C26.3992 68.3117 26.6315 68.0695 26.9143 67.8475C27.1971 67.6255 27.5405 67.3833 27.9445 67.1209C28.3485 66.8586 28.6414 66.6668 28.8232 66.5457C29.914 65.7182 31.3685 65.4155 33.1865 65.6375ZM67.276 69.3007C66.6902 70.3502 66.3872 70.9052 66.367 70.9657C65.1954 72.984 64.4883 74.1848 64.2459 74.5683C63.9631 74.9922 63.5086 75.2243 62.8824 75.2646C62.2764 75.2848 61.7916 75.1132 61.428 74.75C60.9028 74.2454 60.0342 73.8518 58.8221 73.5693C57.3879 73.2464 56.2567 73.2161 55.4285 73.4785C54.0751 73.9023 52.9741 74.4573 52.1257 75.1435C51.2975 75.8095 50.7723 76.7581 50.5501 77.9893C50.3077 79.3819 50.3784 80.4515 50.7622 81.1983C51.3076 82.1873 52.1863 83.0046 53.3983 83.6505C54.3882 84.1752 55.7012 84.2358 57.3374 83.8321C57.9838 83.6707 58.2969 83.267 58.2767 82.6212C58.2565 82.0359 58.3171 81.3093 58.4585 80.4415C58.4787 80.3405 58.5494 80.2295 58.6706 80.1084C58.7918 79.9873 58.9029 79.9268 59.0039 79.9268C60.6604 79.947 62.2461 79.9974 63.7611 80.0782C63.9631 80.0782 64.1348 80.1185 64.2762 80.1993C64.4176 80.2598 64.5489 80.391 64.6701 80.5928C64.7913 80.7946 64.862 80.9258 64.8822 80.9864C64.9226 81.0469 65.0034 81.2185 65.1246 81.501C65.3469 82.0056 65.4378 82.5304 65.3974 83.0753C65.2357 85.1541 65.0337 87.0109 64.7913 88.6457C64.7105 89.1704 64.4681 89.8869 64.0641 90.7951C63.9833 90.9768 63.7308 91.1181 63.3066 91.219C63.1652 91.2593 62.9531 91.3098 62.6703 91.3703C62.4077 91.4511 62.1855 91.5116 62.0037 91.552C61.8421 91.6125 61.6401 91.6529 61.3977 91.6731C61.1755 91.7134 60.9634 91.7336 60.7614 91.7336C57.8323 91.6125 55.2871 91.4208 53.1256 91.1584C52.8226 91.1181 52.5095 91.0373 52.1863 90.9162C51.8833 90.7951 51.5197 90.6337 51.0955 90.4318C50.6915 90.23 50.3885 90.0887 50.1865 90.008C50.0451 89.9475 49.8431 89.8566 49.5805 89.7355C49.3179 89.6144 49.1361 89.5337 49.0351 89.4934C47.0554 88.6255 45.4192 87.132 44.1264 85.0128C43.9446 84.7101 43.7931 84.0743 43.6719 83.1056C43.5103 81.7533 43.3891 80.4717 43.3083 79.2608C43.3285 78.9782 43.3184 78.8067 43.278 78.7461C43.2578 78.6856 43.278 78.5241 43.3386 78.2617C43.3992 77.9792 43.4194 77.8076 43.3992 77.7471C43.3992 77.6865 43.4396 77.5251 43.5204 77.2627C43.6012 77.0003 43.6416 76.8389 43.6416 76.7783C43.6618 76.7178 43.7123 76.5563 43.7931 76.2939C43.8739 76.0316 43.9244 75.8802 43.9446 75.8398C43.9648 75.7793 44.0254 75.6178 44.1264 75.3554C44.2274 75.0729 44.2779 74.9114 44.2779 74.8711C45.2475 72.1666 46.8736 69.8557 49.1563 67.9383C50.4693 66.8283 51.9338 66.1925 53.5499 66.0311C53.6711 66.0109 54.1155 65.9403 54.8831 65.8192C55.6709 65.6981 56.2769 65.6375 56.7011 65.6375C57.4889 65.6375 58.5999 65.7788 60.0342 66.0613C61.3068 66.3035 62.8521 66.6466 64.6701 67.0907C65.1145 67.2118 65.3771 67.4035 65.4579 67.6659C65.6196 68.1502 66.0236 68.5236 66.67 68.786C66.7508 68.8264 66.8316 68.8768 66.9124 68.9374C66.9932 68.9979 67.0639 69.0686 67.1245 69.1493C67.2053 69.23 67.2558 69.2805 67.276 69.3007ZM76.8517 81.2891C77.0335 83.3477 77.1547 84.5587 77.2153 84.922C77.2355 85.0229 77.3466 85.1238 77.5486 85.2247C77.7708 85.3256 77.9627 85.3761 78.1243 85.3761C79.0333 85.3761 80.3362 85.3559 82.033 85.3156C83.7299 85.2752 84.9116 85.255 85.5782 85.255C85.962 85.255 86.5074 85.3156 87.2144 85.4366C87.6184 85.4972 87.7699 85.7596 87.6689 86.2238C87.4467 87.4347 87.3053 88.353 87.2447 88.9787C87.1437 90.1695 86.5478 90.9061 85.457 91.1887C83.5582 91.6731 81.2755 91.885 78.6091 91.8244C78.2455 91.8043 76.0639 91.7841 72.0642 91.7639C71.0138 91.7639 70.2663 91.5722 69.8219 91.1887C69.3977 90.8254 69.1048 90.119 68.9432 89.0695C68.6402 86.9907 68.4483 85.2146 68.3675 83.7413C68.2261 81.2992 68.2261 79.4525 68.3675 78.2012C68.5291 76.7884 68.9937 73.9931 69.7613 69.8153C69.8421 69.3511 70.0845 68.5943 70.4885 67.5448C70.7108 66.9393 71.0643 66.6265 71.5491 66.6063C71.8723 66.6063 72.4581 66.5659 73.3065 66.4852C74.1549 66.4045 74.8013 66.3641 75.2457 66.3641C77.3264 66.3843 79.3161 66.132 81.2149 65.6072C81.6189 65.5871 81.8512 65.577 81.9118 65.577C81.9926 65.5568 82.2451 65.577 82.6694 65.6375C83.0936 65.6981 83.3461 65.7283 83.4269 65.7283C83.7501 65.7687 84.0935 65.8192 84.4571 65.8797C84.8207 65.9201 85.2247 65.9705 85.6691 66.0311C86.1135 66.0916 86.467 66.1421 86.7296 66.1824C87.1942 66.243 87.4265 66.5356 87.4265 67.0604C87.4063 67.5448 87.3962 68.231 87.3962 69.119C87.3962 69.9869 87.3962 70.6731 87.3962 71.1776C87.3962 71.6418 87.2346 72.0253 86.9114 72.328C86.6084 72.6106 86.2246 72.7519 85.76 72.7519C85.7196 72.7519 85.0429 72.7418 83.7299 72.7216C82.437 72.6812 81.7704 72.6812 81.73 72.7216C80.6998 72.8023 79.5585 73.0042 78.3061 73.3271C78.1445 73.3675 77.9829 73.7206 77.8213 74.3867C77.8011 74.4472 77.8415 74.538 77.9425 74.6591C78.0435 74.7802 78.1344 74.8509 78.2152 74.8711C79.4676 75.1334 80.3968 75.2848 81.0028 75.3252C81.6694 75.3857 82.5987 75.4463 83.7905 75.5068C85.0025 75.5674 85.8206 75.6077 86.2448 75.6279C86.6488 75.6481 86.9316 75.749 87.0932 75.9306C87.2548 76.0921 87.3255 76.3646 87.3053 76.748C87.3053 78.5241 87.275 79.7855 87.2144 80.5323C87.1942 80.6937 87.1235 80.8653 87.0023 81.0469C86.8811 81.2084 86.7397 81.3295 86.5781 81.4102C86.0529 81.6524 85.4974 81.8038 84.9116 81.8643C84.1238 81.9249 83.336 81.9552 82.5482 81.9552C81.0735 81.9552 79.5888 81.8441 78.094 81.6221C78.0738 81.602 77.6597 81.4909 76.8517 81.2891ZM96.3666 75.1132C96.7302 78.7663 96.9322 80.8754 96.9726 81.4405C97.0332 81.9854 97.3362 82.2377 97.8816 82.1973C98.0634 82.1973 98.4674 82.2074 99.0937 82.2276C99.7199 82.2478 100.124 82.2276 100.306 82.1671C100.932 82.0662 101.437 81.8038 101.821 81.3799C102.467 80.6937 102.73 79.7956 102.609 78.6856C102.528 78.0195 102.376 77.4645 102.154 77.0205C101.932 76.5563 101.538 76.193 100.972 75.9306C100.326 75.6077 99.6593 75.3958 98.9725 75.2949C98.2856 75.194 97.417 75.1334 96.3666 75.1132ZM88.943 66.5155C89.8116 66.2733 90.2661 66.1421 90.3065 66.1219C91.8417 65.4155 93.7002 65.2137 95.8818 65.5164C99.2755 66.0008 101.154 66.2733 101.518 66.3338C103.639 66.6567 105.558 67.5448 107.275 68.9979C107.84 69.4621 108.588 70.3703 109.517 71.7226C111.476 74.528 112.466 77.3232 112.486 80.1084C112.507 82.3285 112.082 84.2156 111.214 85.7697C110.345 87.3035 108.962 88.6154 107.063 89.7053C105.972 90.3309 104.82 90.785 103.608 91.0676C102.417 91.3502 101.043 91.552 99.4876 91.6731C99.1442 91.7134 98.4472 91.7841 97.3968 91.885C96.3464 91.9859 95.5384 92.0565 94.9728 92.0969C94.7304 92.1171 94.3971 92.107 93.9729 92.0666C93.5689 92.0263 93.2962 92.0061 93.1548 92.0061C92.973 91.9859 92.7204 91.9859 92.3972 92.0061C92.0942 92.0465 91.872 92.0666 91.7306 92.0666C91.2458 92.0666 90.963 92.0263 90.8822 91.9455C90.1954 91.3199 89.8419 90.7548 89.8217 90.2502C89.5591 85.5275 89.3874 82.2579 89.3066 80.4415C89.2056 78.0195 89.044 73.6197 88.8218 67.242C88.8218 67.2017 88.8622 66.9595 88.943 66.5155ZM122.153 79.291C122.173 79.4727 122.204 79.7452 122.244 80.1084C122.284 80.4515 122.325 80.7442 122.365 80.9864C122.406 81.2286 122.466 81.4506 122.547 81.6524C122.608 81.8341 122.749 82.0056 122.971 82.1671C123.214 82.3083 123.426 82.379 123.607 82.379C123.769 82.379 123.951 82.3083 124.153 82.1671C124.375 82.0056 124.537 81.8341 124.638 81.6524C124.9 81.168 125.022 80.613 125.001 79.9873C124.981 79.4626 124.931 78.7158 124.85 77.7471C124.789 76.7581 124.749 76.0517 124.729 75.6279C124.708 75.305 124.587 75.1032 124.365 75.0224C124.163 74.9417 123.981 74.9619 123.82 75.083C123.193 75.3655 122.83 75.7187 122.729 76.1426C122.628 76.4453 122.547 76.7783 122.486 77.1416C122.426 77.4847 122.355 77.8884 122.274 78.3526C122.214 78.7966 122.173 79.1094 122.153 79.291ZM123.91 65.6375C125.628 65.4761 126.537 65.3953 126.638 65.3953C127.648 65.3146 128.617 65.4458 129.546 65.7889C130.496 66.1118 131.354 66.7173 132.122 67.6053C132.89 68.4732 133.384 69.5529 133.607 70.8446C134.273 74.5784 134.223 77.8177 133.455 80.5625C132.809 82.823 132.172 85.1036 131.546 87.4045C130.819 90.0282 128.971 91.4612 126.001 91.7033C125.173 91.7639 124.456 91.8547 123.85 91.9758C123.345 92.0565 122.83 92.107 122.305 92.1272C121.8 92.1474 121.284 92.1171 120.759 92.0364C120.254 91.9556 119.79 91.8648 119.365 91.7639C118.941 91.663 118.456 91.5116 117.911 91.3098C117.366 91.108 116.911 90.9364 116.547 90.7951C116.184 90.6539 115.709 90.452 115.123 90.1897C114.639 89.9878 114.265 89.6548 114.002 89.1906C113.74 88.7264 113.528 88.1613 113.366 87.4953C112.558 84.4679 112.366 81.4506 112.79 78.4434C113.235 75.2343 114.618 71.9446 116.941 68.5741C117.123 68.3117 117.355 68.0695 117.638 67.8475C117.921 67.6255 118.264 67.3833 118.669 67.1209C119.073 66.8586 119.365 66.6668 119.547 66.5457C120.638 65.7182 122.092 65.4155 123.91 65.6375ZM158 69.3007C157.414 70.3502 157.111 70.9052 157.091 70.9657C155.919 72.984 155.212 74.1848 154.97 74.5683C154.687 74.9922 154.233 75.2243 153.606 75.2646C153 75.2848 152.516 75.1132 152.152 74.75C151.627 74.2454 150.758 73.8518 149.546 73.5693C148.112 73.2464 146.981 73.2161 146.152 73.4785C144.799 73.9023 143.698 74.4573 142.85 75.1435C142.022 75.8095 141.496 76.7581 141.274 77.9893C141.032 79.3819 141.102 80.4515 141.486 81.1983C142.032 82.1873 142.91 83.0046 144.122 83.6505C145.112 84.1752 146.425 84.2358 148.061 83.8321C148.708 83.6707 149.021 83.267 149.001 82.6212C148.981 82.0359 149.041 81.3093 149.183 80.4415C149.203 80.3405 149.273 80.2295 149.395 80.1084C149.516 79.9873 149.627 79.9268 149.728 79.9268C151.384 79.947 152.97 79.9974 154.485 80.0782C154.687 80.0782 154.859 80.1185 155 80.1993C155.142 80.2598 155.273 80.391 155.394 80.5928C155.515 80.7946 155.586 80.9258 155.606 80.9864C155.647 81.0469 155.727 81.2185 155.849 81.501C156.071 82.0056 156.162 82.5304 156.121 83.0753C155.96 85.1541 155.758 87.0109 155.515 88.6457C155.435 89.1704 155.192 89.8869 154.788 90.7951C154.707 90.9768 154.455 91.1181 154.031 91.219C153.889 91.2593 153.677 91.3098 153.394 91.3703C153.132 91.4511 152.91 91.5116 152.728 91.552C152.566 91.6125 152.364 91.6529 152.122 91.6731C151.899 91.7134 151.687 91.7336 151.485 91.7336C148.556 91.6125 146.011 91.4208 143.85 91.1584C143.547 91.1181 143.234 91.0373 142.91 90.9162C142.607 90.7951 142.244 90.6337 141.82 90.4318C141.416 90.23 141.113 90.0887 140.911 90.008C140.769 89.9475 140.567 89.8566 140.304 89.7355C140.042 89.6144 139.86 89.5337 139.759 89.4934C137.779 88.6255 136.143 87.132 134.85 85.0128C134.669 84.7101 134.517 84.0743 134.396 83.1056C134.234 81.7533 134.113 80.4717 134.032 79.2608C134.052 78.9782 134.042 78.8067 134.002 78.7461C133.982 78.6856 134.002 78.5241 134.063 78.2617C134.123 77.9792 134.143 77.8076 134.123 77.7471C134.123 77.6865 134.164 77.5251 134.244 77.2627C134.325 77.0003 134.366 76.8389 134.366 76.7783C134.386 76.7178 134.436 76.5563 134.517 76.2939C134.598 76.0316 134.648 75.8802 134.669 75.8398C134.689 75.7793 134.749 75.6178 134.85 75.3554C134.951 75.0729 135.002 74.9114 135.002 74.8711C135.972 72.1666 137.598 69.8557 139.88 67.9383C141.193 66.8283 142.658 66.1925 144.274 66.0311C144.395 66.0109 144.839 65.9403 145.607 65.8192C146.395 65.6981 147.001 65.6375 147.425 65.6375C148.213 65.6375 149.324 65.7788 150.758 66.0613C152.031 66.3035 153.576 66.6466 155.394 67.0907C155.839 67.2118 156.101 67.4035 156.182 67.6659C156.344 68.1502 156.748 68.5236 157.394 68.786C157.475 68.8264 157.556 68.8768 157.636 68.9374C157.717 68.9979 157.788 69.0686 157.848 69.1493C157.929 69.23 157.98 69.2805 158 69.3007Z" fill="#F8D259"/>
  <path d="M8.59158 75.686C8.51854 75.8402 8.22716 76.9781 8.64124 76.6278C8.77746 76.5125 8.80975 76.3345 8.82149 76.1643C8.82619 76.0962 8.75712 75.6157 8.75712 75.8185" stroke="white" stroke-linecap="round"/>
  <path d="M11.3751 78.1369C10.9395 77.9711 10.3636 78.0267 9.92263 78.1369C9.85087 78.1548 9.75094 78.3059 9.8582 78.3429C10.2122 78.4648 11.2474 78.6594 11.5077 78.2693" stroke="white" stroke-linecap="round"/>
  <path d="M13.0653 75.3884C12.6544 75.4705 12.5957 76.5658 13.0064 76.6722C13.505 76.8014 13.3304 75.64 13.3304 75.4215" stroke="white" stroke-linecap="round"/>
  <path d="M73.8906 7.3349C70.2496 8.59725 66.2737 9.79758 63.2545 12.3012C58.3672 16.3539 55.5884 23.2399 53.8443 29.1939C52.3584 34.2664 53.1462 39.8596 54.8178 44.7816C55.8046 47.6874 57.6297 51.7146 60.6586 53.0105C65.8242 55.2206 72.4108 56.9255 78.1089 56.9255C82.6235 56.9255 87.6202 55.3292 91.2327 52.5392C93.7054 50.6296 95.3341 47.9269 97.4161 45.6517C101.286 41.4228 102.77 35.074 102.77 29.5383C102.77 25.0991 101.119 20.8443 98.3895 17.4669C97.0718 15.8363 95.389 14.4852 94.0089 12.8993C92.6559 11.3447 91.3966 9.96108 89.7906 8.63992C85.3504 4.98732 78.9839 5.37738 73.5661 5.37738" stroke="#F8D259" stroke-width="5" stroke-linecap="round"/>
  <path d="M69.1556 25.7051V27.5972" stroke="#F8D259" stroke-width="3" stroke-linecap="round"/>
  <path d="M75.0102 28.7987C75.1126 28.5837 74.2161 28.279 73.0399 28.8455C72.5895 29.2904 75.0419 29.5258 75.0364 28.8076" stroke="#F8D259" stroke-width="3" stroke-linecap="round"/>
  <path d="M79.2716 24.2865C79.2716 24.668 79.2716 25.7056 79.3346 25.9421" stroke="#F8D259" stroke-width="3" stroke-linecap="round"/>
  <path d="M58.7396 13.5946C58.0218 12.2 57.1077 11.3025 55.4919 11.2563C52.5417 11.172 48.7561 10.5448 46.0734 11.9244C40.4961 14.7925 34.4383 20.0916 37.1601 27.2901C37.6318 28.5378 38.2379 29.9625 39.5959 29.9625C42.1657 29.9625 43.992 28.9347 46.0553 27.4757C47.5355 26.4291 49.9473 25.5688 51.1074 24.2838C51.9483 23.3524 53.0363 22.676 54.1928 22.2796" stroke="#F8D259" stroke-width="5" stroke-linecap="round"/>
  <path d="M90.9341 9.55083C90.9341 1.61733 101.912 2.68845 107.095 3.68671C111.28 4.49274 115.488 6.39893 118.102 9.94901C119.858 12.3326 120.864 15.0062 120.753 17.9488C120.559 23.1082 110.146 19.032 108.163 17.9488C104.972 16.206 101.584 15.4149 97.8918 15.4149" stroke="#F8D259" stroke-width="5" stroke-linecap="round"/>
  <path d="M70.1024 32.32C70.1024 33.6775 71.3562 33.2703 72.0466 32.9959C72.8855 32.6626 73.456 31.6453 73.9498 30.9366C74.092 30.7325 74.7238 31.7244 74.9356 31.8955C75.3135 32.2009 75.8093 32.4354 76.2637 32.4614C77.3299 32.5226 78.6467 32.8837 79.0979 31.3296" stroke="#F8D259" stroke-width="3" stroke-linecap="round"/>
</svg>