<svg xmlns="http://www.w3.org/2000/svg" width="77" height="14" viewBox="0 0 77 14" fill="none">
  <path d="M3.17233 5.73579L0.191931 5.95583C0.142992 5.16371 0.118522 4.7432 0.118522 4.6943C0.0989463 4.20534 0.0744767 3.52079 0.0451131 2.64066C0.0255373 1.75075 0.0108556 1.13466 0.00106776 0.792382C-0.0185079 0.254523 0.231082 -0.00951719 0.749838 0.000261938C1.05326 0.0100416 1.54265 0.0344897 2.21802 0.0736063C2.89338 0.112723 3.40724 0.137172 3.7596 0.146951C4.17069 0.156731 4.83627 0.16162 5.75632 0.16162C6.68617 0.151841 7.35664 0.156731 7.76773 0.176289C8.23754 0.186068 8.90801 0.259412 9.77913 0.396322C10.0042 0.42566 10.1511 0.489225 10.2196 0.587017C10.2979 0.675031 10.3321 0.836388 10.3224 1.07109C10.3224 1.24712 10.3077 1.49649 10.2783 1.8192C10.2489 2.14192 10.2294 2.36684 10.2196 2.49397C10.2098 2.57221 10.2 3.00249 10.1902 3.78483C10.1804 4.43026 10.1755 4.77254 10.1755 4.81165C10.1755 4.85077 10.1413 5.20771 10.0728 5.88248C8.81992 5.98027 8.13966 6.03406 8.032 6.04384C7.76772 6.0634 7.59644 6.11718 7.51814 6.2052C7.44962 6.28343 7.43004 6.44968 7.45941 6.70394C7.51814 7.10489 7.55239 7.54984 7.56218 8.03881C7.57197 8.51799 7.56707 8.91405 7.5475 9.22699C7.53771 9.53992 7.50835 9.99466 7.45941 10.5912C7.41047 11.1877 7.38111 11.6033 7.37132 11.838C7.37132 11.8674 7.37132 12.151 7.37132 12.6888L2.98147 13.2023C3.04998 10.6596 3.1136 8.17083 3.17233 5.73579ZM15.2286 6.89463C15.2384 6.98265 15.2531 7.11467 15.2726 7.29069C15.2922 7.45694 15.3118 7.59874 15.3314 7.71609C15.3509 7.83344 15.3803 7.94101 15.4195 8.03881C15.4488 8.12682 15.5173 8.20994 15.625 8.28818C15.7424 8.35663 15.8452 8.39086 15.9333 8.39086C16.0116 8.39086 16.0997 8.35663 16.1976 8.28818C16.3053 8.20994 16.3836 8.12682 16.4325 8.03881C16.5597 7.80411 16.6185 7.53518 16.6087 7.23202C16.5989 6.97776 16.5744 6.61593 16.5353 6.14652C16.5059 5.66734 16.4863 5.32506 16.4765 5.1197C16.4668 4.96323 16.408 4.86544 16.3004 4.82632C16.2025 4.78721 16.1144 4.79699 16.0361 4.85566C15.7327 4.99257 15.5565 5.16371 15.5075 5.36907C15.4586 5.51576 15.4195 5.67712 15.3901 5.85314C15.3607 6.01939 15.3265 6.21498 15.2873 6.4399C15.258 6.65504 15.2384 6.80662 15.2286 6.89463ZM16.0801 0.278971C16.9121 0.200737 17.3526 0.16162 17.4015 0.16162C17.8909 0.122503 18.3607 0.186068 18.8109 0.352316C19.271 0.508783 19.687 0.802161 20.0589 1.23245C20.4308 1.65296 20.6706 2.17615 20.7783 2.80202C21.1013 4.61118 21.0768 6.18075 20.7049 7.51073C20.3917 8.606 20.0834 9.71106 19.7799 10.8259C19.4276 12.0972 18.532 12.7915 17.0932 12.9089C16.6919 12.9382 16.3444 12.9822 16.0508 13.0409C15.8061 13.08 15.5565 13.1045 15.302 13.1142C15.0573 13.124 14.8077 13.1093 14.5532 13.0702C14.3085 13.0311 14.0834 12.9871 13.8779 12.9382C13.6723 12.8893 13.4374 12.816 13.1731 12.7182C12.9089 12.6204 12.6886 12.5373 12.5125 12.4688C12.3363 12.4004 12.1063 12.3026 11.8224 12.1754C11.5875 12.0776 11.4064 11.9163 11.2792 11.6914C11.1519 11.4664 11.0492 11.1926 10.9709 10.8699C10.5794 9.40301 10.4864 7.94101 10.6919 6.48391C10.9073 4.92901 11.5777 3.33499 12.7033 1.70185C12.7914 1.57472 12.904 1.45737 13.041 1.3498C13.178 1.24223 13.3444 1.12488 13.5402 0.997746C13.7359 0.870615 13.8779 0.777713 13.966 0.719037C14.4945 0.318088 15.1992 0.171399 16.0801 0.278971ZM32.5978 2.05391C32.314 2.56243 32.1672 2.83136 32.1574 2.86069C31.5897 3.83862 31.2471 4.42048 31.1296 4.60629C30.9926 4.81165 30.7724 4.92412 30.469 4.94367C30.1753 4.95345 29.9404 4.87033 29.7642 4.6943C29.5097 4.44982 29.0889 4.25913 28.5016 4.12222C27.8067 3.96575 27.2585 3.95108 26.8572 4.07821C26.2015 4.28357 25.668 4.5525 25.2569 4.885C24.8556 5.20771 24.6011 5.66734 24.4935 6.26387C24.376 6.93864 24.4103 7.45694 24.5962 7.81877C24.8605 8.29796 25.2863 8.69402 25.8736 9.00695C26.3532 9.26121 26.9894 9.29055 27.7822 9.09497C28.0954 9.01673 28.2471 8.82115 28.2373 8.50821C28.2275 8.22461 28.2569 7.87256 28.3254 7.45205C28.3352 7.40316 28.3695 7.34937 28.4282 7.29069C28.4869 7.23202 28.5408 7.20268 28.5897 7.20268C29.3923 7.21246 30.1606 7.23691 30.8947 7.27603C30.9926 7.27603 31.0758 7.29558 31.1443 7.3347C31.2128 7.36404 31.2765 7.4276 31.3352 7.5254C31.3939 7.62319 31.4282 7.68675 31.438 7.71609C31.4575 7.74543 31.4967 7.82855 31.5554 7.96546C31.6631 8.20994 31.7071 8.4642 31.6875 8.72824C31.6092 9.73551 31.5114 10.6352 31.3939 11.4273C31.3548 11.6816 31.2373 12.0287 31.0415 12.4688C31.0024 12.5568 30.88 12.6253 30.6745 12.6742C30.606 12.6937 30.5032 12.7182 30.3662 12.7475C30.2389 12.7866 30.1313 12.816 30.0432 12.8355C29.9649 12.8649 29.867 12.8844 29.7496 12.8942C29.6419 12.9138 29.5391 12.9235 29.4412 12.9235C28.022 12.8649 26.7887 12.772 25.7414 12.6448C25.5946 12.6253 25.4429 12.5862 25.2863 12.5275C25.1395 12.4688 24.9633 12.3906 24.7577 12.2928C24.562 12.195 24.4152 12.1265 24.3173 12.0874C24.2488 12.0581 24.1509 12.0141 24.0237 11.9554C23.8964 11.8967 23.8083 11.8576 23.7594 11.838C22.8002 11.4175 22.0074 10.6939 21.3809 9.66705C21.2928 9.52036 21.2194 9.21232 21.1607 8.74291C21.0824 8.0877 21.0237 7.46672 20.9845 6.87997C20.9943 6.74306 20.9894 6.65993 20.9698 6.6306C20.9601 6.60126 20.9699 6.52302 20.9992 6.39589C21.0286 6.25898 21.0384 6.17586 21.0286 6.14652C21.0286 6.11718 21.0482 6.03895 21.0873 5.91182C21.1265 5.78469 21.146 5.70646 21.146 5.67712C21.1558 5.64778 21.1803 5.56955 21.2194 5.44242C21.2586 5.31529 21.2831 5.24194 21.2928 5.22238C21.3026 5.19304 21.332 5.11481 21.3809 4.98768C21.4299 4.85077 21.4543 4.77254 21.4543 4.75298C21.9242 3.44256 22.7121 2.32283 23.8181 1.39381C24.4543 0.855947 25.1639 0.5479 25.947 0.469666C26.0057 0.459887 26.221 0.42566 26.593 0.366984C26.9747 0.308309 27.2683 0.278971 27.4739 0.278971C27.8556 0.278971 28.3939 0.347426 29.0889 0.484336C29.7055 0.601686 30.4543 0.767934 31.3352 0.983077C31.5505 1.04175 31.6778 1.13466 31.7169 1.26179C31.7952 1.49649 31.991 1.6774 32.3042 1.80453C32.3433 1.82409 32.3825 1.84854 32.4216 1.87788C32.4608 1.90722 32.495 1.94144 32.5244 1.98056C32.5636 2.01968 32.588 2.04413 32.5978 2.05391ZM37.2376 7.86278C37.3257 8.86026 37.3844 9.44702 37.4138 9.62304C37.4236 9.67194 37.4774 9.72084 37.5753 9.76973C37.6829 9.81863 37.7759 9.84308 37.8542 9.84308C38.2947 9.84308 38.926 9.8333 39.7482 9.81374C40.5704 9.79418 41.1429 9.7844 41.466 9.7844C41.6519 9.7844 41.9162 9.81374 42.2588 9.87242C42.4545 9.90175 42.5279 10.0289 42.479 10.2538C42.3713 10.8406 42.3028 11.2855 42.2734 11.5887C42.2245 12.1657 41.9358 12.5226 41.4072 12.6595C40.4872 12.8942 39.3811 12.9969 38.0891 12.9676C37.913 12.9578 36.8559 12.948 34.9179 12.9382C34.4089 12.9382 34.0468 12.8453 33.8314 12.6595C33.6259 12.4835 33.484 12.1412 33.4057 11.6327C33.2588 10.6254 33.1659 9.76484 33.1267 9.05096C33.0582 7.86767 33.0582 6.97287 33.1267 6.36656C33.205 5.68201 33.4301 4.32758 33.8021 2.30328C33.8412 2.07835 33.9587 1.71163 34.1544 1.20311C34.2621 0.909733 34.4334 0.758154 34.6683 0.748375C34.8249 0.748375 35.1087 0.728816 35.5198 0.6897C35.9309 0.650583 36.2441 0.631024 36.4595 0.631024C37.4676 0.640803 38.4317 0.518563 39.3518 0.264302C39.5475 0.254523 39.6601 0.249633 39.6895 0.249633C39.7286 0.239854 39.851 0.249633 40.0565 0.278971C40.262 0.308309 40.3844 0.322977 40.4235 0.322977C40.5802 0.342536 40.7465 0.366984 40.9227 0.396322C41.0989 0.415881 41.2947 0.440329 41.51 0.469666C41.7253 0.499004 41.8966 0.523452 42.0239 0.54301C42.249 0.572348 42.3615 0.714148 42.3615 0.968408C42.3517 1.20311 42.3469 1.5356 42.3469 1.96589C42.3469 2.3864 42.3469 2.71889 42.3469 2.96338C42.3469 3.1883 42.2686 3.3741 42.1119 3.52079C41.9651 3.6577 41.7792 3.72616 41.554 3.72616C41.5345 3.72616 41.2066 3.72127 40.5704 3.71149C39.9439 3.69193 39.6209 3.69193 39.6014 3.71149C39.1022 3.75061 38.5492 3.8484 37.9423 4.00487C37.864 4.02442 37.7857 4.19556 37.7074 4.51828C37.6976 4.54761 37.7172 4.59162 37.7661 4.6503C37.8151 4.70897 37.8591 4.7432 37.8983 4.75298C38.5051 4.88011 38.9554 4.95345 39.249 4.97301C39.572 5.00235 40.0222 5.03169 40.5997 5.06102C41.187 5.09036 41.5834 5.10992 41.7889 5.1197C41.9847 5.12948 42.1217 5.17838 42.2 5.26639C42.2783 5.34462 42.3126 5.47664 42.3028 5.66245C42.3028 6.52302 42.2881 7.13423 42.2588 7.49606C42.249 7.57429 42.2147 7.65742 42.156 7.74543C42.0973 7.82366 42.0288 7.88234 41.9504 7.92146C41.696 8.03881 41.4268 8.11215 41.143 8.14149C40.7612 8.17083 40.3795 8.1855 39.9978 8.1855C39.2833 8.1855 38.5639 8.13171 37.8396 8.02414C37.8298 8.01436 37.6291 7.96057 37.2376 7.86278ZM46.6933 4.87033C46.8695 6.64037 46.9674 7.66231 46.987 7.93612C47.0163 8.20016 47.1632 8.32241 47.4274 8.30285C47.5155 8.30285 47.7113 8.30774 48.0147 8.31752C48.3181 8.3273 48.5139 8.31752 48.602 8.28818C48.9054 8.23928 49.1501 8.11215 49.3361 7.90679C49.6493 7.57429 49.7765 7.13912 49.7178 6.60126C49.6786 6.27854 49.6052 6.00961 49.4976 5.79447C49.3899 5.56955 49.199 5.39352 48.925 5.26639C48.6118 5.10992 48.2888 5.00724 47.956 4.95834C47.6232 4.90945 47.2023 4.88011 46.6933 4.87033ZM43.0963 0.704369C43.5172 0.587017 43.7374 0.523452 43.757 0.513673C44.5009 0.171399 45.4013 0.0736065 46.4584 0.220296C48.1028 0.454998 49.0131 0.587018 49.1892 0.616356C50.217 0.772823 51.1468 1.20311 51.9788 1.90722C52.2528 2.13214 52.615 2.57221 53.0652 3.22742C54.0147 4.58673 54.4943 5.94116 54.5041 7.29069C54.5138 8.36641 54.3083 9.28077 53.8874 10.0338C53.4665 10.777 52.7961 11.4126 51.876 11.9407C51.3475 12.2439 50.7896 12.4639 50.2023 12.6008C49.6248 12.7377 48.9592 12.8355 48.2056 12.8942C48.0392 12.9138 47.7015 12.948 47.1925 12.9969C46.6836 13.0458 46.292 13.08 46.018 13.0996C45.9005 13.1094 45.739 13.1045 45.5335 13.0849C45.3377 13.0653 45.2056 13.0556 45.1371 13.0556C45.049 13.0458 44.9266 13.0458 44.77 13.0556C44.6232 13.0751 44.5156 13.0849 44.447 13.0849C44.2121 13.0849 44.0751 13.0653 44.0359 13.0262C43.7032 12.7231 43.5319 12.4492 43.5221 12.2048C43.3948 9.91642 43.3116 8.33218 43.2725 7.45205C43.2236 6.27854 43.1452 4.14667 43.0376 1.05642C43.0376 1.03686 43.0572 0.919512 43.0963 0.704369ZM59.1879 6.89463C59.1977 6.98265 59.2123 7.11467 59.2319 7.29069C59.2515 7.45694 59.2711 7.59874 59.2907 7.71609C59.3102 7.83344 59.3396 7.94101 59.3787 8.03881C59.4081 8.12682 59.4766 8.20994 59.5843 8.28818C59.7017 8.35663 59.8045 8.39086 59.8926 8.39086C59.9709 8.39086 60.059 8.35663 60.1569 8.28818C60.2645 8.20994 60.3428 8.12682 60.3918 8.03881C60.519 7.80411 60.5778 7.53518 60.568 7.23202C60.5582 6.97776 60.5337 6.61593 60.4946 6.14652C60.4652 5.66734 60.4456 5.32506 60.4358 5.1197C60.426 4.96323 60.3673 4.86544 60.2597 4.82632C60.1618 4.78721 60.0737 4.79699 59.9954 4.85566C59.692 4.99257 59.5158 5.16371 59.4668 5.36907C59.4179 5.51576 59.3787 5.67712 59.3494 5.85314C59.32 6.01939 59.2858 6.21498 59.2466 6.4399C59.2172 6.65504 59.1977 6.80662 59.1879 6.89463ZM60.0394 0.278971C60.8714 0.200737 61.3118 0.16162 61.3608 0.16162C61.8502 0.122503 62.32 0.186068 62.7702 0.352316C63.2303 0.508783 63.6462 0.802161 64.0182 1.23245C64.3901 1.65296 64.6299 2.17615 64.7376 2.80202C65.0606 4.61118 65.0361 6.18075 64.6642 7.51073C64.351 8.606 64.0426 9.71106 63.7392 10.8259C63.3869 12.0972 62.4913 12.7915 61.0525 12.9089C60.6512 12.9382 60.3037 12.9822 60.0101 13.0409C59.7654 13.08 59.5158 13.1045 59.2613 13.1142C59.0166 13.124 58.767 13.1093 58.5125 13.0702C58.2678 13.0311 58.0427 12.9871 57.8372 12.9382C57.6316 12.8893 57.3967 12.816 57.1324 12.7182C56.8682 12.6204 56.6479 12.5373 56.4717 12.4688C56.2956 12.4004 56.0656 12.3026 55.7817 12.1754C55.5468 12.0776 55.3657 11.9163 55.2385 11.6914C55.1112 11.4664 55.0085 11.1926 54.9302 10.8699C54.5387 9.40301 54.4457 7.94101 54.6512 6.48391C54.8665 4.92901 55.537 3.33499 56.6626 1.70185C56.7507 1.57472 56.8633 1.45737 57.0003 1.3498C57.1373 1.24223 57.3037 1.12488 57.4995 0.997746C57.6952 0.870615 57.8372 0.777713 57.9252 0.719037C58.4538 0.318088 59.1585 0.171399 60.0394 0.278971ZM76.5571 2.05391C76.2733 2.56243 76.1264 2.83136 76.1166 2.86069C75.549 3.83862 75.2064 4.42048 75.0889 4.60629C74.9519 4.81165 74.7317 4.92412 74.4283 4.94367C74.1346 4.95345 73.8997 4.87033 73.7235 4.6943C73.469 4.44982 73.0482 4.25913 72.4609 4.12222C71.7659 3.96575 71.2178 3.95108 70.8165 4.07821C70.1607 4.28357 69.6273 4.5525 69.2162 4.885C68.8149 5.20771 68.5604 5.66734 68.4528 6.26387C68.3353 6.93864 68.3696 7.45694 68.5555 7.81877C68.8198 8.29796 69.2456 8.69402 69.8329 9.00695C70.3125 9.26121 70.9487 9.29055 71.7415 9.09497C72.0547 9.01673 72.2064 8.82115 72.1966 8.50821C72.1868 8.22461 72.2162 7.87256 72.2847 7.45205C72.2945 7.40316 72.3288 7.34937 72.3875 7.29069C72.4462 7.23202 72.5 7.20268 72.549 7.20268C73.3516 7.21246 74.1199 7.23691 74.854 7.27603C74.9519 7.27603 75.0351 7.29558 75.1036 7.3347C75.1721 7.36404 75.2357 7.4276 75.2945 7.5254C75.3532 7.62319 75.3875 7.68675 75.3972 7.71609C75.4168 7.74543 75.456 7.82855 75.5147 7.96546C75.6224 8.20994 75.6664 8.4642 75.6468 8.72824C75.5685 9.73551 75.4706 10.6352 75.3532 11.4273C75.314 11.6816 75.1966 12.0287 75.0008 12.4688C74.9617 12.5568 74.8393 12.6253 74.6338 12.6742C74.5653 12.6937 74.4625 12.7182 74.3255 12.7475C74.1982 12.7866 74.0906 12.816 74.0025 12.8355C73.9242 12.8649 73.8263 12.8844 73.7088 12.8942C73.6012 12.9138 73.4984 12.9235 73.4005 12.9235C71.9813 12.8649 70.748 12.772 69.7007 12.6448C69.5539 12.6253 69.4022 12.5862 69.2456 12.5275C69.0988 12.4688 68.9226 12.3906 68.717 12.2928C68.5213 12.195 68.3745 12.1265 68.2766 12.0874C68.2081 12.0581 68.1102 12.0141 67.9829 11.9554C67.8557 11.8967 67.7676 11.8576 67.7187 11.838C66.7595 11.4175 65.9667 10.6939 65.3402 9.66705C65.2521 9.52036 65.1787 9.21232 65.12 8.74291C65.0417 8.0877 64.983 7.46672 64.9438 6.87997C64.9536 6.74306 64.9487 6.65993 64.9291 6.6306C64.9193 6.60126 64.9291 6.52302 64.9585 6.39589C64.9879 6.25898 64.9977 6.17586 64.9879 6.14652C64.9879 6.11718 65.0074 6.03895 65.0466 5.91182C65.0858 5.78469 65.1053 5.70646 65.1053 5.67712C65.1151 5.64778 65.1396 5.56955 65.1787 5.44242C65.2179 5.31529 65.2423 5.24194 65.2521 5.22238C65.2619 5.19304 65.2913 5.11481 65.3402 4.98768C65.3892 4.85077 65.4136 4.77254 65.4136 4.75298C65.8835 3.44256 66.6714 2.32283 67.7774 1.39381C68.4136 0.855947 69.1232 0.5479 69.9063 0.469666C69.965 0.459887 70.1803 0.42566 70.5523 0.366984C70.934 0.308309 71.2276 0.278971 71.4332 0.278971C71.8149 0.278971 72.3532 0.347426 73.0482 0.484336C73.6648 0.601686 74.4136 0.767934 75.2945 0.983077C75.5098 1.04175 75.6371 1.13466 75.6762 1.26179C75.7545 1.49649 75.9503 1.6774 76.2635 1.80453C76.3026 1.82409 76.3418 1.84854 76.3809 1.87788C76.4201 1.90722 76.4543 1.94144 76.4837 1.98056C76.5229 2.01968 76.5473 2.04413 76.5571 2.05391Z" fill="url(#paint0_linear_226_1085)"/>
  <path d="M4.04172 4.94141C4.00351 5.02206 3.85112 5.61721 4.06769 5.43396C4.13894 5.37367 4.15583 5.28059 4.16197 5.19153C4.16442 5.15592 4.1283 4.90463 4.1283 5.01067" stroke="white" stroke-width="0.5" stroke-linecap="round"/>
  <path d="M5.49764 6.22361C5.26981 6.13689 4.96858 6.166 4.73795 6.22361C4.70042 6.23298 4.64815 6.31202 4.70425 6.33135C4.88942 6.39515 5.43082 6.49691 5.56697 6.29287" stroke="white" stroke-width="0.5" stroke-linecap="round"/>
  <path d="M6.38142 4.78613C6.16651 4.82908 6.13581 5.40198 6.35061 5.45762C6.6114 5.52517 6.52007 4.91773 6.52007 4.80345" stroke="white" stroke-width="0.5" stroke-linecap="round"/>
  <defs>
    <linearGradient id="paint0_linear_226_1085" x1="3.16061" y1="6.32123" x2="52.3257" y2="6.32123" gradientUnits="userSpaceOnUse">
      <stop stop-color="#494949"/>
      <stop offset="1" stop-color="#222222"/>
    </linearGradient>
  </defs>
</svg>