<svg xmlns="http://www.w3.org/2000/svg" width="331" height="57" viewBox="0 0 331 57" fill="none">
<path d="M13.6964 24.764L0.828651 25.714C0.617358 22.294 0.511712 20.4785 0.511712 20.2674C0.427195 18.1563 0.321549 15.2008 0.194773 11.4009C0.110256 7.55876 0.0468683 4.89881 0.00461 3.42106C-0.0799069 1.09889 0.997685 -0.0410899 3.23739 0.0011309C4.5474 0.0433543 6.66032 0.148908 9.57616 0.317791C12.492 0.486677 14.7106 0.592231 16.2319 0.634455C18.0067 0.676676 20.8803 0.697786 24.8526 0.697786C28.8672 0.655565 31.7619 0.676676 33.5367 0.761117C35.5651 0.803338 38.4598 1.12 42.2208 1.7111C43.1928 1.83776 43.8267 2.1122 44.1225 2.53442C44.4606 2.91441 44.6085 3.61106 44.5662 4.62437C44.5662 5.38436 44.5028 6.461 44.376 7.85431C44.2493 9.24761 44.1647 10.2187 44.1225 10.7676C44.0802 11.1054 44.038 12.9631 43.9957 16.3408C43.9534 19.1274 43.9323 20.6052 43.9323 20.7741C43.9323 20.9429 43.7844 22.484 43.4886 25.3973C38.0795 25.8195 35.1425 26.0517 34.6777 26.0939C33.5367 26.1784 32.7972 26.4106 32.4591 26.7906C32.1633 27.1284 32.0788 27.8461 32.2056 28.9439C32.4591 30.675 32.607 32.596 32.6493 34.7071C32.6916 36.776 32.6704 38.4859 32.5859 39.837C32.5437 41.1881 32.4169 43.1514 32.2056 45.7269C31.9943 48.3024 31.8675 50.0968 31.8253 51.1101C31.8253 51.2368 31.8253 52.4612 31.8253 54.7834L12.8723 57C13.1681 46.0224 13.4428 35.2771 13.6964 24.764ZM65.7486 29.7672C65.7908 30.1472 65.8542 30.7172 65.9388 31.4772C66.0233 32.1949 66.1078 32.8071 66.1923 33.3138C66.2768 33.8205 66.4036 34.2849 66.5726 34.7071C66.6994 35.0871 66.9952 35.446 67.4601 35.7838C67.9672 36.0793 68.4109 36.2271 68.7912 36.2271C69.1293 36.2271 69.5096 36.0793 69.9322 35.7838C70.397 35.446 70.7351 35.0871 70.9464 34.7071C71.4958 33.6938 71.7493 32.5327 71.707 31.2238C71.6648 30.1261 71.5591 28.5639 71.3901 26.5373C71.2633 24.4684 71.1788 22.9907 71.1366 22.104C71.0943 21.4285 70.8407 21.0063 70.3759 20.8374C69.9533 20.6685 69.573 20.7107 69.2349 20.964C67.9249 21.5551 67.1643 22.294 66.953 23.1807C66.7417 23.814 66.5726 24.5106 66.4459 25.2706C66.3191 25.9884 66.1712 26.8328 66.0021 27.8039C65.8754 28.7328 65.7908 29.3872 65.7486 29.7672ZM69.4251 1.20444C73.0171 0.866672 74.9187 0.697786 75.13 0.697786C77.2429 0.5289 79.2713 0.80334 81.2152 1.5211C83.2014 2.19664 84.9973 3.46329 86.6032 5.32103C88.209 7.13655 89.2443 9.39539 89.7092 12.0976C91.1037 19.9085 90.9981 26.685 89.3922 32.4272C88.04 37.156 86.7088 41.927 85.3988 46.7402C83.8775 52.229 80.0108 55.2267 73.7988 55.7334C72.0662 55.86 70.5661 56.05 69.2983 56.3033C68.2419 56.4722 67.1643 56.5778 66.0655 56.62C65.0091 56.6622 63.9315 56.5989 62.8328 56.43C61.7763 56.2611 60.8044 56.0711 59.9169 55.86C59.0295 55.6489 58.0153 55.3323 56.8743 54.91C55.7333 54.4878 54.7825 54.1289 54.0219 53.8334C53.2612 53.5378 52.2681 53.1156 51.0426 52.5668C50.0284 52.1445 49.2467 51.4479 48.6973 50.4768C48.1479 49.5057 47.7042 48.3235 47.3661 46.9302C45.6758 40.597 45.2744 34.2849 46.1618 27.9939C47.0915 21.2807 49.9862 14.3986 54.8459 7.34766C55.2262 6.79878 55.7122 6.29212 56.3038 5.82768C56.8954 5.36325 57.6138 4.85659 58.459 4.30771C59.3042 3.75883 59.9169 3.35773 60.2972 3.1044C62.5792 1.37333 65.6218 0.740007 69.4251 1.20444ZM140.739 8.86762C139.514 11.0631 138.88 12.2242 138.838 12.3509C136.387 16.573 134.908 19.0852 134.4 19.8874C133.809 20.7741 132.858 21.2596 131.548 21.344C130.28 21.3863 129.266 21.0274 128.505 20.2674C127.407 19.2119 125.59 18.3885 123.054 17.7974C120.054 17.1219 117.687 17.0586 115.955 17.6074C113.123 18.4941 110.82 19.6552 109.045 21.0907C107.313 22.484 106.214 24.4684 105.749 27.0439C105.242 29.9572 105.39 32.1949 106.193 33.7571C107.334 35.826 109.172 37.5359 111.708 38.887C113.778 39.9848 116.525 40.1114 119.948 39.267C121.3 38.9292 121.955 38.0848 121.913 36.7337C121.871 35.5093 121.998 33.9893 122.293 32.1738C122.336 31.9627 122.484 31.7305 122.737 31.4772C122.991 31.2238 123.223 31.0972 123.434 31.0972C126.9 31.1394 130.217 31.245 133.386 31.4138C133.809 31.4138 134.168 31.4983 134.464 31.6672C134.76 31.7938 135.034 32.0683 135.288 32.4905C135.541 32.9127 135.689 33.1871 135.732 33.3138C135.816 33.4405 135.985 33.7994 136.239 34.3905C136.704 35.446 136.894 36.5437 136.809 37.6837C136.471 42.0325 136.049 45.9169 135.541 49.3368C135.372 50.4346 134.865 51.9334 134.02 53.8334C133.851 54.2134 133.323 54.5089 132.435 54.72C132.14 54.8045 131.696 54.91 131.104 55.0367C130.555 55.2056 130.09 55.3323 129.71 55.4167C129.372 55.5434 128.949 55.6278 128.442 55.67C127.977 55.7545 127.533 55.7967 127.111 55.7967C120.983 55.5434 115.659 55.1423 111.137 54.5934C110.503 54.5089 109.848 54.3401 109.172 54.0867C108.538 53.8334 107.778 53.4956 106.89 53.0734C106.045 52.6512 105.411 52.3556 104.989 52.1868C104.693 52.0601 104.27 51.8701 103.721 51.6168C103.171 51.3634 102.791 51.1946 102.58 51.1101C98.4385 49.2946 95.0156 46.1702 92.311 41.737C91.9307 41.1037 91.6138 39.7737 91.3602 37.7471C91.0221 34.9182 90.7686 32.2372 90.5996 29.7039C90.6418 29.1128 90.6207 28.7539 90.5362 28.6272C90.4939 28.5006 90.5362 28.1628 90.663 27.6139C90.7897 27.0228 90.832 26.6639 90.7897 26.5373C90.7897 26.4106 90.8742 26.0728 91.0433 25.524C91.2123 24.9751 91.2968 24.6373 91.2968 24.5106C91.3391 24.384 91.4447 24.0462 91.6138 23.4973C91.7828 22.9485 91.8885 22.6318 91.9307 22.5474C91.973 22.4207 92.0997 22.0829 92.311 21.534C92.5223 20.9429 92.628 20.6052 92.628 20.5207C94.6564 14.8631 98.0582 10.0287 102.833 6.01768C105.58 3.6955 108.644 2.36553 112.025 2.02776C112.278 1.98554 113.208 1.83776 114.814 1.58444C116.462 1.33111 117.73 1.20444 118.617 1.20444C120.265 1.20444 122.589 1.49999 125.59 2.09109C128.252 2.59775 131.485 3.31551 135.288 4.24438C136.218 4.49771 136.767 4.89881 136.936 5.44769C137.274 6.461 138.119 7.2421 139.472 7.79098C139.641 7.87542 139.81 7.98097 139.979 8.10764C140.148 8.2343 140.296 8.38208 140.422 8.55096C140.591 8.71985 140.697 8.8254 140.739 8.86762ZM160.771 33.9471C161.152 38.2537 161.405 40.787 161.532 41.547C161.574 41.7581 161.807 41.9692 162.229 42.1803C162.694 42.3914 163.096 42.497 163.434 42.497C165.335 42.497 168.061 42.4547 171.611 42.3703C175.16 42.2859 177.632 42.2436 179.027 42.2436C179.83 42.2436 180.971 42.3703 182.45 42.6236C183.295 42.7503 183.612 43.2992 183.401 44.2703C182.936 46.8035 182.64 48.7246 182.513 50.0335C182.302 52.5245 181.055 54.0656 178.773 54.6567C174.801 55.67 170.026 56.1134 164.448 55.9867C163.687 55.9445 159.123 55.9022 150.756 55.86C148.559 55.86 146.995 55.4589 146.065 54.6567C145.178 53.8967 144.565 52.419 144.227 50.2235C143.593 45.8747 143.192 42.1592 143.023 39.077C142.727 33.9682 142.727 30.105 143.023 27.4873C143.361 24.5318 144.333 18.6841 145.939 9.94427C146.108 8.97317 146.615 7.38987 147.46 5.19436C147.925 3.92772 148.664 3.27329 149.678 3.23107C150.355 3.23107 151.58 3.14662 153.355 2.97774C155.13 2.80886 156.482 2.72441 157.412 2.72441C161.764 2.76663 165.927 2.23887 169.899 1.14111C170.744 1.09889 171.23 1.07778 171.357 1.07778C171.526 1.03556 172.054 1.07778 172.942 1.20444C173.829 1.33111 174.357 1.39444 174.526 1.39444C175.203 1.47888 175.921 1.58444 176.682 1.7111C177.442 1.79554 178.287 1.90109 179.217 2.02776C180.147 2.15442 180.886 2.25998 181.436 2.34442C182.408 2.47108 182.894 3.08329 182.894 4.18105C182.851 5.19436 182.83 6.62989 182.83 8.48763C182.83 10.3031 182.83 11.7387 182.83 12.7942C182.83 13.7653 182.492 14.5675 181.816 15.2008C181.182 15.7919 180.379 16.0875 179.407 16.0875C179.323 16.0875 177.907 16.0664 175.16 16.0241C172.456 15.9397 171.061 15.9397 170.977 16.0241C168.822 16.193 166.434 16.6152 163.814 17.2908C163.476 17.3752 163.138 18.1141 162.8 19.5074C162.757 19.6341 162.842 19.8241 163.053 20.0774C163.265 20.3307 163.455 20.4785 163.624 20.5207C166.244 21.0696 168.188 21.3863 169.455 21.4707C170.85 21.5974 172.794 21.724 175.287 21.8507C177.823 21.9774 179.534 22.0618 180.421 22.104C181.267 22.1462 181.858 22.3574 182.196 22.7373C182.534 23.0751 182.682 23.6451 182.64 24.4473C182.64 28.1628 182.577 30.8016 182.45 32.3638C182.408 32.7016 182.26 33.0605 182.006 33.4405C181.753 33.7782 181.457 34.0316 181.119 34.2005C180.02 34.7071 178.858 35.0238 177.632 35.1504C175.984 35.2771 174.336 35.3404 172.688 35.3404C169.603 35.3404 166.497 35.1082 163.37 34.6438C163.328 34.6016 162.462 34.3693 160.771 33.9471ZM201.596 21.0274C202.357 28.6695 202.779 33.0816 202.864 34.2638C202.99 35.4038 203.624 35.9315 204.765 35.8471C205.146 35.8471 205.991 35.8682 207.301 35.9104C208.611 35.9526 209.456 35.9104 209.836 35.7838C211.146 35.5727 212.203 35.0238 213.006 34.1371C214.358 32.7016 214.907 30.8227 214.654 28.5006C214.485 27.1073 214.168 25.9462 213.703 25.0173C213.238 24.0462 212.414 23.2862 211.231 22.7373C209.879 22.0618 208.484 21.6185 207.047 21.4074C205.611 21.1963 203.793 21.0696 201.596 21.0274ZM186.066 3.04107C187.883 2.53442 188.834 2.25998 188.918 2.21776C192.13 0.740006 196.018 0.317792 200.582 0.951115C207.681 1.96443 211.611 2.53442 212.372 2.66108C216.809 3.33662 220.824 5.19436 224.416 8.2343C225.599 9.2054 227.162 11.1054 229.106 13.9342C233.205 19.803 235.276 25.6506 235.318 31.4772C235.361 36.1215 234.473 40.0692 232.656 43.3203C230.839 46.5291 227.944 49.2735 223.972 51.5534C221.69 52.8623 219.281 53.8123 216.746 54.4034C214.252 54.9945 211.379 55.4167 208.125 55.67C207.407 55.7545 205.949 55.9022 203.751 56.1133C201.554 56.3245 199.863 56.4722 198.68 56.5567C198.173 56.5989 197.476 56.5778 196.588 56.4933C195.743 56.4089 195.173 56.3667 194.877 56.3667C194.497 56.3245 193.968 56.3245 193.292 56.3667C192.658 56.4511 192.193 56.4933 191.898 56.4933C190.883 56.4933 190.292 56.4089 190.123 56.24C188.686 54.9312 187.946 53.749 187.904 52.6934C187.355 42.8136 186.996 35.9738 186.827 32.1738C186.615 27.1073 186.277 17.903 185.812 4.56104C185.812 4.4766 185.897 3.96994 186.066 3.04107ZM255.54 29.7672C255.583 30.1472 255.646 30.7172 255.731 31.4772C255.815 32.1949 255.9 32.8071 255.984 33.3138C256.069 33.8205 256.195 34.2849 256.364 34.7071C256.491 35.0871 256.787 35.446 257.252 35.7838C257.759 36.0793 258.203 36.2271 258.583 36.2271C258.921 36.2271 259.301 36.0793 259.724 35.7838C260.189 35.446 260.527 35.0871 260.738 34.7071C261.288 33.6938 261.541 32.5327 261.499 31.2238C261.457 30.1261 261.351 28.5639 261.182 26.5373C261.055 24.4684 260.971 22.9907 260.928 22.104C260.886 21.4285 260.633 21.0063 260.168 20.8374C259.745 20.6685 259.365 20.7107 259.027 20.964C257.717 21.5551 256.956 22.294 256.745 23.1807C256.534 23.814 256.364 24.5106 256.238 25.2706C256.111 25.9884 255.963 26.8328 255.794 27.8039C255.667 28.7328 255.583 29.3872 255.54 29.7672ZM259.217 1.20444C262.809 0.866672 264.711 0.697786 264.922 0.697786C267.035 0.5289 269.063 0.80334 271.007 1.5211C272.993 2.19664 274.789 3.46329 276.395 5.32103C278.001 7.13655 279.036 9.39539 279.501 12.0976C280.896 19.9085 280.79 26.685 279.184 32.4272C277.832 37.156 276.501 41.927 275.191 46.7402C273.669 52.229 269.803 55.2267 263.591 55.7334C261.858 55.86 260.358 56.05 259.09 56.3033C258.034 56.4722 256.956 56.5778 255.857 56.62C254.801 56.6622 253.723 56.5989 252.625 56.43C251.568 56.2611 250.596 56.0711 249.709 55.86C248.821 55.6489 247.807 55.3323 246.666 54.91C245.525 54.4878 244.574 54.1289 243.814 53.8334C243.053 53.5378 242.06 53.1156 240.834 52.5668C239.82 52.1445 239.038 51.4479 238.489 50.4768C237.94 49.5057 237.496 48.3235 237.158 46.9302C235.468 40.597 235.066 34.2849 235.954 27.9939C236.883 21.2807 239.778 14.3986 244.638 7.34766C245.018 6.79878 245.504 6.29212 246.096 5.82768C246.687 5.36325 247.406 4.85659 248.251 4.30771C249.096 3.75883 249.709 3.35773 250.089 3.1044C252.371 1.37333 255.414 0.740007 259.217 1.20444ZM330.531 8.86762C329.306 11.0631 328.672 12.2242 328.629 12.3509C326.178 16.573 324.699 19.0852 324.192 19.8874C323.601 20.7741 322.65 21.2596 321.34 21.344C320.072 21.3863 319.058 21.0274 318.297 20.2674C317.199 19.2119 315.381 18.3885 312.846 17.7974C309.846 17.1219 307.479 17.0586 305.746 17.6074C302.915 18.4941 300.612 19.6552 298.837 21.0907C297.105 22.484 296.006 24.4684 295.541 27.0439C295.034 29.9572 295.182 32.1949 295.985 33.7571C297.126 35.826 298.964 37.5359 301.5 38.887C303.57 39.9848 306.317 40.1114 309.74 39.267C311.092 38.9292 311.747 38.0848 311.705 36.7337C311.663 35.5093 311.789 33.9893 312.085 32.1738C312.128 31.9627 312.275 31.7305 312.529 31.4772C312.783 31.2238 313.015 31.0972 313.226 31.0972C316.691 31.1394 320.009 31.245 323.178 31.4138C323.601 31.4138 323.96 31.4983 324.256 31.6672C324.552 31.7938 324.826 32.0683 325.08 32.4905C325.333 32.9127 325.481 33.1871 325.523 33.3138C325.608 33.4405 325.777 33.7994 326.031 34.3905C326.495 35.446 326.686 36.5437 326.601 37.6837C326.263 42.0325 325.84 45.9169 325.333 49.3368C325.164 50.4346 324.657 51.9334 323.812 53.8334C323.643 54.2134 323.115 54.5089 322.227 54.72C321.931 54.8045 321.488 54.91 320.896 55.0367C320.347 55.2056 319.882 55.3323 319.502 55.4167C319.164 55.5434 318.741 55.6278 318.234 55.67C317.769 55.7545 317.325 55.7967 316.903 55.7967C310.775 55.5434 305.451 55.1423 300.929 54.5934C300.295 54.5089 299.64 54.3401 298.964 54.0867C298.33 53.8334 297.569 53.4956 296.682 53.0734C295.837 52.6512 295.203 52.3556 294.78 52.1868C294.485 52.0601 294.062 51.8701 293.513 51.6168C292.963 51.3634 292.583 51.1946 292.372 51.1101C288.23 49.2946 284.807 46.1702 282.103 41.737C281.723 41.1037 281.406 39.7737 281.152 37.7471C280.814 34.9182 280.56 32.2372 280.391 29.7039C280.434 29.1128 280.413 28.7539 280.328 28.6272C280.286 28.5006 280.328 28.1628 280.455 27.6139C280.582 27.0228 280.624 26.6639 280.582 26.5373C280.582 26.4106 280.666 26.0728 280.835 25.524C281.004 24.9751 281.089 24.6373 281.089 24.5106C281.131 24.384 281.237 24.0462 281.406 23.4973C281.575 22.9485 281.68 22.6318 281.723 22.5474C281.765 22.4207 281.892 22.0829 282.103 21.534C282.314 20.9429 282.42 20.6052 282.42 20.5207C284.448 14.8631 287.85 10.0287 292.625 6.01768C295.372 3.6955 298.436 2.36553 301.816 2.02776C302.07 1.98554 303 1.83776 304.605 1.58444C306.254 1.33111 307.521 1.20444 308.409 1.20444C310.057 1.20444 312.381 1.49999 315.381 2.09109C318.044 2.59775 321.276 3.31551 325.08 4.24438C326.009 4.49771 326.559 4.89881 326.728 5.44769C327.066 6.461 327.911 7.2421 329.263 7.79098C329.432 7.87542 329.601 7.98097 329.77 8.10764C329.939 8.2343 330.087 8.38208 330.214 8.55096C330.383 8.71985 330.489 8.8254 330.531 8.86762Z" fill="#F8D259"/>
</svg>