<svg width="16" height="16" viewBox="0 0 16 16" fill="none" xmlns="http://www.w3.org/2000/svg">
<rect width="16" height="16" rx="3" fill="#69D3B0"/>
<path d="M4.99176 3.7046L5.56872 3.93875H7.93432L9.15874 4.02513L9.86393 4.21746L10.6973 3.44817L12.6206 2.35834L14.0879 3.12763L14.7931 6.07657L14.5583 7.27809L14.9999 8.12801V8.8973L14.5583 10.9487L12.4923 12.872L11.4671 13.0411H9.03053L8.26124 12.6076H7.81964L7.29963 13.0411L5.56872 13.5772L3.38907 13.0411L1.9787 11.5257L1.3103 9.14009L1.52995 8.44855V7.61515L1.01709 6.07657L1.7519 4.02513L3.51728 2.8712L4.99176 3.7046Z" fill="#F8D259"/>
<path d="M9.6136 9.83929C10.0511 10.2687 9.43989 11.4973 8.8506 11.701C8.02377 13.0212 4.87394 9.98178 7.08624 9.86114C7.74572 9.82518 9.0362 9.27255 9.6136 9.83929Z" fill="#282828"/>
<ellipse cx="5" cy="8.80307" rx="1" ry="0.803071" fill="#282828"/>
<ellipse cx="11" cy="8.80307" rx="1" ry="0.803071" fill="#282828"/>
<path d="M3.06836 12.6796C3.74046 13.2734 5.29876 13.6565 6.17213 13.5225C6.64044 13.4507 7.00081 13.3214 7.37141 13.0408C7.54077 12.9126 7.96921 12.6131 7.96921 12.3852" stroke="#282828" stroke-width="0.8" stroke-linecap="round"/>
<path d="M7.91968 12.1082C7.91968 12.7273 8.54823 13.0841 9.07837 13.2328C9.57058 13.3708 10.1296 13.3632 10.6393 13.3632C11.0635 13.3632 12.0437 13.1284 12.9412 12.5514" stroke="#282828" stroke-width="0.8" stroke-linecap="round"/>
<path d="M1.74341 7.88937C1.74341 8.22572 1.49878 8.47814 1.49878 8.82712" stroke="#222222" stroke-width="0.8" stroke-linecap="round"/>
<path d="M10.9316 4.71906C10.9316 4.71906 11.5835 5.68937 11.7626 5.84147C12.0292 6.06794 12.2912 6.30254 12.6106 6.45814C13.0401 6.66742 14.2774 7.26486 14.6724 6.70639" stroke="#282828" stroke-width="0.8" stroke-linecap="round"/>
<path d="M1.75708 7.72153C2.07112 7.79188 2.46285 7.69765 2.75597 7.58666C3.23423 7.40555 3.58293 7.09921 3.97065 6.78352C4.26442 6.54432 4.50018 6.2603 4.73739 5.96908C4.82484 5.86172 5.07965 5.51353 5.07965 5.51353" stroke="#282828" stroke-width="0.8" stroke-linecap="round"/>
<path d="M10.2239 3.93451C10.5537 3.63765 10.8656 3.34211 11.2341 3.09642C11.6964 2.78823 12.2 2.48657 12.7489 2.48657C13.0422 2.48657 13.3256 2.58552 13.5823 2.743C13.896 2.93549 14.0568 3.41612 14.2376 3.72612C14.5997 4.34687 14.8197 5.08871 14.7088 5.81001" stroke="#222222" stroke-width="0.8" stroke-linecap="round"/>
<path d="M14.7087 6.05463C14.7087 6.20638 14.7193 6.34378 14.668 6.485C14.615 6.6307 14.5239 6.70963 14.4641 6.82929" stroke="#222222" stroke-width="0.8" stroke-linecap="round"/>
<path d="M9.97927 4.0976C9.31236 3.77367 8.54415 3.77142 7.81837 3.77142C7.46025 3.77142 7.10996 3.77408 6.75831 3.85523C6.50818 3.91295 6.23416 3.94778 6.02441 4.0976" stroke="#222222" stroke-width="0.8" stroke-linecap="round"/>
<path d="M14.4641 7.03314C14.6822 7.3058 14.8644 7.93569 14.8644 8.89731" stroke="#222222" stroke-width="0.8" stroke-linecap="round"/>
<path d="M1.62133 7.69716C1.53845 7.69716 1.44965 7.64215 1.40031 7.57751C1.35591 7.51933 1.32926 7.44894 1.28399 7.38974C1.22304 7.31003 1.17793 7.25144 1.15105 7.15128C1.09629 6.94716 1.00594 6.76204 0.966598 6.55222C0.946266 6.44377 0.948319 6.33455 0.948319 6.22485C0.948319 6.05716 0.940267 5.8989 1.00482 5.74045C1.13876 5.41167 1.26956 5.07957 1.42607 4.76002C1.56256 4.48136 1.71248 4.1629 1.91712 3.92832C2.02375 3.80608 2.13769 3.68924 2.26442 3.58766C2.44837 3.44021 2.6068 3.24825 2.81197 3.13068" stroke="#222222" stroke-width="0.8" stroke-linecap="round"/>
<path d="M2.62354 3.28527C2.6281 3.24878 2.72389 3.20235 2.74983 3.18556C2.85829 3.11538 2.97283 2.99648 3.10212 2.97452C3.33646 2.93473 3.59005 2.80689 3.82332 2.93298C4.01265 3.03532 4.23142 3.09549 4.40659 3.22212C4.59637 3.35931 4.81979 3.46319 5.02642 3.57275C5.26398 3.69871 5.50236 3.81463 5.74928 3.92006" stroke="#222222" stroke-width="0.8" stroke-linecap="round"/>
<path d="M14.8815 8.72519C14.8815 9.21174 14.8365 9.63006 14.6925 10.0942C14.6013 10.388 14.5304 10.6951 14.3922 10.9715C14.3077 11.1405 14.2086 11.2781 14.1031 11.4336C13.925 11.696 13.7125 11.9181 13.4915 12.1391C13.3954 12.2352 13.2705 12.3047 13.169 12.3949C13.0254 12.5225 12.8488 12.644 12.6797 12.7285" stroke="#222222" stroke-width="0.8" stroke-linecap="round"/>
<path d="M1.46597 8.89734C1.33775 9.79484 1.64352 10.8971 1.90424 11.3051C2.16769 11.7175 2.74808 12.6156 3.51737 12.9361" stroke="#222222" stroke-width="0.8" stroke-linecap="round"/>
</svg>
