<svg xmlns="http://www.w3.org/2000/svg" width="25" height="24" viewBox="0 0 25 24" fill="none">
  <g clip-path="url(#clip0_43_399)">
    <path d="M18.7549 8H17.7549V6C17.7549 3.24 15.5149 1 12.7549 1C9.99488 1 7.75488 3.24 7.75488 6V8H6.75488C5.65488 8 4.75488 8.9 4.75488 10V20C4.75488 21.1 5.65488 22 6.75488 22H18.7549C19.8549 22 20.7549 21.1 20.7549 20V10C20.7549 8.9 19.8549 8 18.7549 8ZM12.7549 17C11.6549 17 10.7549 16.1 10.7549 15C10.7549 13.9 11.6549 13 12.7549 13C13.8549 13 14.7549 13.9 14.7549 15C14.7549 16.1 13.8549 17 12.7549 17ZM9.75488 8V6C9.75488 4.34 11.0949 3 12.7549 3C14.4149 3 15.7549 4.34 15.7549 6V8H9.75488Z" fill="#D7D7D7"/>
  </g>
  <defs>
    <clipPath id="clip0_43_399">
      <rect width="24" height="24" fill="white" transform="translate(0.754883)"/>
    </clipPath>
  </defs>
</svg>